<?xml version="1.0" encoding="UTF-8"?>
<svg width="16px" height="12px" viewBox="0 0 16 12" version="1.1" xmlns="http://www.w3.org/2000/svg" xmlns:xlink="http://www.w3.org/1999/xlink">
    <!-- Generator: Sketch 61.2 (89653) - https://sketch.com -->
    <title>left-arrow (2) copy</title>
    <desc>Created with Sketch.</desc>
    <g id="Page-1" stroke="none" stroke-width="1" fill="none" fill-rule="evenodd">
        <g id="PowerIM_Гарантии" transform="translate(-176.000000, -846.000000)" fill="#25262A" fill-rule="nonzero">
            <g id="left-arrow-(2)-copy" transform="translate(184.000000, 852.000000) scale(-1, 1) rotate(-180.000000) translate(-184.000000, -852.000000) translate(176.000000, 846.000000)">
                <path d="M5.54548774,0.180479653 C5.78514673,-0.0601598844 6.16244771,-0.0601598844 6.4021067,0.180479653 C6.6336691,0.412989477 6.6336691,0.799963868 6.4021067,1.03193171 L2.05855738,5.39325234 L15.3916764,5.39325234 C15.7257956,5.39325234 16,5.65990696 16,5.99539316 C16,6.33087936 15.7257956,6.60620568 15.3916764,6.60620568 L2.05855738,6.60620568 L6.4021067,10.9593966 C6.6336691,11.2000361 6.6336691,11.5875525 6.4021067,11.8195203 C6.16244771,12.0601599 5.78514673,12.0601599 5.54548774,11.8195203 L0.173671802,6.42572603 C-0.0578906008,6.19321621 -0.0578906008,5.80624181 0.173671802,5.57427397 L5.54548774,0.180479653 Z" id="Path"></path>
            </g>
        </g>
    </g>
</svg>