<?xml version="1.0" encoding="UTF-8"?>
<svg width="10px" height="12px" viewBox="0 0 10 12" version="1.1" xmlns="http://www.w3.org/2000/svg" xmlns:xlink="http://www.w3.org/1999/xlink">
    <!-- Generator: Sketch 61.2 (89653) - https://sketch.com -->
    <title>locked-padlock</title>
    <desc>Created with Sketch.</desc>
    <g id="Page-1" stroke="none" stroke-width="1" fill="none" fill-rule="evenodd">
        <g id="PowerIM_Стартовая-4" transform="translate(-686.000000, -321.000000)" fill="#6A6B6F" fill-rule="nonzero">
            <g id="Group-5" transform="translate(672.000000, 72.000000)">
                <g id="locked-padlock" transform="translate(14.000000, 249.000000)">
                    <path d="M9.29060213,4.84609837 L9.03709109,4.84609837 L9.03709109,3.75174891 C9.03709109,1.72766589 7.29557933,0.0368333357 5.11889678,0.000739625215 C5.05942166,-0.000246541738 4.94057834,-0.000246541738 4.88112995,0.000739625215 C2.70439394,0.0368333357 0.962908908,1.72766589 0.962908908,3.75174891 L0.962908908,4.84609837 L0.709371141,4.84609837 C0.318679732,4.84609837 0,5.21793262 0,5.67716592 L0,11.165974 C0,11.6246895 0.318679732,12 0.709397871,12 L9.29060213,12 C9.68129354,12 10,11.6246895 10,11.165974 L10,5.67716592 C10,5.21795728 9.68132027,4.84609837 9.29060213,4.84609837 Z M5.80394327,8.41599809 L5.80394327,10.074509 C5.80394327,10.2644201 5.63155897,10.4251407 5.42549438,10.4251407 L4.57455908,10.4251407 C4.36846776,10.4251407 4.19608346,10.2644201 4.19608346,10.074509 L4.19608346,8.41599809 C3.99622032,8.23454337 3.87986293,7.98363785 3.87986293,7.70608116 C3.87986293,7.18010901 4.32067382,6.7281487 4.88115668,6.70726661 C4.94055161,6.70504774 5.05952858,6.70504774 5.11892351,6.70726661 C5.67940637,6.7281487 6.12021726,7.18010901 6.12021726,7.70608116 C6.1201638,7.98363785 6.00380641,8.23454337 5.80394327,8.41599809 Z M7.36620102,4.84609837 L5.11889678,4.84609837 L4.88112995,4.84609837 L2.63385244,4.84609837 L2.63385244,3.75174891 C2.63385244,2.54603653 3.69622513,1.54909571 5,1.54909571 C6.30377487,1.54909571 7.36620102,2.54603653 7.36620102,3.75174891 L7.36620102,4.84609837 L7.36620102,4.84609837 Z" id="Shape"></path>
                </g>
            </g>
        </g>
    </g>
</svg>