<?xml version="1.0" encoding="UTF-8"?>
<svg width="14px" height="14px" viewBox="0 0 14 14" version="1.1" xmlns="http://www.w3.org/2000/svg" xmlns:xlink="http://www.w3.org/1999/xlink">
    <!-- Generator: Sketch 61.2 (89653) - https://sketch.com -->
    <title>Path 2</title>
    <desc>Created with Sketch.</desc>
    <g id="Page-1" stroke="none" stroke-width="1" fill="none" fill-rule="evenodd">
        <g id="PowerIM_Аудит-3" transform="translate(-1050.000000, -973.000000)" fill="#25262A" stroke="#25262A" stroke-width="0.3">
            <g id="Group-14" transform="translate(72.000000, 208.000000)">
                <g id="Group-8" transform="translate(40.000000, 544.000000)">
                    <g id="Path-2" transform="translate(939.000000, 222.000000)">
                        <path d="M11.8485897,0.151410323 C12.0504701,0.353290753 12.0504701,0.680603602 11.8485897,0.882484032 L6.73107371,6 L11.8485897,11.117516 C12.0504701,11.3193964 12.0504701,11.6467092 11.8485897,11.8485897 C11.6467092,12.0504701 11.3193964,12.0504701 11.117516,11.8485897 L6,6.73107371 L0.882484032,11.8485897 C0.680603602,12.0504701 0.353290753,12.0504701 0.151410323,11.8485897 C-0.0504701076,11.6467092 -0.0504701076,11.3193964 0.151410323,11.117516 L5.26892629,6 L0.151410323,0.882484032 C-0.0504701076,0.680603602 -0.0504701076,0.353290753 0.151410323,0.151410323 C0.353290753,-0.0504701076 0.680603602,-0.0504701076 0.882484032,0.151410323 L6,5.26892629 L11.117516,0.151410323 C11.3193964,-0.0504701076 11.6467092,-0.0504701076 11.8485897,0.151410323 Z" id="Path"></path>
                    </g>
                </g>
            </g>
        </g>
    </g>
</svg>