<?xml version="1.0" encoding="UTF-8"?>
<svg width="14px" height="10px" viewBox="0 0 14 10" version="1.1" xmlns="http://www.w3.org/2000/svg" xmlns:xlink="http://www.w3.org/1999/xlink">
    <!-- Generator: Sketch 61.2 (89653) - https://sketch.com -->
    <title>crown</title>
    <desc>Created with Sketch.</desc>
    <g id="Page-1" stroke="none" stroke-width="1" fill="none" fill-rule="evenodd">
        <g id="PowerIM_Личный-кабинет" transform="translate(-831.000000, -505.000000)" fill="#342B06" fill-rule="nonzero">
            <g id="Group-7" transform="translate(784.000000, 401.000000)">
                <g id="Group-7-Copy-4" transform="translate(44.000000, 99.000000)">
                    <g id="Group-6">
                        <g id="crown" transform="translate(3.333333, 5.833333)">
                            <path d="M11.3106283,7.07446067 L11.3106283,7.94959738 C11.3106283,8.16154687 11.134847,8.33333333 10.9179688,8.33333333 L10.9179688,8.33333333 L2.41536458,8.33333333 C2.19848633,8.33333333 2.02270508,8.16154687 2.02270508,7.94959738 L2.02270508,7.94959738 L2.02270508,7.07446067 L11.3106283,7.07446067 Z M6.66666667,-6.66133815e-15 C7.36623128,-6.66133815e-15 7.93538411,0.556218319 7.93538411,1.23988468 C7.93538411,1.58465056 7.79052734,1.89690824 7.55727133,2.1218809 C7.75929768,3.03787654 8.59425862,3.726613 9.59116617,3.726613 C10.2070109,3.726613 10.7608032,3.46346556 11.1421712,3.0465255 C10.9277344,2.82443584 10.7960002,2.52540015 10.7960002,2.19673923 C10.7960002,1.51307287 11.3650513,0.956854552 12.0646159,0.956854552 C12.7641805,0.956854552 13.3333333,1.51307287 13.3333333,2.19673923 C13.3333333,2.78924346 12.9057821,3.28561486 12.3364258,3.40759518 C12.2238159,4.31583656 12.0062256,5.4224078 11.5861003,6.30698876 L11.5861003,6.30698876 L1.74723307,6.30698876 C1.32710776,5.4224078 1.10951742,4.31583656 0.996907552,3.40759518 C0.427551276,3.28571429 0,2.78924346 0,2.19673923 C0,1.51307287 0.569152839,0.956854552 1.26871745,0.956854552 C1.96828206,0.956854552 2.5374349,1.51307287 2.5374349,2.19673923 C2.5374349,2.52540015 2.40559896,2.82443584 2.19116211,3.0465255 C2.5725301,3.46346556 3.12632242,3.726613 3.74216716,3.726613 C4.73907471,3.726613 5.57403565,3.03787654 5.77606201,2.1218809 C5.54290771,1.89690824 5.39794922,1.58465056 5.39794922,1.23988468 C5.39794922,0.556218319 5.96710206,-6.66133815e-15 6.66666667,-6.66133815e-15 Z" id="Combined-Shape"></path>
                        </g>
                    </g>
                </g>
            </g>
        </g>
    </g>
</svg>