<?xml version="1.0" encoding="UTF-8"?>
<svg width="50px" height="56px" viewBox="0 0 50 56" version="1.1" xmlns="http://www.w3.org/2000/svg" xmlns:xlink="http://www.w3.org/1999/xlink">
    <!-- Generator: Sketch 61.2 (89653) - https://sketch.com -->
    <title>Group 6</title>
    <desc>Created with Sketch.</desc>
    <g id="Page-1" stroke="none" stroke-width="1" fill="none" fill-rule="evenodd">
        <g id="PowerIM_Гарантии" transform="translate(-239.000000, -512.000000)">
            <g id="Group-6" transform="translate(236.000000, 512.000000)">
                <rect id="Rectangle" x="0" y="0" width="56" height="56"></rect>
                <g id="brain" transform="translate(3.000000, 0.000000)" fill="#5840BB" fill-rule="nonzero">
                    <path d="M31.5217391,0 C34.4538043,0 37.2347826,1.980125 38.4842391,4.88654687 C41.6765217,5.6643125 43.8306522,8.71346875 43.4320652,12.04 C46.0591304,13.3652969 47.826087,16.2033594 47.826087,19.25 C47.826087,20.2345938 47.6315217,21.1974219 47.2465217,22.1231719 C48.9861957,23.5699844 50,25.7035625 50,28 C50,29.5232656 49.5332609,31.28125 48.6003261,32.6902187 C49.5081522,33.9796406 50,35.5079375 50,37.078125 C50,39.1143594 49.1795652,41.0539063 47.7283696,42.4941563 C47.793913,42.8931562 47.826087,43.2721406 47.826087,43.640625 C47.826087,47.9685937 44.3417391,51.625 40.2173913,51.625 C40.1836957,51.625 40.1506522,51.6244531 40.1180435,51.6234688 C38.5729348,54.3055625 35.7048913,56 32.6086957,56 C29.3817391,56 26.4982609,54.0509375 25,51.2428437 C23.5017391,54.0509375 20.6182609,56 17.3913043,56 C14.2951087,56 11.4270652,54.3055625 9.88195652,51.6234688 C9.84945652,51.6244531 9.81630435,51.625 9.7826087,51.625 C5.12228261,51.625 1.52554348,47.0323437 2.27163043,42.4941563 C0.820434783,41.0539063 0,39.11425 0,37.078125 C0,35.5079375 0.491847826,33.9796406 1.39967391,32.6901094 C0.470652174,31.2869375 0,29.53125 0,28 C0,25.7035625 1.01380435,23.5700937 2.75347826,22.1231719 C2.36847826,21.1974219 2.17391304,20.2345938 2.17391304,19.25 C2.17391304,16.2033594 3.94097826,13.3651875 6.56793478,12.04 C6.17043478,8.73370312 8.30434783,5.66934375 11.5157609,4.88665625 C12.765,1.980125 15.5459783,0 18.4782609,0 C21.2075,0 23.6554348,1.60190625 25,3.93925 C26.3444565,1.60190625 28.7923913,0 31.5217391,0 Z M31.5217391,2.1875 C28.6265217,2.1875 26.0869565,4.89628125 26.0869565,7.984375 L26.0869565,7.984375 L26.0869565,16.5572969 C26.7269565,16.1837813 27.4692391,15.96875 28.2608696,15.96875 C28.861087,15.96875 29.3478261,16.4584219 29.3478261,17.0625 C29.3478261,17.6665781 28.861087,18.15625 28.2608696,18.15625 C27.0621739,18.15625 26.0869565,19.1375625 26.0869565,20.34375 L26.0869565,20.34375 L26.0869565,41.1434844 C27.6816304,39.323375 30.0133696,38.171875 32.6086957,38.171875 C33.208913,38.171875 33.6956522,38.6615469 33.6956522,39.265625 C33.6956522,39.8697031 33.208913,40.359375 32.6086957,40.359375 C29.0126087,40.359375 26.0869565,43.3033125 26.0869565,46.921875 C26.0869565,50.6569219 29.073587,53.8125 32.6086957,53.8125 C35.1251087,53.8125 37.4419565,52.3150469 38.5108696,49.9975 C38.7077174,49.5703906 39.1534783,49.3181719 39.6194565,49.3712187 C39.6963043,49.3799688 39.7728261,49.3903594 39.8492391,49.4008594 C42.6005435,49.7792969 45.6521739,47.0355156 45.6521739,43.6405156 C45.6521739,43.2475312 45.598587,42.8401094 45.4833696,42.3585312 C45.3865217,41.953625 45.5266304,41.5284844 45.8448913,41.2620469 C47.103913,40.2077812 47.826087,38.6827656 47.826087,37.078125 C47.826087,36.0860938 47.5472826,35.1152812 47.028587,34.2640156 C45.7248913,35.3387344 44.1032609,35.984375 42.3913043,35.984375 C41.791087,35.984375 41.3043478,35.4947031 41.3043478,34.890625 C41.3043478,34.2865469 41.791087,33.796875 42.3913043,33.796875 C45.3325,33.796875 47.826087,31.0987031 47.826087,28 C47.826087,26.1269531 46.8772826,24.4038594 45.2879348,23.3907187 C44.7982609,23.0785625 44.6381522,22.4346719 44.9240217,21.9272813 C45.4071739,21.0698906 45.6521739,20.1690781 45.6521739,19.25 C45.6521739,16.2965469 43.258913,13.453125 40.2173913,13.453125 C37.3221739,13.453125 34.7826087,16.1620156 34.7826087,19.25 C34.7826087,19.8540781 34.2958696,20.34375 33.6956522,20.34375 C33.0954348,20.34375 32.6086957,19.8540781 32.6086957,19.25 C32.6086957,14.9220313 36.0930435,11.265625 40.2173913,11.265625 C40.5813043,11.265625 40.9432609,11.2952656 41.3016304,11.351375 C41.3021739,11.3226094 41.3043478,11.2945 41.3043478,11.265625 C41.3043478,8.83607813 39.3470652,6.890625 36.9565217,6.890625 C35.7954348,6.890625 34.7033696,7.34573438 33.881087,8.17195312 C33.4565217,8.59884375 32.7681522,8.59851563 32.343913,8.17107812 C31.9196739,7.74364062 31.9201087,7.0511875 32.3448913,6.62429687 C33.3366304,5.6275625 34.5907609,4.991875 35.9498913,4.78121875 C34.9913043,3.3495 33.3973913,2.1875 31.5217391,2.1875 Z M18.4782609,2.1875 C16.6026087,2.1875 15.008587,3.3495 14.05,4.78132812 C15.4092391,4.99198438 16.6634783,5.62767188 17.6551087,6.62440625 C18.0797826,7.05129687 18.0801087,7.74375 17.6558696,8.1711875 C17.2315217,8.59840625 16.5433696,8.59884375 16.1186957,8.17195312 C15.2967391,7.34573438 14.2045652,6.890625 13.0434783,6.890625 C10.6648913,6.890625 8.69565217,8.82470312 8.69565217,11.265625 C8.69565217,11.2946094 8.69782609,11.3226094 8.69836957,11.351375 C9.05673913,11.2952656 9.41869565,11.265625 9.7826087,11.265625 C13.9069565,11.265625 17.3913043,14.9220313 17.3913043,19.25 C17.3913043,19.8540781 16.9046739,20.34375 16.3043478,20.34375 C15.7040217,20.34375 15.2173913,19.8540781 15.2173913,19.25 C15.2173913,16.1620156 12.6778261,13.453125 9.7826087,13.453125 C6.73934783,13.453125 4.34782609,16.2979687 4.34782609,19.25 C4.34782609,20.1690781 4.59282609,21.0698906 5.07597826,21.9272813 C5.36195652,22.4346719 5.20184783,23.0785625 4.71217391,23.3907187 C3.12271739,24.4038594 2.17391304,26.1269531 2.17391304,28 C2.17391304,31.0876563 4.65880435,33.796875 7.60869565,33.796875 C8.20902174,33.796875 8.69565217,34.2865469 8.69565217,34.890625 C8.69565217,35.4947031 8.20902174,35.984375 7.60869565,35.984375 C5.89684783,35.984375 4.27521739,35.3388438 2.97152174,34.2636875 C2.45271739,35.1150625 2.17391304,36.0859844 2.17391304,37.078125 C2.17391304,38.6827656 2.89608696,40.2077812 4.15521739,41.2620469 C4.47336957,41.5284844 4.61358696,41.9535156 4.51673913,42.3585312 C3.57369565,46.3017188 7.0573913,49.8265469 10.1508696,49.4008594 C10.2272826,49.3903594 10.3036957,49.3800781 10.3805435,49.3712188 C10.8458696,49.3185 11.2921739,49.5703906 11.4892391,49.9975 C12.5581522,52.3150469 14.8747826,53.8125 17.3913043,53.8125 C20.926413,53.8125 23.9130435,50.6569219 23.9130435,46.921875 C23.9130435,43.3033125 20.9873913,40.359375 17.3913043,40.359375 C16.7909783,40.359375 16.3043478,39.8697031 16.3043478,39.265625 C16.3043478,38.6615469 16.7909783,38.171875 17.3913043,38.171875 C19.9866304,38.171875 22.3183696,39.323375 23.9130435,41.1434844 L23.9130435,41.1434844 L23.9130435,20.34375 C23.9130435,19.1375625 22.9378261,18.15625 21.7391304,18.15625 C21.1388043,18.15625 20.6521739,17.6665781 20.6521739,17.0625 C20.6521739,16.4584219 21.1388043,15.96875 21.7391304,15.96875 C22.5307609,15.96875 23.2730435,16.1837813 23.9130435,16.5572969 L23.9130435,16.5572969 L23.9130435,7.984375 C23.9130435,4.89628125 21.3734783,2.1875 18.4782609,2.1875 Z M9.7826087,42.546875 C13.9069565,42.546875 17.3913043,46.2032813 17.3913043,50.53125 C17.3913043,51.1353281 16.9046739,51.625 16.3043478,51.625 C15.7040217,51.625 15.2173913,51.1353281 15.2173913,50.53125 C15.2173913,47.4432656 12.6778261,44.734375 9.7826087,44.734375 C9.18228261,44.734375 8.69565217,44.2447031 8.69565217,43.640625 C8.69565217,43.0365469 9.18228261,42.546875 9.7826087,42.546875 Z M40.2173913,42.546875 C40.8176087,42.546875 41.3043478,43.0365469 41.3043478,43.640625 C41.3043478,44.2447031 40.8176087,44.734375 40.2173913,44.734375 C37.3221739,44.734375 34.7826087,47.4432656 34.7826087,50.53125 C34.7826087,51.1353281 34.2958696,51.625 33.6956522,51.625 C33.0954348,51.625 32.6086957,51.1353281 32.6086957,50.53125 C32.6086957,46.2032813 36.0930435,42.546875 40.2173913,42.546875 Z M18.4782609,33.796875 C19.078587,33.796875 19.5652174,34.2865469 19.5652174,34.890625 C19.5652174,35.4947031 19.078587,35.984375 18.4782609,35.984375 C15.6173913,35.984375 13.1558696,37.5610156 11.858587,39.8640156 C11.5625,40.3895625 10.8992391,40.5739688 10.3769565,40.2761406 C9.85478261,39.9783125 9.67141304,39.3107969 9.9673913,38.78525 C11.6326087,35.8296094 14.795,33.796875 18.4782609,33.796875 Z M31.5217391,33.796875 C35.2134783,33.796875 38.3715217,35.8367187 40.0326087,38.7853594 C40.3284783,39.3109062 40.1451087,39.9784219 39.6228261,40.27625 C39.101413,40.57375 38.4376087,40.3902187 38.1411957,39.8640156 C36.843913,37.5605781 34.3805435,35.984375 31.5217391,35.984375 C30.9215217,35.984375 30.4347826,35.4947031 30.4347826,34.890625 C30.4347826,34.2865469 30.9215217,33.796875 31.5217391,33.796875 Z M9.7826087,18.15625 C10.3829348,18.15625 10.8695652,18.6459219 10.8695652,19.25 C10.8695652,23.9560781 16.4418478,26.4635 19.9275,23.3260781 C20.375,22.9233594 21.0620652,22.9618594 21.4622826,23.4120469 C21.8625,23.8622344 21.8242391,24.5537031 21.3768478,24.9564219 C20.2280435,25.9905625 18.8053261,26.6414531 17.2936957,26.8404063 C16.8141304,29.3660938 14.6040217,31.28125 11.9565217,31.28125 C11.3561957,31.28125 10.8695652,30.7915781 10.8695652,30.1875 C10.8695652,29.5834219 11.3561957,29.09375 11.9565217,29.09375 C13.4115217,29.09375 14.6467391,28.1296094 15.0652174,26.8031094 C11.4572826,26.2057031 8.69565217,23.0469531 8.69565217,19.25 C8.69565217,18.6459219 9.18228261,18.15625 9.7826087,18.15625 Z M40.2173913,18.15625 C40.8176087,18.15625 41.3043478,18.6459219 41.3043478,19.25 C41.3043478,23.0469531 38.5427174,26.2057031 34.9347826,26.8031094 C35.3532609,28.1296094 36.5884783,29.09375 38.0434783,29.09375 C38.6436957,29.09375 39.1304348,29.5834219 39.1304348,30.1875 C39.1304348,30.7915781 38.6436957,31.28125 38.0434783,31.28125 C35.3959783,31.28125 33.1858696,29.3660938 32.7063043,26.8404063 C31.1947826,26.6414531 29.7719565,25.9905625 28.6231522,24.9564219 C28.1757609,24.5537031 28.1373913,23.8622344 28.5377174,23.4120469 C28.9379348,22.96175 29.6252174,22.9233594 30.0725,23.3260781 C31.0703261,24.2241563 32.3569565,24.71875 33.6956522,24.71875 C36.6923913,24.71875 39.1304348,22.2654688 39.1304348,19.25 C39.1304348,18.6459219 39.6171739,18.15625 40.2173913,18.15625 Z M30.4347826,9.078125 C31.0347826,9.078125 31.5217391,9.568125 31.5217391,10.171875 C31.5217391,10.775625 31.0347826,11.265625 30.4347826,11.265625 C29.8347826,11.265625 29.3478261,10.775625 29.3478261,10.171875 C29.3478261,9.568125 29.8347826,9.078125 30.4347826,9.078125 Z M19.5652174,9.078125 C20.1652174,9.078125 20.6521739,9.568125 20.6521739,10.171875 C20.6521739,10.775625 20.1652174,11.265625 19.5652174,11.265625 C18.9652174,11.265625 18.4782609,10.775625 18.4782609,10.171875 C18.4782609,9.568125 18.9652174,9.078125 19.5652174,9.078125 Z" id="Combined-Shape"></path>
                </g>
            </g>
        </g>
    </g>
</svg>