<?xml version="1.0" encoding="UTF-8"?>
<svg width="56px" height="56px" viewBox="0 0 56 56" version="1.1" xmlns="http://www.w3.org/2000/svg" xmlns:xlink="http://www.w3.org/1999/xlink">
    <!-- Generator: Sketch 61.2 (89653) - https://sketch.com -->
    <title>Group 10</title>
    <desc>Created with Sketch.</desc>
    <g id="Page-1" stroke="none" stroke-width="1" fill="none" fill-rule="evenodd">
        <g id="PowerIM_Гарантии" transform="translate(-572.000000, -512.000000)">
            <g id="Group-10" transform="translate(572.000000, 512.000000)">
                <rect id="Rectangle-Copy" x="0" y="0" width="56" height="56"></rect>
                <g id="sport-team" fill="#5840BB" fill-rule="nonzero">
                    <path d="M25.8001467,9.11250736 L25.9991063,9.14868974 L33.2908987,10.5240831 C34.4043966,10.4063953 35.5598222,10.769521 36.4113271,11.6144446 C37.4342744,12.6355716 37.7565247,14.0934338 37.3793952,15.3892019 C38.0843728,15.5356553 38.7557643,15.8797498 39.3019216,16.4233446 C40.025119,17.1409554 40.4239806,18.1002854 40.4239806,19.1235999 C40.4239806,19.4919756 40.3714064,19.8517106 40.2715263,20.1952582 C40.9969189,20.3446647 41.6622737,20.6996967 42.195699,21.2321352 C42.9176891,21.9486522 43.3165508,22.9080916 43.3165508,23.9312967 C43.3165508,24.2995631 43.2639765,24.6594075 43.1640965,25.0029551 C43.8894891,25.1523616 44.5549536,25.5073936 45.0882692,26.0398321 C46.5291912,27.4741409 46.5793898,29.7815517 45.2374818,31.2806029 L45.0883789,31.4380458 L44.9091437,31.6164368 L48.5889003,35.2789752 C49.1255086,34.985959 49.7310451,34.8295524 50.3618261,34.8295524 C51.2724484,34.8295524 52.1313532,35.154059 52.8044732,35.747757 L52.9688051,35.9017576 L54.921515,37.8421833 C55.6171631,38.5345284 56,39.4572177 56,40.440829 C56,41.3488788 55.6738893,42.2049256 55.0770903,42.8752841 L54.9222833,43.0389278 L43.074863,54.8306696 C42.3802027,55.5221397 41.4543915,55.9028748 40.4679937,55.9028748 C39.5573713,55.9028748 38.6984665,55.5783683 38.0254329,54.9846702 L37.8611244,54.8306696 L35.907756,52.8865252 C35.2127665,52.1947269 34.8300393,51.2725845 34.8300393,50.2898482 C34.8300393,49.7407026 34.9501234,49.2106498 35.1769829,48.7290723 L35.2807068,48.5257354 L30.745055,44.0112735 C29.7565718,44.1248049 28.7448198,44.0549142 27.8373382,43.9920234 C26.5600809,43.9036482 25.2393593,43.8122106 24.7650937,44.3007896 L24.751813,44.3142428 L20.6099739,48.4365946 C20.9742617,49.014752 21.1701802,49.685222 21.1701802,50.3873015 C21.1701802,51.2954523 20.8440695,52.1515069 20.2472705,52.821952 L20.0924635,52.9856191 L18.1392049,54.9297635 C17.4200685,55.6432181 16.4757081,56 15.5317868,56 C14.6606774,56 13.7899421,55.6964624 13.0962077,55.0891292 L12.9265639,54.9309667 L10.4863077,52.4990088 C10.0546283,52.0688361 10.0546283,51.3714597 10.4863077,50.941287 C10.8871528,50.5418409 11.5191999,50.513309 11.9530738,50.8556914 L12.0494853,50.941287 L14.4879854,53.3714949 C15.0270701,53.9062371 15.885365,53.9397546 16.465798,53.4703351 L16.5780029,53.3697449 L18.5300542,51.4268036 C18.8068646,51.1512874 18.9593189,50.7821461 18.9593189,50.3873015 C18.9593189,50.0235196 18.8283772,49.6824877 18.5914091,49.4155028 C18.4790166,49.3627839 18.3730998,49.2911431 18.2802443,49.1985023 C18.2166577,49.1350647 18.1629736,49.0655507 18.1184768,48.9920019 L18.0585325,48.878908 L6.85297876,37.7288706 C6.73817158,37.6758236 6.63005966,37.6033078 6.53533825,37.5086983 C6.48243475,37.45587 6.43622651,37.3989949 6.39627449,37.3391667 C5.86935627,37.0252364 5.18742013,37.0652448 4.70180487,37.461644 L4.59338471,37.5594484 L2.63935776,39.5011865 C2.36320588,39.7760464 2.21075161,40.1451878 2.21075161,40.5399229 C2.21075161,40.8854119 2.32747441,41.2113056 2.54209647,41.4719551 L2.64001631,41.5795343 L5.07851638,44.0065703 C5.51041528,44.4364149 5.51085431,45.1339007 5.07939445,45.5642921 C4.67885506,45.9639413 4.04673519,45.9928649 3.61267349,45.6507126 L3.51621679,45.5651671 L1.07771671,43.1381311 C0.38272718,42.4463329 -5.82645043e-13,41.5235342 -5.82645043e-13,40.5398136 C-5.82645043e-13,39.6318647 0.326110733,38.7758256 0.922909706,38.1054678 L1.07771671,37.9418241 L3.03163391,36.0001953 C4.10897645,34.9279702 5.69335469,34.6601844 7.02470603,35.1961721 L7.21309573,35.2782095 L10.8932914,31.6175305 L10.7147147,31.4403427 C9.21936764,29.9475897 9.21991643,27.5253663 10.7137268,26.038629 C11.1346499,25.6196125 11.6373429,25.3110651 12.1861344,25.1256741 C11.7514915,24.4956728 11.5169381,23.7498433 11.5169381,22.9669355 C11.5169381,21.9448241 11.9153607,20.9852754 12.6388874,20.2650396 C13.1720932,19.734351 13.8371187,19.3804129 14.5620722,19.2314438 C14.4617532,18.8869119 14.4091789,18.5259737 14.4095082,18.156723 C14.4102765,17.1352678 14.8092479,16.1773597 15.5327746,15.4593114 C16.064334,14.9286229 16.7289205,14.5740285 17.4535448,14.4247313 C17.3537745,14.0810744 17.3014198,13.7213393 17.3014198,13.3529636 C17.3014198,12.3303053 17.6991839,11.3713035 18.4212837,10.6525989 C19.5097567,9.56912806 21.0951056,9.27512749 22.4543523,9.7688472 C22.50989,9.7044252 22.5663058,9.64656572 22.621624,9.59625312 C23.4466964,8.84632518 24.7254224,8.92535388 25.8001467,9.11250736 Z M50.3619358,37.0323692 C50.0149487,37.0323692 49.6876254,37.1486846 49.4254808,37.3626309 L49.3172564,37.460245 L37.4698361,49.2519868 C37.1930256,49.527503 37.0405714,49.8960975 37.0405714,50.2898482 C37.0405714,50.6344758 37.1572942,50.9597594 37.3719162,51.2201966 L37.4698361,51.3277096 L39.4232045,53.271854 C39.7004539,53.5478077 40.071437,53.6997299 40.4678839,53.6997299 C40.814775,53.6997299 41.1421703,53.5834145 41.4042609,53.3695415 L41.5124536,53.2719634 L53.3598739,41.4802216 C53.6366844,41.2048149 53.7892484,40.8356735 53.7892484,40.4407196 C53.7892484,40.0952307 53.6725256,39.7695044 53.4579035,39.5088968 L53.3599837,39.401327 L51.4072738,37.4609013 C51.1293658,37.1842914 50.7583828,37.0323692 50.3619358,37.0323692 Z M8.35996017,47.3684363 C8.79526158,47.7948902 8.8028349,48.4939072 8.3748873,48.9276893 C8.15811467,49.1474241 7.87197479,49.2577837 7.58583491,49.2577837 C7.35351318,49.2577837 7.12111523,49.1850188 6.92579882,49.0389826 L6.81335602,48.9425643 C6.37476186,48.5130479 6.36883492,47.8155621 6.79678251,47.38178 C7.22494963,46.9479979 7.92476853,46.9419823 8.35996017,47.3684363 Z M33.6390753,12.7054869 L33.4757317,12.7197905 C33.4435725,12.7261342 33.411084,12.7313842 33.3781565,12.7348842 C33.1247063,12.785288 32.8809362,12.8954683 32.6705382,13.0659316 L32.5484936,13.1754476 L29.3904181,16.3211881 C29.7542669,16.9134549 29.9494171,17.5971594 29.9494171,18.3123639 C29.9494171,19.3350221 29.551653,20.294024 28.8295532,21.0127285 C28.10899,21.7320893 27.1458609,22.1287932 26.118633,22.1289026 L26.0889983,22.1282463 L26.0889983,22.1282463 C26.0961326,23.1155764 25.7237227,24.1049846 24.9707808,24.8565017 C24.3012889,25.5209309 23.4292287,25.9087559 22.4924658,25.9644898 L22.2570069,25.9714726 L22.2279209,25.9708163 C22.2279209,25.980332 22.2285795,25.9897383 22.2285795,25.9992539 C22.2285795,27.022459 21.8296081,27.9818984 21.1053131,28.7007123 C20.4402791,29.3626174 19.5690295,29.7506212 18.6321059,29.8063974 L18.3965881,29.8133864 L18.3679412,29.8127301 C18.3679412,29.8222457 18.3685997,29.831652 18.3685997,29.8411677 C18.3685997,30.8644822 17.9696283,31.8238122 17.2453333,32.5426261 C16.5258677,33.2608931 15.5626289,33.6577064 14.535401,33.6577064 C13.8962662,33.6577064 13.282281,33.5036196 12.7354577,33.2138825 L12.5336292,33.0989084 L8.9304838,36.6830248 L19.1119927,46.8141227 L23.1834767,42.761771 C24.3733664,41.5444249 26.2121471,41.6715189 27.9903413,41.7946754 C29.5459511,41.9022186 31.1518818,42.013414 32.1097875,41.2258595 L32.2555487,41.0939084 L33.238983,40.1151096 C33.6707721,39.685265 34.3707008,39.6855931 34.8021607,40.116094 C35.202802,40.5157432 35.2310407,41.1456931 34.8870525,41.577717 L34.8010631,41.6737064 L33.8181775,42.6519583 C33.6468723,42.8226657 33.4671705,42.9731318 33.2807392,43.1064482 L33.0921264,43.2341626 L36.7398336,46.8647634 L46.9204644,36.7320249 L43.3448684,33.1730648 L42.5988413,33.9156131 C42.3830565,34.1303167 42.1003191,34.2377231 41.8176915,34.2377231 C41.5346248,34.2377231 41.2514484,34.1299885 41.0355538,33.9146287 C40.6350145,33.5149795 40.6067831,32.8850296 40.950596,32.4528306 L41.0365417,32.3567976 L42.561743,30.838779 L42.5632796,30.837193 L43.5247623,29.8802146 C44.1556529,29.2504321 44.1562017,28.2255864 43.5247623,27.597007 C43.2195244,27.2922877 42.8119919,27.1251624 42.3759222,27.1251624 C41.9399622,27.1251624 41.5324297,27.2922877 41.2282894,27.5959133 L41.2200027,27.6034875 L41.2200027,27.6034875 L41.2117159,27.6108977 L40.2665872,28.5530558 C40.0508024,28.7681968 39.7678455,28.875822 39.4848886,28.875822 C39.2020415,28.875822 38.9193041,28.7684156 38.7034096,28.5533839 C38.3025644,28.1540394 38.273838,27.5242055 38.6173181,27.0917588 L38.70319,26.9956621 L40.6316433,25.073174 C40.9380885,24.7691109 41.1057992,24.3640945 41.1057992,23.931078 C41.1057992,23.4979521 40.9380885,23.0929357 40.6333994,22.7905133 C40.327064,22.4847002 39.9194217,22.3175748 39.483352,22.3175748 C39.1018871,22.3175748 38.7421868,22.4455302 38.454472,22.6809244 L38.3357193,22.7883258 L37.2229897,23.8926873 C36.7904322,24.3218756 36.0906133,24.3205631 35.659812,23.8895154 C35.2597822,23.4893584 35.232439,22.8593722 35.5769034,22.427696 L35.662995,22.3317936 L36.7706757,21.2324633 L36.771005,21.2320258 L37.7383049,20.2661333 C38.0454086,19.961414 38.213229,19.5563976 38.213229,19.1233811 C38.213229,18.6902553 38.0454086,18.2852388 37.7407195,17.9829257 C37.1447707,17.3898805 36.2000746,17.3538328 35.5625477,17.873415 L35.4467711,17.9773476 L35.3001341,18.122926 L35.3001341,18.122926 L34.3344806,19.0838966 C33.9026914,19.5137412 33.2028725,19.5134131 32.7713029,19.0829123 C32.3706616,18.6832631 32.3424229,18.0533132 32.6863232,17.6212017 L32.7722907,17.5251905 L33.8800812,16.4231258 L33.8849655,16.4185321 L33.8898497,16.4139383 L34.8516617,15.4594208 C35.4814548,14.8307321 35.4814548,13.8041363 34.8493567,13.1731507 C34.559107,12.885105 34.1845995,12.7303161 33.8028843,12.7072917 L33.6390753,12.7054869 Z M38.4937712,36.9311971 C38.768606,37.4743544 38.5496382,38.1367307 38.0045785,38.4107156 C37.8444411,38.4911064 37.6738767,38.5292784 37.505727,38.5292784 C37.101158,38.5292784 36.7108574,38.3084498 36.5168048,37.9247616 C36.2602923,37.4178147 36.4312597,36.8083488 36.8983491,36.5065799 L37.0029243,36.4467743 L37.0090707,36.4437118 C37.5540207,36.1697269 38.2188267,36.3880398 38.4937712,36.9311971 Z M13.4262934,27.1253811 C12.9902237,27.1253811 12.5817033,27.2929439 12.2760264,27.5972258 C11.6816272,28.1888299 11.6471486,29.1313551 12.1721333,29.7664325 L12.277124,29.8817459 L13.2349847,30.8325446 L13.2381677,30.8353884 L13.2463995,30.8438102 L13.3852438,30.981623 C13.6915792,31.2874361 14.0991117,31.4545614 14.5351815,31.4545614 C14.9711414,31.4545614 15.378674,31.2873267 15.6828142,30.9838105 C15.9896984,30.6790912 16.1575188,30.2741841 16.1575188,29.8410583 C16.1575188,29.4620732 16.0291153,29.1046093 15.7928966,28.8186389 L15.6851191,28.7006029 L14.5762311,27.5968977 C14.270664,27.2928346 13.8622533,27.1253811 13.4262934,27.1253811 Z M15.3501368,21.3540886 C14.9135183,21.3540886 14.5055467,21.5208858 14.201187,21.8237457 C13.8959491,22.1275901 13.7277994,22.5337003 13.7277994,22.9667167 C13.7277994,23.3457018 13.856539,23.7039193 14.093283,23.9911773 L14.2012967,24.1097971 L16.1382014,26.0376446 L17.2463211,27.1405843 C17.5510102,27.4428973 17.9598598,27.6101321 18.3963686,27.6101321 C18.8322188,27.6101321 19.2397513,27.4433349 19.5440013,27.1405843 C19.8497879,26.837068 20.0176084,26.4320516 20.0176084,25.9990352 C20.0176084,25.62005 19.8891208,25.2625862 19.6529546,24.9766157 L19.5452087,24.8585798 L16.4906353,21.8160895 C16.1875926,21.5184795 15.7831333,21.3540886 15.3501368,21.3540886 Z M18.2416094,16.5472667 C17.806308,16.5472667 17.3992144,16.7145014 17.0950742,17.0180176 C16.7884095,17.3222995 16.6206988,17.7264409 16.6202593,18.1583636 C16.6199716,18.5375401 16.7487593,18.895949 16.9857404,19.1834717 L17.0938669,19.3022096 L18.0465689,20.2511489 L18.0539638,20.2581353 L18.0612765,20.2650396 L21.1065204,23.2989986 L21.2255544,23.40604 C21.5137734,23.6404817 21.8746501,23.768437 22.2567874,23.768437 C22.6935156,23.768437 23.102475,23.6013117 23.4082617,23.2977955 C24.0011114,22.7060885 24.0359849,21.7619102 23.5110521,21.1269122 L23.4060665,21.0116348 L19.3919861,17.0195489 C19.0858702,16.7148295 18.6774596,16.5472667 18.2416094,16.5472667 Z M19.9834735,12.2113051 C19.6795528,12.5138369 19.5121714,12.9192909 19.5120617,13.3529636 C19.5120617,13.7323315 19.640213,14.0901782 19.875854,14.3763116 L19.9833638,14.4944033 L24.9689149,19.4535849 C25.2745917,19.7587417 25.6821243,19.925867 26.118194,19.925867 C26.554154,19.925867 26.9616865,19.7587417 27.2658268,19.4551161 C27.5708451,19.1514905 27.7382265,18.7460366 27.7382265,18.3123639 C27.7382265,17.975707 27.636261,17.6566595 27.4489036,17.3890183 C26.0639734,17.0530177 24.6918849,15.8305309 24.2642666,15.4227801 C23.6872673,14.8726228 22.4047416,13.5147295 22.0461612,12.0165078 C21.4134046,11.589507 20.5434604,11.6538196 19.9834735,12.2113051 Z M24.160545,11.2171938 L24.1611487,11.2648404 L24.1611487,11.2648404 L24.1653744,11.325694 C24.2250829,11.9542733 24.8786936,12.9599784 25.7924314,13.8310426 C26.3932263,14.4037531 26.9461908,14.7822657 27.3744316,15.0072451 L27.5124536,15.0766076 L30.3825233,12.2176489 L25.5875126,11.3132252 C24.6890312,11.1433655 24.3050967,11.1821937 24.160545,11.2171938 Z M27.9019858,1.24344979e-14 C28.5124615,1.24344979e-14 29.0073616,0.493172838 29.0073616,1.10151778 L29.0073616,1.10151778 L29.0073616,6.01443362 C29.0073616,6.62277856 28.5124615,7.1159514 27.9019858,7.1159514 C27.29162,7.1159514 26.7967198,6.62277856 26.79661,6.01443362 L26.79661,6.01443362 L26.79661,1.10151778 C26.79661,0.493172838 27.2915102,1.24344979e-14 27.9019858,1.24344979e-14 Z M9.19467202,0.623657468 C9.62591237,0.192937877 10.325841,0.192391001 10.7578497,0.622126215 L10.7578497,0.622126215 L14.7857596,4.62799341 C15.2178781,5.05772863 15.2185366,5.75510499 14.7872963,6.18571521 C14.5714017,6.40129375 14.2881155,6.50913771 14.0049391,6.50913771 C13.7224213,6.50913771 13.4399034,6.40195 13.2241186,6.18735583 L13.2241186,6.18735583 L9.19620863,2.18137926 C8.76409022,1.75164405 8.76343167,1.05426768 9.19467202,0.623657468 Z M45.0427195,0.622454341 C45.4747282,0.192500376 46.1745471,0.192937877 46.6058972,0.623329342 C47.037357,1.05372081 47.036918,1.75120655 46.6050191,2.18105113 L46.6050191,2.18105113 L42.5801824,6.18702771 C42.3643975,6.40173125 42.0816602,6.50913771 41.7990326,6.50913771 C41.5159659,6.50913771 41.2328993,6.4015125 41.0170047,6.18615271 C40.5855448,5.75576124 40.5859839,5.0582755 41.0178828,4.62843091 L41.0178828,4.62843091 Z" id="Combined-Shape"></path>
                </g>
            </g>
        </g>
    </g>
</svg>