<?xml version="1.0" encoding="UTF-8"?>
<svg width="58px" height="58px" viewBox="0 0 58 58" version="1.1" xmlns="http://www.w3.org/2000/svg" xmlns:xlink="http://www.w3.org/1999/xlink">
    <!-- Generator: Sketch 61.2 (89653) - https://sketch.com -->
    <title>Group 11</title>
    <desc>Created with Sketch.</desc>
    <g id="Page-1" stroke="none" stroke-width="1" fill="none" fill-rule="evenodd">
        <g id="PowerIM_Гарантии" transform="translate(-907.000000, -511.000000)">
            <g id="Group-11" transform="translate(908.000000, 512.000000)">
                <rect id="Rectangle-Copy-2" x="0" y="0" width="56" height="56"></rect>
                <g id="spyware" fill="#5840BB" fill-rule="nonzero" stroke="#FFFFFF">
                    <path d="M55.4379483,39.9128266 L42.7971307,28.8590442 C42.8325979,28.2543089 42.8237037,28.3706841 42.8237037,23.783599 C47.8716855,20.6502192 49.2677535,16.612088 49.3274878,16.4328221 C49.6823794,15.368383 48.8888145,14.2662095 47.7649545,14.2662095 L42.393156,14.2662095 L38.3586797,1.16251767 C38.0597889,0.191922443 36.9597567,-0.279593899 36.0500175,0.17321929 L27.9703039,4.19570978 L19.9542775,0.175406793 C19.0437697,-0.281125152 17.9404433,0.190391191 17.6413329,1.16251767 L13.6068565,14.2662095 L8.2349483,14.2662095 C7.11229613,14.2662095 6.31708417,15.3671799 6.67241501,16.4328221 C6.73225904,16.612088 8.12821729,20.6502192 13.1761991,23.783599 C13.1761991,28.3857778 13.1675244,28.2570433 13.202772,28.8591535 L0.562064305,39.9128266 C-0.225900484,40.6018902 -0.177695838,41.8416577 0.658363792,42.4683774 L8.55096874,48.384152 L3.77607342,53.1559718 C3.13283237,53.7987696 3.13283237,54.8410056 3.77607342,55.4838034 C4.41920466,56.1266013 5.46213798,56.1267107 6.10537903,55.4838034 L11.2129852,50.3793738 L13.8350325,52.3446268 C14.562714,52.8900807 15.5952158,52.742643 16.1409495,52.0154075 C16.686793,51.288172 16.5392143,50.2564361 15.8115328,49.7109821 L4.2604258,41.0530627 L13.9170573,32.6088624 C14.7941842,35.2691945 16.4060202,37.5985575 18.5118715,39.3562164 L26.5118663,55.1007716 C27.1201891,56.2979922 28.838866,56.3014922 29.4490555,55.1007716 L37.4199518,39.413529 C39.5594036,37.6494169 41.1962753,35.2978508 42.0828455,32.6088624 L51.739477,41.0530627 L40.1883699,49.7109821 C39.4606884,50.2564361 39.3131097,51.288172 39.8589532,52.0154075 C40.4046869,52.7425336 41.4368593,52.8901901 42.1648703,52.3446268 L44.7869175,50.3793738 L49.8945237,55.4838034 C50.537655,56.1266013 51.5805883,56.1267107 52.2238293,55.4838034 C52.8670704,54.8410056 52.8670704,53.7987696 52.2238293,53.1559718 L47.448934,48.384152 L55.341539,42.4683774 C56.1790261,41.8406733 56.2247052,40.6009058 55.4379483,39.9128266 Z M20.217152,3.99063135 L27.2287868,7.50715232 C27.6921664,7.73957455 28.2380099,7.74044955 28.7019384,7.50933982 L35.7812135,3.98505321 L38.9465787,14.2662095 L17.053324,14.2662095 L20.217152,3.99063135 Z M11.0637595,17.5582926 C13.6793282,17.5582926 43.8084401,17.5582926 44.9361433,17.5582926 C44.0996444,18.6559818 42.7723147,20.0028276 40.7389351,21.1961106 L15.2608579,21.1961106 C13.2274783,20.0028276 11.9001485,18.6559818 11.0637595,17.5582926 Z M27.9805158,50.7199681 L23.6195875,42.1372987 C26.4422495,43.0115345 29.4960523,43.0200657 32.3346362,42.1509706 L27.9805158,50.7199681 Z M39.5295365,27.9831678 C39.5295365,34.3365525 34.3573646,39.5054041 27.9999514,39.5054041 C21.6425381,39.5054041 16.4703663,34.3365525 16.4703663,27.9831678 L16.4703663,24.4880844 L39.5295365,24.4880844 L39.5295365,27.9831678 Z" id="Shape"></path>
                </g>
            </g>
        </g>
    </g>
</svg>