<?xml version="1.0" encoding="UTF-8"?>
<svg width="72px" height="55px" viewBox="0 0 72 55" version="1.1" xmlns="http://www.w3.org/2000/svg" xmlns:xlink="http://www.w3.org/1999/xlink">
    <!-- Generator: Sketch 61.2 (89653) - https://sketch.com -->
    <title>Group 6</title>
    <desc>Created with Sketch.</desc>
    <g id="Page-1" stroke="none" stroke-width="1" fill="none" fill-rule="evenodd">
        <g id="PowerIM_Что-анализирует-сервис" transform="translate(-136.000000, -448.000000)">
            <g id="Group-14" transform="translate(112.000000, 408.000000)">
                <g id="Group-6" transform="translate(24.000000, 32.000000)">
                    <rect id="Rectangle-Copy" x="0" y="0" width="72" height="64"></rect>
                    <g id="051-gear-2" transform="translate(0.000000, 8.000000)" fill-rule="nonzero">
                        <g id="051-gear">
                            <path d="M71.1352303,19.7245527 C71.1328678,19.3044093 70.849497,18.9240032 70.392546,18.6487418 C69.9357341,18.3734805 69.3056198,18.2033637 68.6104651,18.2033637 L66.6846836,18.2029286 C65.999952,18.2032187 65.3680311,18.0355674 64.9069108,17.7578405 C64.5937994,17.5691603 64.3596259,17.3298656 64.2409409,17.0579398 C64.0445688,16.608791 63.8194287,16.1667484 63.5681612,15.7319573 L63.5870619,8.80357869 C63.5870619,8.82054685 63.586506,8.82431756 63.5855332,8.81721123 C63.5855332,8.81721123 63.5855332,8.81721123 63.5855332,8.81735626 C63.5924819,8.42128731 63.3462176,8.02333301 62.8443776,7.72095155 L58.4555359,5.07681788 C57.4697837,4.48293199 55.8765702,4.48249691 54.8973499,5.07638279 L53.5390047,5.90013659 C52.7271107,6.39250352 51.4692448,6.48300042 50.4727915,6.1310197 C48.1631601,5.31408217 45.6553498,4.68074893 43.0041169,4.26321597 C42.5534199,4.1921527 42.1565062,4.05133141 41.8435337,3.86265118 C41.3824135,3.58492433 41.103073,3.20350312 41.1008494,2.78930578 L41.0945956,1.62575354 C41.092233,1.2056101 40.8088622,0.825204071 40.3519113,0.549942678 C39.8950993,0.274681285 39.264985,0.104564523 38.5696913,0.104564523 L32.3843152,0.104564523 C30.9937278,0.104564523 29.8713628,0.785321625 29.875949,1.62589857 L29.8822029,2.78945081 C29.8859552,3.48485565 29.1078322,4.08773321 27.9949176,4.263361 C27.9401613,4.27235268 27.8845711,4.28163441 27.828842,4.29019101 L31.6496914,12.806036 L31.6180051,24.4377877 C32.8604447,24.2373603 34.1643115,24.1296052 35.5122335,24.1300402 C39.6677356,24.1297502 43.4356354,25.1476952 46.1678909,26.7938976 C46.5108821,27.0005612 46.8374741,27.2170866 47.1466943,27.4427487 C48.5363089,26.4393064 49.5748717,25.2519697 50.1442537,23.9486114 L64.2451102,26.2303224 L64.2134238,37.8620741 C64.2281552,37.8288629 64.2435815,37.7952166 64.2581739,37.7621504 C64.545297,37.0889348 65.5398046,36.6165816 66.6895477,36.6158564 L68.6151902,36.6162915 C70.0057776,36.6162915 71.1281426,35.9355344 71.1235564,35.0951025 L71.1552428,23.4634958 L71.1552428,23.4633508 L71.1352303,19.7245527 Z" id="Path" fill="#FF3502"></path>
                            <path d="M10.5364165,36.7893088 L24.986657,28.0260476 C24.6432489,27.819094 24.3162399,27.6021335 24.0067418,27.3763263 C25.9555932,25.9697087 28.5977927,24.9262389 31.6186999,24.4377877 L31.6503863,12.806036 L27.8295369,4.29019101 C25.2447343,4.7084491 22.8001578,5.33163045 20.5472283,6.13116473 C19.5545273,6.48300042 18.2956886,6.39250352 17.4785135,5.90028162 L16.1112739,5.07652782 C15.1255217,4.48264194 13.5323083,4.48322205 12.5529489,5.07710793 L8.19273615,7.72124161 C7.70548856,8.01680679 7.46242066,8.40344898 7.46214271,8.79067128 L7.46214271,8.79067128 C7.46214271,8.79009117 7.46172579,8.78965609 7.46172579,8.78907598 L7.44226924,15.9352852 C7.2411719,16.3045242 7.05855828,16.6789841 6.89679097,17.0585199 C6.61077969,17.7313006 5.61502127,18.2040888 4.46541713,18.2036537 L2.53977461,18.2042339 C1.14918721,18.2042339 0.0268222435,18.884991 0.0314084302,19.7254229 L0.0314084302,19.7275983 L0,31.3567395 L0.0201514265,35.0955376 C0.0225140075,35.515681 0.306023732,35.896087 0.762835724,36.1713484 C1.21964772,36.4466098 1.84976198,36.6167266 2.54505568,36.6167266 L4.47083717,36.6162915 L4.47083717,36.6162915 C5.15542977,36.6165816 5.78679481,36.7842329 6.24777606,37.0619597 C6.56102651,37.2506399 6.79533896,37.4900796 6.91444084,37.7622955 C7.11067404,38.2111543 7.33567514,38.6530518 7.58680361,39.0875529 L7.59194569,37.2167036 L7.56804193,46.0159315 C7.56706911,46.4077946 7.81486216,46.8003829 8.31114316,47.0994288 L10.5050081,48.4213506 L10.5364165,36.7893088" id="Path" fill="#7F33AD"></path>
                            <path d="M27.8293979,4.28990095 L31.6502474,12.8057459 C25.2329214,13.8435597 20.5216568,17.3845408 20.5451437,21.5942418 C20.5577904,24.1058207 22.2546795,26.3804254 24.9865181,28.0260476 L10.5364165,36.7893088 L8.34255159,35.467387 C7.35679939,34.8735011 7.35082345,33.9105213 8.3300438,33.3166354 L9.68838892,32.4928816 C10.5002829,32.0005147 10.646624,31.2394126 10.0604259,30.6387105 C8.70152493,29.2452903 7.64572916,27.7314977 6.94598824,26.1303987 C6.82688636,25.8580379 6.59257392,25.6185982 6.27932347,25.430063 C5.81848119,25.1523361 5.1868382,24.9846848 4.50238458,24.9843948 L2.57660308,24.9848298 C1.88130938,24.9848298 1.25119512,24.8147131 0.794383129,24.5394517 C0.337571137,24.2641903 0.0540614131,23.8839293 0.0516988321,23.4636408 L0.0315342351,19.7248428 C0.0271001942,18.8842658 1.14946516,18.2036537 2.53991359,18.2036537 L4.46555611,18.2030736 C5.61502127,18.2035087 6.61064071,17.7307204 6.89692994,17.0579398 C7.57929894,15.4568409 8.61869562,13.9429032 9.96272627,12.5496281 C10.5416976,11.9484909 10.3888247,11.1872437 9.57151065,10.6950218 L8.20427111,9.87126803 C7.21851891,9.27738215 7.2135158,8.31483744 8.19259718,7.72095155 L12.55281,5.07681788 C13.5321693,4.48293199 15.1253828,4.48249691 16.110996,5.07623777 L17.4782355,5.89999157 C18.2954106,6.3923585 19.5542494,6.48285539 20.5469503,6.13087468 C22.8000188,5.3313404 25.2445953,4.70801402 27.8293979,4.28990095 Z" id="Path" fill="#5840BB"></path>
                            <path d="M20.5450562,21.5940968 C20.5561227,23.7899517 21.8548474,25.8043778 24.0066028,27.3761813 C25.9554542,25.9695637 28.5976537,24.9260939 31.618561,24.4376427 L31.6502474,12.8058909 C25.2329214,13.8435597 20.5216568,17.3845408 20.5450562,21.5940968 Z" id="Path" fill="#412B9F"></path>
                            <path d="M2.57646411,24.9848298 C1.88117041,24.9848298 1.25105615,24.8147131 0.794244154,24.5394517 C0.337432162,24.2641903 0.0539224377,23.8839293 0.0515598567,23.4636408 L0.0314084302,19.7248428 L0,31.3567395 L0.0201514265,35.0953925 C0.0225140075,35.515536 0.306023732,35.895942 0.762835724,36.1712034 C1.21964772,36.4464648 1.84976198,36.6165816 2.54505568,36.6165816 L4.47083717,36.6161465 L4.50238458,24.9843948 L2.57646411,24.9848298 Z" id="Path" fill="#4E36B1"></path>
                            <path d="M62.8445166,7.72080653 C63.8302688,8.31469241 63.8352719,9.27723712 62.8561905,9.871123 L61.4978454,10.6948768 C60.6859513,11.1872437 60.541278,11.9483458 61.1266422,12.5494831 C62.4855432,13.9429032 63.541339,15.4566959 64.2410799,17.0577948 C64.3597649,17.3298656 64.5939383,17.5690153 64.9070498,17.7576955 C65.36817,18.0354223 66.000091,18.2030736 66.6848225,18.2027836 L68.610604,18.2032187 C69.3058977,18.2032187 69.936012,18.3733354 70.392824,18.6485968 C70.849636,18.9238582 71.1332847,19.3041192 71.1355083,19.7244077 L71.1556729,23.4632057 C71.1601069,24.3037827 70.037742,24.9843948 68.6472935,24.9843948 L66.721651,24.9839597 C65.5721859,24.9843948 64.5774003,25.456893 64.2902772,26.1302537 C64.2755458,26.1634649 64.2602585,26.1971112 64.2455271,26.2303224 L50.1446707,23.9486114 C50.4729305,23.1973711 50.6463717,22.4085688 50.6419245,21.5942418 C50.6288608,19.0823728 48.9323886,16.8082032 46.2001332,15.1621459 C43.4678777,13.5159435 39.7002558,12.4979985 35.5446147,12.4982885 C34.1965538,12.4978534 32.892826,12.6056086 31.6503863,12.806036 L27.8295369,4.29019101 C27.885127,4.28163441 27.9407172,4.27235268 27.9956124,4.263361 C29.1085271,4.08773321 29.8867891,3.48485565 29.8828978,2.78945081 L29.8766439,1.62589857 C29.8721967,0.785321625 30.9945616,0.104709527 32.3850101,0.104709527 L38.5703862,0.104709527 C39.2656799,0.104709527 39.8957941,0.274826312 40.3526061,0.550087705 C40.8094181,0.825349098 41.0930668,1.2056101 41.0952904,1.62589857 L41.1015443,2.78945081 C41.1037679,3.20364814 41.3831084,3.58506936 41.8442286,3.86279621 C42.1573401,4.05133141 42.5539758,4.19229773 43.0048118,4.263361 C45.6559057,4.68103898 48.1638549,5.3142272 50.4733474,6.13116473 C51.4698007,6.48300042 52.7276666,6.39250352 53.5395606,5.90028162 L54.8979058,5.07652782 C55.8771261,4.48264194 57.4704786,4.48307702 58.4560918,5.0769629 L62.8445166,7.72080653 Z" id="Path" fill="#FF5541"></path>
                            <g id="Group" transform="translate(60.732230, 8.701625)" fill="#F34935">
                                <path d="M2.85344199,0.115441554 C2.84677117,0.497442876 2.6046761,0.877993927 2.12382138,1.16949835 L0.765476255,1.99325215 C-0.0464177686,2.48561908 -0.191091113,3.24672118 0.394273082,3.84785842 C1.3719647,4.85028558 2.19178032,5.91536444 2.83593109,7.03033261 L2.85485754,0.101954035 C2.85497072,0.118777176 2.85455379,0.122547881 2.85344199,0.115441554 Z" id="Path"></path>
                                <path d="M7.91478544,16.2829151 L5.98914292,16.28248 C4.83967776,16.2829151 3.84489217,16.7554133 3.55776909,17.4287741 C3.5430377,17.4619853 3.52775041,17.4956316 3.51301902,17.5288428 L3.48133264,29.1605945 C3.49606403,29.1273833 3.51135132,29.093737 3.52608271,29.0606708 C3.81320579,28.3874551 4.80771343,27.9151019 5.95745654,27.9143768 L7.88309906,27.9148119 C9.27368646,27.9148119 10.3960514,27.2340548 10.3914652,26.3936229 L10.4231656,14.7618711 C10.4277378,15.6023031 9.30551182,16.2829151 7.91478544,16.2829151 Z" id="Path"></path>
                            </g>
                            <g id="Group" transform="translate(7.365694, 8.701625)" fill="#4E36B1">
                                <path d="M2.59689348,3.84800345 C3.17586481,3.24686621 3.02299192,2.48561908 2.20567786,1.99339718 L0.838438317,1.16964338 C0.343130152,0.871322682 0.0957540196,0.479749572 0.096309921,0.0887565714 C0.096309921,0.0881764631 0.095892995,0.0877413819 0.095892995,0.0871612736 L0.0764364453,7.23337052 C0.724200575,6.04458356 1.57181127,4.91105193 2.59689348,3.84800345 Z" id="Path"></path>
                                <path d="M0.97685777,26.7659074 C0.480715753,26.4668615 0.232644744,26.0744183 0.233756547,25.6824101 L0.202067313,37.3141618 C0.201097339,37.706025 0.448890397,38.0986133 0.945171389,38.3976591 L3.13903634,39.7195809 L3.17072272,28.0878292 L0.97685777,26.7659074 Z" id="Path"></path>
                            </g>
                            <path d="M7.59945036,34.3840347 C7.59945036,34.38534 7.59972831,34.3867902 7.59972831,34.3880955 C7.59917241,34.0001481 7.84210133,33.6124907 8.3300438,33.3167805 L9.68838892,32.4930267 C10.1147653,32.2344434 10.3556096,31.9017513 10.4052238,31.5570219 L10.4056407,31.2958281 C10.3740933,31.0695859 10.2612453,30.8447939 10.0604259,30.6390005 C8.70152493,29.2455803 7.64559018,27.7317877 6.94598824,26.1306888 C6.82688636,25.8583279 6.59257392,25.6188882 6.27932347,25.430353 C5.81848119,25.1526262 5.1868382,24.9849749 4.50238458,24.9846848 L4.4706982,36.6164365 C5.15529079,36.6167266 5.78679481,36.7843779 6.24763708,37.0621047 C6.56088753,37.250785 6.79519998,37.4902247 6.91430186,37.7624405 C7.11053506,38.2112993 7.33553616,38.6531968 7.58666463,39.0876979 L7.59945036,34.3840347 Z" id="Path" fill="#412B9F"></path>
                            <g id="Group" transform="translate(10.423152, 23.929468)" fill="#F18700">
                                <path d="M43.2548285,24.9900508 L44.622068,25.8138046 C45.6078202,26.4076905 47.2001998,26.4076905 48.1795591,25.8138046 L52.5397719,23.1696709 C53.0264636,22.8745408 53.2702264,22.4881887 53.2711992,22.1012565 L53.2906558,14.9477959 C53.4724355,14.6133634 53.6412906,14.2754503 53.7909671,13.9326063 L53.8226534,2.30085458 L39.721797,0.0191435742 C38.0258807,3.90151844 32.1839127,6.76145241 25.2197187,6.76101733 C21.0636607,6.76101733 17.2963168,5.74336232 14.5636444,4.09686991 L0.11340389,12.859986" id="Path"></path>
                                <path d="M0.113264914,12.859841 L0.0815785334,24.4915927 L2.27641632,25.8139496 C3.26216851,26.4078355 4.85454813,26.4078355 5.83390745,25.8139496 L7.19225257,24.9901958 L7.19225257,24.9901958 C8.0041466,24.4978289 9.26368024,24.407332 10.2592997,24.7598928 C12.5689311,25.5768304 15.0767414,26.2101636 17.7276963,26.6276966 C18.1782544,26.6986148 18.575168,26.8394361 18.8882795,27.0281163 C19.3493997,27.3058432 19.6287402,27.6869743 19.6309638,28.1005916 L19.6626502,16.4688398 L19.668904,17.6334073 L19.668904,17.6335523 L19.6372177,29.265014 C19.6395802,29.6851574 19.922951,30.0655634 20.379902,30.3408248 C20.836714,30.6160862 21.4668282,30.786203 22.1621219,30.786203 L28.347498,30.786203 C29.7380854,30.786203 30.8604504,30.1054459 30.8558642,29.2648689 L30.8593386,27.9642661 C30.9503675,27.3283224 31.6980549,26.7909971 32.7367567,26.6275515 C35.3834033,26.2098736 37.8844038,25.5766853 40.1851408,24.7597478 C41.1770079,24.407332 42.4375144,24.4976839 43.2546895,24.9900508" id="Path"></path>
                            </g>
                            <g id="Group" transform="translate(10.423152, 34.371417)" fill="#F0A329">
                                <path d="M52.5710414,1.0958246 L48.2108286,3.73995828 C47.2316083,4.33384416 45.6390897,4.33384416 44.6534764,3.73995828 L43.2862369,2.91620447 L43.2546895,14.5479562 L44.621929,15.37171 C45.6076812,15.9655959 47.2000608,15.9655959 48.1792812,15.37171 L52.539494,12.7275763 C53.0261857,12.4324462 53.2699485,12.0460941 53.2709213,11.6591618 L53.3026077,0.0274101177 C53.3014959,0.41434236 53.0577331,0.800549468 52.5710414,1.0958246 Z" id="Path"></path>
                                <path d="M5.86545486,3.74024833 C4.88623451,4.33413421 3.29371591,4.33413421 2.3081027,3.74024833 L0.11340389,2.41789144 L0.0817175087,14.0496432 L2.27655529,15.3720001 C3.26230748,15.9658859 4.8546871,15.9658859 5.83390745,15.3720001 L7.19225257,14.5482463 L7.22379998,2.91649453 L5.86545486,3.74024833 Z" id="Path"></path>
                            </g>
                            <g id="Group" transform="translate(17.510895, 36.836878)" fill="#DC9525">
                                <path d="M36.1984938,0.450889184 L36.1668074,12.0826409 C35.3496323,11.590274 34.0891259,11.4997771 33.0972587,11.8523379 C30.7965217,12.6692754 28.2955213,13.3026087 25.6488746,13.7201416 C24.5367938,13.8953344 23.757698,14.498647 23.7615748,15.1928916 L23.7932757,3.56113989 C23.7895233,2.86675024 24.5686192,2.26358263 25.680561,2.08838992 C28.3272076,1.67071193 30.8282081,1.03752371 33.1289451,0.220586185 C34.1208122,-0.131974641 35.3814577,-0.0414777442 36.1984938,0.450889184 Z" id="Path"></path>
                                <path d="M12.5746291,3.56113989 L12.5429427,15.1928916 C12.5407191,14.7794194 12.2612397,14.3982883 11.8002584,14.1204164 C11.4871469,13.9317361 11.0903723,13.7907698 10.6396752,13.7199966 C7.98858136,13.3023186 5.4806321,12.6691304 3.17127863,11.8521929 C2.17552021,11.4997771 0.91612554,11.590129 0.104231516,12.0824959 L0.135917897,0.450744157 C0.947811921,-0.0416227712 2.20734556,-0.132119668 3.20296501,0.220441158 C5.51259643,1.03737869 8.02040671,1.67071193 10.6713616,2.08824489 C11.1219197,2.15916313 11.5188333,2.29998442 11.8319448,2.48866465 C12.293065,2.76653653 12.5725445,3.14781272 12.5746291,3.56113989 Z" id="Path"></path>
                            </g>
                            <g id="Group" transform="translate(29.879701, 40.317528)">
                                <polygon id="Path" fill="#FF9911" points="0.212215367 1.24505746 0.180667962 12.8768092 0.174414071 11.7122418 0.205822501 0.080490028"></polygon>
                                <path d="M8.92249574,2.76624648 L2.73711962,2.76624648 C2.04182592,2.76624648 1.41171166,2.59612971 0.954899664,2.32086832 C0.498087672,2.04560693 0.214438973,1.66534593 0.212215367,1.24505746 L0.180528986,12.8768092 C0.182891567,13.2969526 0.466262316,13.6773587 0.923213283,13.95262 C1.38016425,14.2278814 2.01013953,14.3979982 2.70543324,14.3979982 L8.89080936,14.3979982 C10.2813968,14.3979982 11.4037617,13.7172411 11.3991755,12.8768092 L11.4308751,1.24505746 C11.4353091,2.0856344 10.3129442,2.76624648 8.92249574,2.76624648 Z" id="Path" fill="#F0A329"></path>
                            </g>
                            <path d="M64.2453881,26.2301773 C63.5628802,27.7944394 62.5397436,29.2741507 61.2243419,30.6385654 C60.6445367,31.2392676 60.7992163,32.0003697 61.6163913,32.4927366 L62.9836309,33.3164904 C63.9693831,33.9103763 63.9735523,34.8733561 62.994332,35.467242 L58.6341192,38.1113756 C57.6547599,38.7052615 56.0623803,38.7052615 55.076767,38.1113756 L53.7095275,37.2876218 C52.8923524,36.7952549 51.6318459,36.704758 50.6399788,37.0573188 C48.3392418,37.8742564 45.8382413,38.5075896 43.1915947,38.9251226 C42.0795139,39.1003153 41.3004181,39.7036279 41.3043094,40.3978726 L41.3105633,41.56244 C41.3150105,42.4030169 40.1926455,43.083774 38.8021971,43.083774 L32.6168209,43.083774 C31.9215272,43.083774 31.291413,42.9136573 30.834601,42.6383959 C30.377789,42.3631345 30.0942793,41.9828735 30.0919167,41.562585 L30.0856628,40.3980176 C30.0834392,39.9845454 29.8039598,39.6034142 29.3429785,39.3255423 C29.029867,39.1368621 28.6330924,38.9958958 28.1823953,38.9251226 C25.5313014,38.5074446 23.0233522,37.8742564 20.7139987,37.0573188 C19.7182403,36.704903 18.4588456,36.7952549 17.6469516,37.2876218 L16.2886065,38.1113756 C15.3093861,38.7052615 13.7168675,38.7052615 12.7312543,38.1113756 L10.5365555,36.7890188 L24.986796,28.0257576 C27.7194684,29.672105 31.4866734,30.689905 35.6428703,30.689905 C42.6070643,30.6903401 48.4488934,27.8305511 50.1449486,23.9480313 L64.2453881,26.2301773 Z" id="Path" fill="#FFB540"></path>
                            <path d="M46.1684468,26.7936075 C46.511438,27.0002711 46.83803,27.2167966 47.1472502,27.4424587 C48.5368648,26.4390163 49.5754276,25.2516797 50.1448096,23.9483213 L50.2972656,23.9729759 L50.1448096,23.9483213 C50.4223434,23.3133928 50.5877241,22.6511991 50.6299726,21.9698619 L50.6310844,21.2886697 C50.4880788,18.8981884 48.8212084,16.7409106 46.2001332,15.1617108 C43.4681556,13.5155084 39.7002558,12.4975634 35.5446147,12.4978521 C34.1965538,12.4974184 32.892826,12.6051735 31.6503863,12.8056009 L31.6186999,24.4373526 C32.8611396,24.2369252 34.1650064,24.1291701 35.5129284,24.1296052 C39.6684305,24.1294601 43.4361913,25.1476952 46.1684468,26.7936075 Z" id="Path" fill="#DD3E2C"></path>
                            <path d="M61.2242029,30.6384204 C60.6443977,31.2391226 60.7990773,32.0002247 61.6161134,32.4925916 L62.9833529,33.3163454 C63.5109034,33.6342447 63.7545272,34.0578688 63.7195054,34.4739515 C63.721729,34.4488618 63.7256203,34.4237721 63.7256203,34.3986825 L63.7133905,38.8769736 C63.8951702,38.5425411 64.0640253,38.2046281 64.2137018,37.861784 L64.2453881,26.2300323 C63.5627412,27.7944394 62.5396046,29.2740057 61.2242029,30.6384204 Z" id="Path" fill="#DC9525"></path>
                        </g>
                    </g>
                </g>
            </g>
        </g>
    </g>
</svg>