<?xml version="1.0" encoding="UTF-8"?>
<svg width="55px" height="64px" viewBox="0 0 55 64" version="1.1" xmlns="http://www.w3.org/2000/svg" xmlns:xlink="http://www.w3.org/1999/xlink">
    <!-- Generator: Sketch 61.2 (89653) - https://sketch.com -->
    <title>051-bar-chart-3 2</title>
    <desc>Created with Sketch.</desc>
    <g id="Page-1" stroke="none" stroke-width="1" fill="none" fill-rule="evenodd">
        <g id="PowerIM_Что-анализирует-сервис" transform="translate(-808.000000, -440.000000)" fill-rule="nonzero">
            <g id="051-bar-chart-3-2" transform="translate(808.000000, 440.000000)">
                <g id="051-bar-chart-3">
                    <polygon id="Path" fill="#5840BB" points="0.121768018 28.027125 7.40641892 23.696625 54.8117117 51.31475 54.7882995 59.6695 47.4035586 64 0.121768018 36.38175"></polygon>
                    <polygon id="Path" fill="#412B9F" points="47.4270946 55.645375 54.8117117 51.31475 54.7882995 59.6695 47.4035586 64"></polygon>
                    <polygon id="Path" fill="#4E36B1" points="47.4270946 55.645375 47.4035586 64 0.121768018 36.38175 0.121768018 28.027125"></polygon>
                    <polygon id="Path" fill="#FFB540" points="0.121768018 16.17875 7.43986486 11.848375 54.8449099 39.466625 54.8214977 47.82125 47.4370045 52.151625 0.121768018 24.533375"></polygon>
                    <polygon id="Path" fill="#DC9525" points="47.4604167 43.797 54.8449099 39.466625 54.8214977 47.82125 47.4370045 52.151625"></polygon>
                    <polygon id="Path" fill="#F0A329" points="47.4604167 43.797 47.4370045 52.151625 0.121768018 24.533375 0.121768018 16.17875"></polygon>
                    <polygon id="Path" fill="#FF5541" points="0.121768018 4.3305 7.47306306 0 54.878232 27.61825 54.8548198 35.973 47.4702027 40.303375 0.121768018 12.68525"></polygon>
                    <polygon id="Path" fill="#DD3E2C" points="47.4936149 31.948625 54.878232 27.61825 54.8548198 35.973 47.4702027 40.303375"></polygon>
                    <polygon id="Path" fill="#F34935" points="47.4936149 31.948625 47.4702027 40.303375 0.121768018 12.68525 0.121768018 4.3305"></polygon>
                </g>
            </g>
        </g>
    </g>
</svg>