<?xml version="1.0" encoding="UTF-8"?>
<svg width="72px" height="58px" viewBox="0 0 72 58" version="1.1" xmlns="http://www.w3.org/2000/svg" xmlns:xlink="http://www.w3.org/1999/xlink">
    <!-- Generator: Sketch 61.2 (89653) - https://sketch.com -->
    <title>Group 8</title>
    <desc>Created with Sketch.</desc>
    <g id="Page-1" stroke="none" stroke-width="1" fill="none" fill-rule="evenodd">
        <g id="PowerIM_Что-анализирует-сервис" transform="translate(-136.000000, -742.000000)">
            <g id="Group-12" transform="translate(112.000000, 704.000000)">
                <g id="Group-8" transform="translate(24.000000, 32.000000)">
                    <rect id="Rectangle-Copy-3" x="0" y="0" width="72" height="64"></rect>
                    <g id="051-pie-chart-10-2" transform="translate(0.000000, 6.000000)" fill-rule="nonzero">
                        <g id="051-pie-chart-10">
                            <path d="M59.0523155,5.53124885 C45.7439805,-1.8411659 24.236237,-1.84170046 11.0134199,5.53151613 L10.9591007,23.921659 L35.0568935,37.2711475 L65.3619742,28.7875115 L65.4162933,10.397235 C63.8169421,8.64253456 61.6975196,6.99661751 59.0523155,5.53124885 Z" id="Path" fill="#DC9525"></path>
                            <polygon id="Path" fill="#F0A329" points="65.4162933 10.3973687 65.3618349 28.7875115 35.0568935 37.2712811 35.1112127 18.8810046"></polygon>
                            <path d="M59.0523155,5.53124885 C61.6973804,6.99648387 63.8168028,8.6426682 65.4161541,10.397235 L35.1110734,18.880871 L11.0134199,5.53151613 C24.236237,-1.84156682 45.7441198,-1.8411659 59.0523155,5.53124885 Z" id="Path" fill="#FFB540"></path>
                            <g id="Group" transform="translate(37.187737, 5.479263)">
                                <path d="M34.1213503,8.68717051 C34.1551953,5.71500461 32.9356604,2.73722581 30.4613527,0.0207142857 L0.156272063,8.50328111 L0.0839857878,33.0236498 L24.1817786,46.3731382 C30.7496622,42.7108525 34.0369467,37.918235 34.0512925,33.118 L34.1235788,8.59776498 C34.1235788,8.62756682 34.1217681,8.65736866 34.1213503,8.68717051 Z M34.108258,9.11308295 C34.110765,9.06457143 34.112715,9.01619355 34.1145256,8.96768203 C34.112715,9.01619355 34.110765,9.06457143 34.108258,9.11308295 Z M34.0791485,9.52870507 C34.0827698,9.48821198 34.0854161,9.44758525 34.0886195,9.40695853 C34.0854161,9.44758525 34.0827698,9.48807834 34.0791485,9.52870507 Z M34.0340218,9.93978341 C34.031654,9.9575576 34.0285899,9.97519816 34.0262221,9.99297235 C34.0285899,9.97506452 34.031654,9.9575576 34.0340218,9.93978341 Z M33.9713458,10.35153 C33.9638247,10.3962995 33.9551894,10.4413364 33.9468326,10.486106 C33.9551894,10.4412028 33.9638247,10.3964332 33.9713458,10.35153 Z M33.8919563,10.767553 C33.8817889,10.8160645 33.8713429,10.8643088 33.860479,10.9128203 C33.8712036,10.8644424 33.8817889,10.8160645 33.8919563,10.767553 Z M33.7919533,11.1988111 C33.7812288,11.2414424 33.7710613,11.2839401 33.7597797,11.3264378 C33.7712006,11.2838065 33.781368,11.2411751 33.7919533,11.1988111 Z M33.5113043,12.1413779 C33.4964013,12.1841429 33.480802,12.2266406 33.4653419,12.2692719 C33.480802,12.2266406 33.4965406,12.1841429 33.5113043,12.1413779 Z M33.3606034,12.5513871 C33.3420792,12.5990968 33.3231371,12.6469401 33.3040558,12.6946498 C33.3231371,12.6468065 33.3420792,12.5992304 33.3606034,12.5513871 Z M33.1885927,12.971553 C33.1696507,13.0155207 33.1511264,13.0596221 33.131488,13.1034562 C33.1509872,13.0596221 33.1696507,13.0156544 33.1885927,12.971553 Z M32.9675555,13.4580046 C32.9598951,13.4739078 32.9527918,13.4898111 32.9451314,13.5055806 C32.9529311,13.4898111 32.9598951,13.4737742 32.9675555,13.4580046 Z M32.7420613,13.9044977 C32.7211693,13.9441889 32.6988846,13.9836129 32.6774354,14.0233041 C32.6988846,13.9837465 32.7211693,13.9441889 32.7420613,13.9044977 Z M32.5207455,14.3051521 C32.4940038,14.3519263 32.4665657,14.3985668 32.4391275,14.445341 C32.4664264,14.3987005 32.4937252,14.3519263 32.5207455,14.3051521 Z M32.2768664,14.713424 C32.2494283,14.757659 32.2222687,14.8021613 32.1942734,14.8463963 C32.222408,14.8021613 32.2494283,14.757659 32.2768664,14.713424 Z M31.9867464,15.1639263 C31.9698935,15.1890507 31.9538763,15.2143088 31.9368841,15.2392995 C31.9538763,15.2143088 31.9698935,15.1890507 31.9867464,15.1639263 Z M31.663617,15.6275253 C31.6377109,15.6632074 31.6106906,15.6987558 31.5843667,15.7343041 C31.6106906,15.6987558 31.6377109,15.663341 31.663617,15.6275253 Z M31.371547,16.0161521 C31.336727,16.0610553 31.3012106,16.1060922 31.2656942,16.1509954 C31.3012106,16.1060922 31.336727,16.0611889 31.371547,16.0161521 Z M31.0567744,16.4099908 C31.0207009,16.4538249 30.9847667,16.497659 30.9478575,16.5414931 C30.9847667,16.497659 31.0207009,16.4538249 31.0567744,16.4099908 Z M30.6982679,16.8313594 C30.6716654,16.8616959 30.6458986,16.8921659 30.6190176,16.9223687 C30.6458986,16.8921659 30.6716654,16.8616959 30.6982679,16.8313594 Z M24.809931,21.5349724 C24.867175,21.5015622 24.9231655,21.4677512 24.9797132,21.434341 C24.9233048,21.4677512 24.867175,21.5015622 24.809931,21.5349724 Z M25.3553511,21.2084885 C25.4180271,21.1701336 25.4805638,21.1315115 25.5426826,21.0928894 C25.4804245,21.1315115 25.4180271,21.1701336 25.3553511,21.2084885 Z M25.9003534,20.8665023 C25.9562047,20.830553 26.012613,20.7947373 26.0680464,20.7586544 C26.0124737,20.7947373 25.9562047,20.8304194 25.9003534,20.8665023 Z M26.510678,20.4638433 C26.5304557,20.4503456 26.5510692,20.4369816 26.5709862,20.4234839 C26.5512085,20.4369816 26.5304557,20.450212 26.510678,20.4638433 Z M27.0556803,20.0835023 C27.1028962,20.0496912 27.1489978,20.0154793 27.1956566,19.9815346 C27.1488586,20.0154793 27.1028962,20.0496912 27.0556803,20.0835023 Z M27.5281178,19.7359032 C27.5825762,19.6950092 27.636199,19.6539816 27.6901003,19.6128203 C27.6363383,19.6539816 27.5825762,19.6950092 27.5281178,19.7359032 Z M27.9956804,19.3749401 C28.0456819,19.3353825 28.095962,19.2959585 28.1454063,19.2561336 C28.095962,19.2959585 28.0458212,19.3355161 27.9956804,19.3749401 Z M28.4947204,18.9694747 C28.5221585,18.9464885 28.5505716,18.9235023 28.5780098,18.9005161 C28.5508502,18.9235023 28.5222978,18.9463548 28.4947204,18.9694747 Z M28.9919497,18.5416912 C29.0289981,18.508682 29.0650716,18.4754055 29.1018415,18.4422627 C29.0649323,18.4754055 29.0289981,18.508682 28.9919497,18.5416912 Z M29.392658,18.1756498 C29.4382025,18.1330184 29.4830506,18.0903871 29.528038,18.0474885 C29.4830506,18.0902535 29.4382025,18.1330184 29.392658,18.1756498 Z M30.2756926,17.2972304 C30.2471402,17.3275668 30.2174736,17.3575023 30.1886427,17.3878387 C30.2174736,17.3577696 30.2471402,17.3275668 30.2756926,17.2972304 Z M29.9132863,17.6708894 C29.8708059,17.7136544 29.8276291,17.7561521 29.7843131,17.7987834 C29.8276291,17.7562857 29.8708059,17.7136544 29.9132863,17.6708894 Z" id="Shape" fill="#DD3E2C"></path>
                                <path d="M34.1234395,8.59776498 L34.051014,33.118 C34.0369467,37.9181014 30.7493836,42.7107189 24.1815,46.3731382 L24.2539256,21.8529032 C30.8220877,18.1904839 34.1093722,13.3978664 34.1234395,8.59776498 Z" id="Path" fill="#F34935"></path>
                                <path d="M30.4613527,0.0207142857 C36.9069486,7.09724885 34.8481129,15.9455899 24.2542041,21.8529032 L0.156411343,8.50341475 L30.4613527,0.0207142857 Z" id="Path" fill="#FF5541"></path>
                            </g>
                            <path d="M34.004773,26.8589447 L9.90711952,13.5094562 C3.32154738,17.1816313 0.0345414185,21.9904194 0.0374662967,26.8036175 C0.0373270168,26.7906544 0.0364913373,26.7792949 0.0364913373,26.7660645 L-4.59516947e-05,39.0261152 C-0.0143458311,43.8887604 3.33032201,48.7588894 10.0273181,52.4687512 C23.3366281,59.8417005 44.8443716,59.8411659 58.0662137,52.4684839 L58.1024265,40.2082995 L34.004773,26.8589447 Z" id="Path" fill="#412B9F"></path>
                            <path d="M58.1025658,40.2084332 C44.8807236,47.5809816 23.3729801,47.5816498 10.0636701,40.2087005 C-3.24466486,32.8362857 -3.31472266,20.8820046 9.90711952,13.5093226 L34.0049123,26.8588111 L58.1025658,40.2084332 Z" id="Path" fill="#5840BB"></path>
                        </g>
                    </g>
                </g>
            </g>
        </g>
    </g>
</svg>