<?xml version="1.0" encoding="UTF-8"?>
<svg width="72px" height="52px" viewBox="0 0 72 52" version="1.1" xmlns="http://www.w3.org/2000/svg" xmlns:xlink="http://www.w3.org/1999/xlink">
    <!-- Generator: Sketch 61.2 (89653) - https://sketch.com -->
    <title>Group 9</title>
    <desc>Created with Sketch.</desc>
    <g id="Page-1" stroke="none" stroke-width="1" fill="none" fill-rule="evenodd">
        <g id="PowerIM_Что-анализирует-сервис" transform="translate(-472.000000, -748.000000)">
            <g id="Group-11" transform="translate(448.000000, 704.000000)">
                <g id="Group-9" transform="translate(24.000000, 32.000000)">
                    <rect id="Rectangle" x="0" y="0" width="72" height="64"></rect>
                    <g id="051-pie-chart-18-2" transform="translate(0.000000, 12.000000)" fill-rule="nonzero">
                        <g id="051-pie-chart-18">
                            <path d="M57.4945312,35.2911429 C57.6030937,35.2287143 57.7126406,35.1672857 57.8199375,35.1038571 L43.2098437,26.5347143 L57.6331875,18.0197143 L57.6639844,6.97128571 C44.4187969,-0.797142857 23.0138437,-0.797142857 9.85471875,6.97142857 C3.30229687,10.8397143 0.03121875,15.9045714 0.031921875,20.9744286 C0.03178125,20.9624286 0.0309375,20.9517143 0.0309375,20.9395714 L-4.52586317e-05,31.9881429 C-0.014203125,37.1118571 3.31453125,42.2432857 9.97973437,46.1525714 C23.2249219,53.921 44.629875,53.921 57.789,46.1524286 L57.8199375,35.104 C57.7115156,35.1678571 57.6030937,35.23 57.4945312,35.2911429 Z" id="Path" fill="#5840BB"></path>
                            <polygon id="Path" fill="#412B9F" points="43.2098438 26.5347143 57.6331875 18.0195714 57.664125 6.97114286 33.8373281 21.0375714"></polygon>
                            <path d="M71.9936719,14.4615714 C72.1493437,9.24785714 68.8328437,3.99971429 62.0496562,0.0211428571 L38.2930313,14.0461429 L38.262375,31.6552857 L62.1743906,45.6801429 C68.6923594,41.8321429 71.9551406,36.7964286 71.9693437,31.753 L72,14.1437143 C71.9995781,14.2552857 71.9971875,14.3598571 71.9936719,14.4615714 Z" id="Path" fill="#FF5541"></path>
                            <path d="M72,14.144 L71.9693437,31.7531429 C71.9552812,36.7964286 68.6923594,41.8321429 62.1743906,45.6802857 L62.2050469,28.0711429 C68.7231562,24.2231429 71.9859375,19.1874286 72,14.144 Z" id="Path" fill="#DD3E2C"></path>
                            <polygon id="Path" fill="#F34935" points="62.2050469 28.071 62.17425 45.6801429 38.2622344 31.6554286 38.2928906 14.0462857"></polygon>
                            <path d="M-4.52586317e-05,31.9881429 L0.030796875,20.9397143 C0.01659375,26.0634286 3.34532813,31.1948571 10.0105312,35.1041429 C23.2557187,42.8725714 44.6606719,42.8725714 57.8197969,35.104 L57.789,46.1524286 C44.629875,53.921 23.2249219,53.9211429 9.97973437,46.1525714 C3.31453125,42.2431429 -0.014203125,37.1117143 -4.52586317e-05,31.9881429 Z" id="Path" fill="#4E36B1"></path>
                            <path d="M33.8373281,21.0375714 L57.8199375,35.1037143 C44.6608125,42.8722857 23.2558594,42.8724286 10.0106719,35.1038571 C-3.23451562,27.3352857 -3.30440625,14.7398571 9.85471875,6.97128571 L33.8373281,21.0375714 Z" id="Path" fill="#5840BB"></path>
                        </g>
                    </g>
                </g>
            </g>
        </g>
    </g>
</svg>