<?xml version="1.0" encoding="UTF-8"?>
<svg width="18px" height="18px" viewBox="0 0 18 18" version="1.1" xmlns="http://www.w3.org/2000/svg" xmlns:xlink="http://www.w3.org/1999/xlink">
    <!-- Generator: Sketch 61.2 (89653) - https://sketch.com -->
    <title>Combined Shape 2 Copy 11</title>
    <desc>Created with Sketch.</desc>
    <g id="Page-1" stroke="none" stroke-width="1" fill="none" fill-rule="evenodd">
        <g id="PowerIM_Аудит" transform="translate(-841.000000, -778.000000)" fill="#96979A" fill-rule="nonzero">
            <g id="Group-21" transform="translate(72.000000, 208.000000)">
                <g id="Group-6" transform="translate(40.000000, 544.000000)">
                    <g id="Group-5" transform="translate(656.000000, 21.000000)">
                        <g id="Combined-Shape-2-Copy-11" transform="translate(73.000000, 5.000000)">
                            <path d="M9,0 C13.9705627,0 18,4.02943725 18,9 C18,13.9705627 13.9705627,18 9,18 C4.02943725,18 0,13.9705627 0,9 C0,4.02943725 4.02943725,0 9,0 Z M9,2 C5.13400675,2 2,5.13400675 2,9 C2,12.8659932 5.13400675,16 9,16 C12.8659932,16 16,12.8659932 16,9 C16,5.13400675 12.8659932,2 9,2 Z M10,8 L10,14 L8,14 L8,8 L10,8 Z M10,4 L10,6 L8,6 L8,4 L10,4 Z" id="Combined-Shape"></path>
                        </g>
                    </g>
                </g>
            </g>
        </g>
    </g>
</svg>