<?xml version="1.0" encoding="UTF-8"?>
<svg width="90px" height="12px" viewBox="0 0 90 12" version="1.1" xmlns="http://www.w3.org/2000/svg" xmlns:xlink="http://www.w3.org/1999/xlink">
    <!-- Generator: Sketch 61.2 (89653) - https://sketch.com -->
    <title>Group 6</title>
    <desc>Created with Sketch.</desc>
    <defs>
        <circle id="path-1" cx="6" cy="6" r="6"></circle>
    </defs>
    <g id="Page-1" stroke="none" stroke-width="1" fill="none" fill-rule="evenodd">
        <g id="PowerIM_M_Стартовая" transform="translate(-64.000000, -20.000000)">
            <g id="Group-10" transform="translate(0.000000, 14.000000)">
                <g id="Group-6" transform="translate(64.000000, 6.000000)">
                    <g id="Group-4">
                        <path d="M2.64305986,12 L2.64305986,7.66762178 L5.73822207,7.66762178 C6.30624809,7.66762178 6.81631227,7.5730659 7.26841462,7.38395415 C7.72051696,7.19484241 8.10596319,6.93409742 8.42475331,6.6017192 C8.74354342,6.26934097 8.98988124,5.86819484 9.16376676,5.3982808 C9.33765227,4.92836676 9.42459503,4.40687679 9.42459503,3.83381089 C9.42459503,3.2722063 9.33765227,2.75358166 9.16376676,2.27793696 C8.98988124,1.80229226 8.74354342,1.3982808 8.42475331,1.06590258 C8.10596319,0.733524355 7.72051696,0.47277937 7.26841462,0.283667622 C6.81631227,0.0945558739 6.30624809,0 5.73822207,0 L5.73822207,0 L0,0 L0,12 L2.64305986,12 Z M5.42522814,5.41828255 L2.64305986,5.41828255 L2.64305986,2.3933518 L5.42522814,2.3933518 C5.81936864,2.3933518 6.12946448,2.49030471 6.35551565,2.68421053 C6.58156683,2.87811634 6.69459241,3.1634349 6.69459241,3.5401662 L6.69459241,3.5401662 L6.69459241,4.27146814 C6.69459241,4.64819945 6.58156683,4.93351801 6.35551565,5.12742382 C6.12946448,5.32132964 5.81936864,5.41828255 5.42522814,5.41828255 L5.42522814,5.41828255 Z M30.6335524,12 L32.1637449,5.50143266 L32.7723442,2.87106017 L32.8245099,2.87106017 L33.4157206,5.50143266 L34.9459132,12 L37.9541326,12 L40.771078,4.26325641e-14 L38.2671266,4.26325641e-14 L37.1020936,5.75931232 L36.4587172,9.09455587 L36.4065515,9.09455587 L35.6588438,5.75931232 L34.3025368,4.26325641e-14 L31.4160372,4.26325641e-14 L30.0771187,5.75931232 L29.3120224,9.09455587 L29.2598568,9.09455587 L28.6164804,5.75931232 L27.468836,4.26325641e-14 L24.8605532,4.26325641e-14 L27.6079444,12 L30.6335524,12 Z M51.2602388,12 L51.2602388,9.67908309 L45.6437366,9.67908309 L45.6437366,7.08309456 L50.4603655,7.08309456 L50.4603655,4.77936963 L45.6437366,4.77936963 L45.6437366,2.32091691 L51.2602388,2.32091691 L51.2602388,4.26325641e-14 L43.0006768,4.26325641e-14 L43.0006768,12 L51.2602388,12 Z M56.5849998,12 L56.5849998,7.59885387 L58.4803519,7.59885387 L60.6017552,12 L63.5404205,12 L61.1581889,7.28939828 C61.9001004,7.01432665 62.453636,6.5730659 62.8187956,5.96561605 C63.1839552,5.35816619 63.366535,4.64756447 63.366535,3.83381089 C63.366535,3.26074499 63.2795922,2.73925501 63.1057067,2.26934097 C62.9318212,1.79942693 62.6854833,1.39541547 62.3666932,1.05730659 C62.0479031,0.719197708 61.6624569,0.458452722 61.2103545,0.275071633 C60.7582522,0.0916905444 60.2539842,4.26325641e-14 59.6975505,4.26325641e-14 L59.6975505,4.26325641e-14 L53.9419399,4.26325641e-14 L53.9419399,12 L56.5849998,12 Z M59.3671681,5.41828255 L56.5849998,5.41828255 L56.5849998,2.3933518 L59.3671681,2.3933518 C59.7613086,2.3933518 60.0714044,2.49030471 60.2974556,2.68421053 C60.5235067,2.87811634 60.6365323,3.1634349 60.6365323,3.5401662 L60.6365323,3.5401662 L60.6365323,4.27146814 C60.6365323,4.64819945 60.5235067,4.93351801 60.2974556,5.12742382 C60.0714044,5.32132964 59.7613086,5.41828255 59.3671681,5.41828255 L59.3671681,5.41828255 Z M75.8418548,12 L75.8418548,9.91977077 L74.2768851,9.91977077 L74.2768851,2.08022923 L75.8418548,2.08022923 L75.8418548,4.26325641e-14 L70.0688556,4.26325641e-14 L70.0688556,2.08022923 L71.6338253,2.08022923 L71.6338253,9.91977077 L70.0688556,9.91977077 L70.0688556,12 L75.8418548,12 Z M80.923176,12 L80.923176,4.00573066 L80.9753417,4.00573066 L81.8969349,5.89684814 L84.2096123,10.1260745 L86.5744553,5.87965616 L87.4612714,4.1260745 L87.5134371,4.1260745 L87.5134371,12 L90,12 L90,4.26325641e-14 L87.1830546,4.26325641e-14 L84.2443894,5.6217765 L84.2096123,5.6217765 L81.2361699,4.26325641e-14 L78.4366131,4.26325641e-14 L78.4366131,12 L80.923176,12 Z" id="POWERIM" fill="#EFECFF" fill-rule="nonzero"></path>
                        <g id="Path" transform="translate(11.250000, 0.000000)">
                            <mask id="mask-2" fill="white">
                                <use xlink:href="#path-1"></use>
                            </mask>
                            <circle stroke="#F0F0F7" stroke-width="2" cx="6" cy="6" r="5"></circle>
                            <polygon fill="#F0F0F7" fill-rule="nonzero" mask="url(#mask-2)" points="9 1.5 5.24962832 1.5 3.75 6.76408244 5.25268255 6.76408244 3.97499515 11.25 8.77466549 5.985697 6.57120618 5.985697"></polygon>
                        </g>
                    </g>
                </g>
            </g>
        </g>
    </g>
</svg>