<?xml version="1.0" encoding="UTF-8"?>
<svg width="168px" height="40px" viewBox="0 0 168 40" version="1.1" xmlns="http://www.w3.org/2000/svg" xmlns:xlink="http://www.w3.org/1999/xlink">
    <!-- Generator: Sketch 61.2 (89653) - https://sketch.com -->
    <title>Новый текстовый документ 2</title>
    <desc>Created with Sketch.</desc>
    <g id="Page-1" stroke="none" stroke-width="1" fill="none" fill-rule="evenodd">
        <g id="PowerIM_Гарантии" transform="translate(-648.000000, -832.000000)" fill-rule="nonzero">
            <g id="Group-5" transform="translate(231.000000, 832.000000)">
                <g id="Новый-текстовый-документ-2" transform="translate(417.000000, 0.000000)">
                    <g id="Новый-текстовый-документ">
                        <path d="M12.3789474,38.2352941 C13.2410616,38.6145812 14.1295589,38.9310946 15.0374737,39.1823529 L20.3427368,27.3411765 L23.1427368,32.7588235 L20.0421053,39.8823803 L20.272,39.8823803 C22.9047086,39.8867486 25.5111932,39.3605445 27.9351579,38.3352941 L20.1010526,22.0176471 L12.3789474,38.2352941 Z" id="Path" fill="#145515"></path>
                        <path d="M39.9722306,20.2411765 C39.985345,11.0006696 33.5457533,2.99910393 24.5012003,1.01755042 C15.4566474,-0.964003087 6.25034439,3.60973394 2.38321324,12.0058762 C-1.48391792,20.4020184 1.03275349,30.3525104 8.42947368,35.9117647 L17.8021053,16.1294118 L22.4,16.1294118 L32.0673684,35.9647059 C37.0385293,32.259804 39.9680443,26.4327026 39.9722306,20.2411765 Z M25.6656842,14.2588235 L14.6425263,14.2588235 L14.6425263,9.47058824 L25.7305263,9.52352941 L25.6656842,14.2588235 Z" id="Shape" fill="#145515"></path>
                        <path d="M8.41768421,35.9411765 C9.64417286,36.8570597 10.9735867,37.6269737 12.3789474,38.2352941 L12.3789474,38.2352941 C10.9746776,37.6188308 9.64725315,36.8410268 8.42357895,35.9176471 L8.41768421,35.9411765 Z" id="Path" fill="#FFFFFF"></path>
                        <path d="M27.9410526,38.3647059 C29.4066536,37.7495334 30.7921836,36.9594653 32.0673684,36.0117647 L32.0673684,36.0117647 C30.792025,36.9592236 29.4065254,37.7492744 27.9410526,38.3647059 Z" id="Path" fill="#FFFFFF"></path>
                        <path d="M15.0374737,39.2 C16.6686777,39.6466405 18.3507075,39.8819068 20.0421053,39.9 L20.0421053,39.9 C18.3503418,39.8814338 16.6681222,39.6441638 15.0374737,39.1941176 L15.0374737,39.2 Z" id="Path" fill="#FFFFFF"></path>
                        <path d="M58.7823158,8.63529412 C58.4017851,8.18948412 57.9124914,7.84911632 57.3616842,7.64705882 C56.7741859,7.45490562 56.1583219,7.36341621 55.5402105,7.37647059 C54.9084803,7.36170174 54.2787667,7.45317633 53.6774737,7.64705882 C53.1283861,7.84310694 52.6419243,8.18230553 52.2686316,8.62941176 C51.8574388,9.12672015 51.5254104,9.68422898 51.2842105,10.2823529 L42.672,30.8117647 L48.5313684,30.8117647 L50.7477895,25.2941176 L60.3031579,25.2941176 L62.5490526,30.8 L68.3789474,30.8 L59.7431579,10.2705882 C59.5123734,9.67781883 59.1879889,9.12573635 58.7823158,8.63529412 L58.7823158,8.63529412 Z M52.3688421,20.9882353 L55.5343158,13.1588235 L58.6703158,20.9882353 L52.3688421,20.9882353 Z" id="Shape" fill="#000003"></path>
                        <path d="M86.1810526,9.04705882 C85.9800822,8.73740705 85.7291075,8.46310745 85.4383158,8.23529412 C85.0873689,7.96463453 84.6869201,7.76483076 84.2593684,7.64705882 C83.185211,7.3646018 82.0560521,7.3646018 80.9818947,7.64705882 C80.5543973,7.76497162 80.1539747,7.96476231 79.8029474,8.23529412 C79.5100078,8.47001126 79.2588974,8.75241411 79.0602105,9.07058824 C78.898957,9.33652724 78.757116,9.61371557 78.6357895,9.9 L69.7936842,30.8352941 L75.6884211,30.8352941 L82.6088421,13.3647059 L89.5292632,30.8352941 L95.424,30.8352941 L86.5818947,9.9 C86.4694404,9.60625406 86.3354642,9.32116961 86.1810526,9.04705882 Z" id="Path" fill="#000003"></path>
                        <path d="M113.108211,8.63529412 C112.726039,8.18865652 112.234624,7.84822532 111.681684,7.64705882 C111.094186,7.45490562 110.478322,7.36341621 109.860211,7.37647059 C109.22848,7.36170174 108.598767,7.45317633 107.997474,7.64705882 C107.448386,7.84310694 106.961924,8.18230553 106.588632,8.62941176 C106.189461,9.12330993 105.867499,9.67465175 105.633684,10.2647059 L96.9978947,30.7941176 L102.857263,30.7941176 L105.067789,25.2941176 L114.623158,25.2941176 L116.869053,30.8 L122.728421,30.8 L114.092632,10.2705882 C113.854626,9.67627185 113.522227,9.12409943 113.108211,8.63529412 Z M106.694737,20.9823529 L109.860211,13.1529412 L112.996211,20.9823529 L106.694737,20.9823529 Z" id="Shape" fill="#000003"></path>
                        <polygon id="Path" fill="#000003" points="139.840842 16.5705882 129.902316 16.5705882 129.902316 7.64705882 124.384842 7.64705882 124.384842 30.8117647 129.902316 30.8117647 129.902316 21.2352941 139.840842 21.2352941 139.840842 30.8117647 145.358316 30.8117647 145.358316 7.64705882 139.840842 7.64705882"></polygon>
                        <path d="M159.6,26.1470588 C158.840669,26.1552382 158.081861,26.1041016 157.330526,25.9941176 C156.737897,25.9080398 156.163997,25.7231072 155.632842,25.4470588 C155.156446,25.191402 154.75129,24.8214634 154.453895,24.3705882 C154.295673,24.1166342 154.165241,23.8464575 154.064842,23.5647059 C153.895751,23.0700677 153.777253,22.5596245 153.711158,22.0411765 C153.591171,21.1936486 153.535994,20.3382374 153.546105,19.4823529 C153.53695,18.5991337 153.592113,17.7164178 153.711158,16.8411765 C153.784667,16.2409352 153.918968,15.649677 154.112,15.0764706 C154.242525,14.701469 154.418722,14.3438888 154.636632,14.0117647 C154.876129,13.6517853 155.179832,13.3387514 155.532632,13.0882353 C155.878903,12.8563007 156.261369,12.6833599 156.664421,12.5764706 C157.135204,12.4522634 157.616854,12.3734702 158.102737,12.3411765 C158.692211,12.3 159.228632,12.2882353 159.794526,12.2882353 L167.322105,12.2882353 L167.322105,7.64705882 L157.890526,7.64705882 C157.383579,7.64705882 156.870737,7.64705882 156.363789,7.71764706 C155.692326,7.78190686 155.027679,7.90392908 154.377263,8.08235294 C153.627571,8.28756284 152.906694,8.58597953 152.231579,8.97058824 C151.471395,9.40225404 150.793034,9.96371298 150.227368,10.6294118 C149.558745,11.4204213 149.050263,12.3333675 148.730105,13.3176471 C148.400241,14.3078959 148.182741,15.3319466 148.081684,16.3705882 C147.975579,17.4235294 147.940211,18.4823529 147.940211,19.5352941 C147.940211,20.1980392 147.95986,20.8588235 147.999158,21.5176471 C148.046985,22.2587775 148.14546,22.9957851 148.293895,23.7235294 C148.44767,24.4920427 148.684858,25.2415593 149.001263,25.9588235 C149.329186,26.7110814 149.772692,27.4076906 150.315789,28.0235294 C150.838325,28.6178556 151.453355,29.1243386 152.137263,29.5235294 C152.753534,29.8837044 153.413119,30.164378 154.100211,30.3588235 C154.734472,30.5390896 155.38345,30.6631009 156.039579,30.7294118 C156.629053,30.7823529 157.218526,30.8117647 157.808,30.8117647 L167.699368,30.8117647 L167.699368,26.1470588 L159.6,26.1470588 Z" id="Path" fill="#000003"></path>
                    </g>
                </g>
            </g>
        </g>
    </g>
</svg>