<?xml version="1.0" encoding="UTF-8"?>
<svg width="120px" height="16px" viewBox="0 0 120 16" version="1.1" xmlns="http://www.w3.org/2000/svg" xmlns:xlink="http://www.w3.org/1999/xlink">
    <!-- Generator: Sketch 61.2 (89653) - https://sketch.com -->
    <title>Group 4</title>
    <desc>Created with Sketch.</desc>
    <defs>
        <circle id="path-1" cx="8" cy="8" r="8"></circle>
    </defs>
    <g id="Page-1" stroke="none" stroke-width="1" fill="none" fill-rule="evenodd">
        <g id="PowerIM_Стартовая" transform="translate(-72.000000, -40.000000)">
            <g id="Group-4" transform="translate(72.000000, 40.000000)">
                <path d="M3.52407981,16 L3.52407981,10.2234957 L7.65096276,10.2234957 C8.40833079,10.2234957 9.08841636,10.0974212 9.69121949,9.84527221 C10.2940226,9.59312321 10.8079509,9.24546323 11.2330044,8.80229226 C11.6580579,8.3591213 11.9865083,7.82425979 12.2183557,7.19770774 C12.450203,6.57115568 12.5661267,5.87583572 12.5661267,5.11174785 C12.5661267,4.36294174 12.450203,3.67144222 12.2183557,3.03724928 C11.9865083,2.40305635 11.6580579,1.8643744 11.2330044,1.42120344 C10.8079509,0.978032474 10.2940226,0.630372493 9.69121949,0.378223496 C9.08841636,0.126074499 8.40833079,0 7.65096276,0 L7.65096276,0 L0,0 L0,16 L3.52407981,16 Z M7.23363751,7.22437673 L3.52407981,7.22437673 L3.52407981,3.19113573 L7.23363751,3.19113573 C7.75915819,3.19113573 8.17261931,3.32040628 8.47402087,3.57894737 C8.77542243,3.83748846 8.92612322,4.2179132 8.92612322,4.72022161 L8.92612322,4.72022161 L8.92612322,5.69529086 C8.92612322,6.19759926 8.77542243,6.57802401 8.47402087,6.8365651 C8.17261931,7.09510619 7.75915819,7.22437673 7.23363751,7.22437673 L7.23363751,7.22437673 Z M40.8447365,16 L42.8849932,7.33524355 L43.696459,3.82808023 L43.7660132,3.82808023 L44.5542942,7.33524355 L46.5945509,16 L50.6055102,16 L54.3614374,5.68434189e-14 L51.0228354,5.68434189e-14 L49.4694581,7.67908309 L48.6116229,12.1260745 L48.5420687,12.1260745 L47.5451251,7.67908309 L45.7367157,5.68434189e-14 L41.8880496,5.68434189e-14 L40.102825,7.67908309 L39.0826966,12.1260745 L39.0131424,12.1260745 L38.1553072,7.67908309 L36.6251146,5.68434189e-14 L33.1474043,5.68434189e-14 L36.8105925,16 L40.8447365,16 Z M68.3469851,16 L68.3469851,12.9054441 L60.8583155,12.9054441 L60.8583155,9.44412607 L67.2804873,9.44412607 L67.2804873,6.37249284 L60.8583155,6.37249284 L60.8583155,3.09455587 L68.3469851,3.09455587 L68.3469851,5.68434189e-14 L57.3342357,5.68434189e-14 L57.3342357,16 L68.3469851,16 Z M75.4466664,16 L75.4466664,10.1318052 L77.9738026,10.1318052 L80.8023403,16 L84.7205606,16 L81.5442518,9.71919771 C82.5334672,9.35243553 83.2715146,8.76408787 83.7583941,7.95415473 C84.2452735,7.14422159 84.4887133,6.19675263 84.4887133,5.11174785 C84.4887133,4.34765998 84.3727896,3.65234002 84.1409422,3.02578797 C83.9090949,2.39923591 83.5806445,1.86055396 83.155591,1.40974212 C82.7305375,0.958930277 82.2166092,0.611270296 81.6138061,0.366762178 C81.0110029,0.122254059 80.3386456,5.68434189e-14 79.5967341,5.68434189e-14 L79.5967341,5.68434189e-14 L71.9225866,5.68434189e-14 L71.9225866,16 L75.4466664,16 Z M79.1562241,7.22437673 L75.4466664,7.22437673 L75.4466664,3.19113573 L79.1562241,3.19113573 C79.6817447,3.19113573 80.0952059,3.32040628 80.3966074,3.57894737 C80.698009,3.83748846 80.8487098,4.2179132 80.8487098,4.72022161 L80.8487098,4.72022161 L80.8487098,5.69529086 C80.8487098,6.19759926 80.698009,6.57802401 80.3966074,6.8365651 C80.0952059,7.09510619 79.6817447,7.22437673 79.1562241,7.22437673 L79.1562241,7.22437673 Z M101.122473,16 L101.122473,13.226361 L99.0358468,13.226361 L99.0358468,2.77363897 L101.122473,2.77363897 L101.122473,5.68434189e-14 L93.4251408,5.68434189e-14 L93.4251408,2.77363897 L95.511767,2.77363897 L95.511767,13.226361 L93.4251408,13.226361 L93.4251408,16 L101.122473,16 Z M107.897568,16 L107.897568,5.34097421 L107.967122,5.34097421 L109.195913,7.86246418 L112.279483,13.5014327 L115.432607,7.83954155 L116.615029,5.50143266 L116.684583,5.50143266 L116.684583,16 L120,16 L120,5.68434189e-14 L116.244073,5.68434189e-14 L112.325853,7.49570201 L112.279483,7.49570201 L108.314893,5.68434189e-14 L104.582151,5.68434189e-14 L104.582151,16 L107.897568,16 Z" id="POWERIM" fill="#EFECFF" fill-rule="nonzero"></path>
                <g id="Path" transform="translate(15.000000, 0.000000)">
                    <mask id="mask-2" fill="white">
                        <use xlink:href="#path-1"></use>
                    </mask>
                    <circle stroke="#F0F0F7" stroke-width="2.5" cx="8" cy="8" r="6.75"></circle>
                    <polygon fill="#F0F0F7" fill-rule="nonzero" mask="url(#mask-2)" points="12 2 6.99950443 2 5 9.01877658 7.00357674 9.01877658 5.29999354 15 11.699554 7.98092933 8.76160824 7.98092933"></polygon>
                </g>
            </g>
        </g>
    </g>
</svg>