<?xml version="1.0" encoding="UTF-8"?>
<svg width="148px" height="40px" viewBox="0 0 148 40" version="1.1" xmlns="http://www.w3.org/2000/svg" xmlns:xlink="http://www.w3.org/1999/xlink">
    <!-- Generator: Sketch 61.2 (89653) - https://sketch.com -->
    <title>logo_newsmile 2</title>
    <desc>Created with Sketch.</desc>
    <g id="Page-1" stroke="none" stroke-width="1" fill="none" fill-rule="evenodd">
        <g id="PowerIM_Гарантии" transform="translate(-231.000000, -832.000000)" fill="#00D6D6" fill-rule="nonzero">
            <g id="Group-5" transform="translate(231.000000, 832.000000)">
                <g id="logo_newsmile-2">
                    <g id="logo_newsmile">
                        <path d="M23.6230769,29.1549296 C22.3707692,29.1549296 21.9153846,27.5830986 21.4941538,26.0619718 C21.1924615,24.9915493 20.7769231,23.5323944 20.2190769,23.5323944 L20.1507692,23.5323944 C19.5815385,23.5323944 19.1830769,24.9915493 18.8756923,26.0619718 C18.4487692,27.5830986 17.9990769,29.1549296 16.7467692,29.1549296 C14.652,29.1549296 12.9101538,25.4422535 12.7166154,25.0197183 C12.6198462,24.828169 10.064,19.7521127 11.2252308,15.143662 C12.284,10.9690141 17.1281538,11.8591549 19.1944615,12.2366197 C19.5099021,12.3073512 19.8292013,12.3600208 20.1507692,12.3943662 L20.2190769,12.3943662 C20.5404728,12.3641438 20.8597937,12.315233 21.1753846,12.2478873 C23.2416923,11.8704225 28.0915385,10.9802817 29.1446154,15.1549296 C30.2830769,19.7633803 27.75,24.8394366 27.6418462,25.0535211 C27.4596923,25.4422535 25.7178462,29.1549296 23.6230769,29.1549296 Z M20.1507692,22.3943662 L20.2190769,22.3943662 C21.6364615,22.3943662 22.1203077,24.084507 22.5927692,25.7464789 C22.8318462,26.5971831 23.236,28 23.6230769,28 C24.6021538,28 25.9626154,25.971831 26.6172308,24.5295775 C26.6513846,24.456338 29.0990769,19.5887324 28.0403077,15.3915493 C27.306,12.484507 24.2207692,12.7943662 21.3803077,13.3183099 C21.0051953,13.3993116 20.6247556,13.4539084 20.2418462,13.4816901 L20.1507692,13.4816901 C19.7678598,13.4539084 19.3874201,13.3993116 19.0123077,13.3183099 C16.1661538,12.8 13.0923077,12.484507 12.3523077,15.3915493 C11.2935385,19.5887324 13.7412308,24.456338 13.7696923,24.5070423 C14.4356923,25.971831 15.7961538,28 16.7695385,28 C17.1566154,28 17.5607692,26.5802817 17.8055385,25.7464789 C18.2495385,24.1070423 18.7333846,22.4056338 20.1507692,22.4056338 L20.1507692,22.3943662 Z" id="Shape"></path>
                        <path d="M23.9076923,13.0140845 L23.8564615,11.8873239 C23.0163363,11.8980256 22.1887225,12.0903044 21.4315385,12.4507042 C18.2381538,13.9887324 17.0484615,14.4 14.7715385,14.4 C14.7715385,14.4676056 15.3749231,16.0507042 18.6366154,14.9633803 L18.6366154,14.9633803 C19.7477767,14.5504285 20.8347986,14.0764528 21.8926154,13.543662 C22.5179002,13.225479 23.2052891,13.044828 23.9076923,13.0140845 L23.9076923,13.0140845 Z" id="Path"></path>
                        <ellipse id="Oval" cx="14.9252308" cy="1.41971831" rx="1" ry="1"></ellipse>
                        <ellipse id="Oval" cx="10.1038462" cy="3.53802817" rx="1" ry="1"></ellipse>
                        <ellipse id="Oval" cx="6.01107692" cy="6.83943662" rx="1" ry="1"></ellipse>
                        <ellipse id="Oval" cx="2.95430769" cy="11.0873239" rx="1" ry="1"></ellipse>
                        <ellipse id="Oval" cx="1.14415385" cy="16.0225352" rx="1" ry="1"></ellipse>
                        <ellipse id="Oval" cx="0.757076923" cy="21.2394366" rx="1" ry="1"></ellipse>
                        <ellipse id="Oval" cx="1.79307692" cy="26.3661972" rx="1" ry="1"></ellipse>
                        <ellipse id="Oval" cx="4.20092308" cy="31.0197183" rx="1" ry="1"></ellipse>
                        <ellipse id="Oval" cx="7.79276923" cy="34.8788732" rx="1" ry="1"></ellipse>
                        <ellipse id="Oval" cx="12.2726154" cy="37.6338028" rx="1" ry="1"></ellipse>
                        <ellipse id="Oval" cx="17.3501538" cy="39.0929577" rx="1" ry="1"></ellipse>
                        <ellipse id="Oval" cx="20.1849231" cy="0.749295775" rx="1" ry="1"></ellipse>
                        <ellipse id="Oval" cx="25.4446154" cy="1.41971831" rx="1" ry="1"></ellipse>
                        <ellipse id="Oval" cx="30.2716923" cy="3.53802817" rx="1" ry="1"></ellipse>
                        <ellipse id="Oval" cx="34.3644615" cy="6.83943662" rx="1" ry="1"></ellipse>
                        <ellipse id="Oval" cx="37.4155385" cy="11.0873239" rx="1" ry="1"></ellipse>
                        <ellipse id="Oval" cx="39.2256923" cy="16.0225352" rx="1" ry="1"></ellipse>
                        <ellipse id="Oval" cx="39.6184615" cy="21.2394366" rx="1" ry="1"></ellipse>
                        <ellipse id="Oval" cx="38.5767692" cy="26.3661972" rx="1" ry="1"></ellipse>
                        <ellipse id="Oval" cx="36.1689231" cy="31.0197183" rx="1" ry="1"></ellipse>
                        <ellipse id="Oval" cx="32.5827692" cy="34.8788732" rx="1" ry="1"></ellipse>
                        <ellipse id="Oval" cx="28.0972308" cy="37.6338028" rx="1" ry="1"></ellipse>
                        <ellipse id="Oval" cx="23.0253846" cy="39.0929577" rx="1" ry="1"></ellipse>
                        <ellipse id="Oval" cx="15.8530769" cy="35.3577465" rx="1" ry="1"></ellipse>
                        <ellipse id="Oval" cx="11.692" cy="33.3915493" rx="1" ry="1"></ellipse>
                        <ellipse id="Oval" cx="9.03369231" cy="31.0084507" rx="1" ry="1"></ellipse>
                        <ellipse id="Oval" cx="6.92753846" cy="28.2591549" rx="1" ry="1"></ellipse>
                        <ellipse id="Oval" cx="5.49307692" cy="25.1267606" rx="1" ry="1"></ellipse>
                        <ellipse id="Oval" cx="4.736" cy="21.5943662" rx="1" ry="1"></ellipse>
                        <ellipse id="Oval" cx="4.78153846" cy="17.7126761" rx="1" ry="1"></ellipse>
                        <ellipse id="Oval" cx="5.37923077" cy="13.6450704" rx="1" ry="1"></ellipse>
                        <ellipse id="Oval" cx="7.06984615" cy="10.0169014" rx="1" ry="1"></ellipse>
                        <ellipse id="Oval" cx="10.4966154" cy="7.13239437" rx="1" ry="1"></ellipse>
                        <ellipse id="Oval" cx="14.4584615" cy="5.75774648" rx="1" ry="1"></ellipse>
                        <ellipse id="Oval" cx="18.4203077" cy="5.34084507" rx="1" ry="1"></ellipse>
                        <ellipse id="Oval" cx="20.1849231" cy="36.0394366" rx="1" ry="1"></ellipse>
                        <ellipse id="Oval" cx="24.5167692" cy="35.3577465" rx="1" ry="1"></ellipse>
                        <ellipse id="Oval" cx="28.6778462" cy="33.3915493" rx="1" ry="1"></ellipse>
                        <ellipse id="Oval" cx="31.3361538" cy="31.0084507" rx="1" ry="1"></ellipse>
                        <ellipse id="Oval" cx="33.4423077" cy="28.2591549" rx="1" ry="1"></ellipse>
                        <ellipse id="Oval" cx="34.8767692" cy="25.1267606" rx="1" ry="1"></ellipse>
                        <ellipse id="Oval" cx="35.6395385" cy="21.5943662" rx="1" ry="1"></ellipse>
                        <ellipse id="Oval" cx="35.594" cy="17.7126761" rx="1" ry="1"></ellipse>
                        <ellipse id="Oval" cx="34.9963077" cy="13.6450704" rx="1" ry="1"></ellipse>
                        <ellipse id="Oval" cx="33.3" cy="10.0169014" rx="1" ry="1"></ellipse>
                        <ellipse id="Oval" cx="29.8732308" cy="7.13239437" rx="1" ry="1"></ellipse>
                        <ellipse id="Oval" cx="25.9113846" cy="5.75774648" rx="1" ry="1"></ellipse>
                        <ellipse id="Oval" cx="21.9495385" cy="5.34084507" rx="1" ry="1"></ellipse>
                        <ellipse id="Oval" cx="20.1849231" cy="9.0028169" rx="1" ry="1"></ellipse>
                        <ellipse id="Oval" cx="16.7638462" cy="8.87323944" rx="1" ry="1"></ellipse>
                        <ellipse id="Oval" cx="13.5192308" cy="9.06478873" rx="1" ry="1"></ellipse>
                        <ellipse id="Oval" cx="10.6389231" cy="10.2816901" rx="1" ry="1"></ellipse>
                        <ellipse id="Oval" cx="8.63523077" cy="12.715493" rx="1" ry="1"></ellipse>
                        <ellipse id="Oval" cx="7.79846154" cy="15.543662" rx="1" ry="1"></ellipse>
                        <ellipse id="Oval" cx="7.696" cy="18.4619718" rx="1" ry="1"></ellipse>
                        <ellipse id="Oval" cx="7.93507692" cy="21.3183099" rx="1" ry="1"></ellipse>
                        <ellipse id="Oval" cx="8.73769231" cy="24.1690141" rx="1" ry="1"></ellipse>
                        <ellipse id="Oval" cx="9.93876923" cy="26.9295775" rx="1" ry="1"></ellipse>
                        <ellipse id="Oval" cx="11.6863077" cy="29.4760563" rx="1" ry="1"></ellipse>
                        <ellipse id="Oval" cx="14.0656923" cy="31.684507" rx="1" ry="1"></ellipse>
                        <ellipse id="Oval" cx="17.3501538" cy="32.5126761" rx="1" ry="1"></ellipse>
                        <ellipse id="Oval" cx="20.1849231" cy="30.6478873" rx="1" ry="1"></ellipse>
                        <ellipse id="Oval" cx="23.606" cy="8.87323944" rx="1" ry="1"></ellipse>
                        <ellipse id="Oval" cx="26.8506154" cy="9.06478873" rx="1" ry="1"></ellipse>
                        <ellipse id="Oval" cx="29.7309231" cy="10.2816901" rx="1" ry="1"></ellipse>
                        <ellipse id="Oval" cx="31.7346154" cy="12.715493" rx="1" ry="1"></ellipse>
                        <ellipse id="Oval" cx="32.5770769" cy="15.543662" rx="1" ry="1"></ellipse>
                        <ellipse id="Oval" cx="32.6738462" cy="18.4619718" rx="1" ry="1"></ellipse>
                        <ellipse id="Oval" cx="32.4404615" cy="21.3183099" rx="1" ry="1"></ellipse>
                        <ellipse id="Oval" cx="31.6378462" cy="24.1690141" rx="1" ry="1"></ellipse>
                        <ellipse id="Oval" cx="30.4310769" cy="26.9295775" rx="1" ry="1"></ellipse>
                        <ellipse id="Oval" cx="28.6835385" cy="29.4760563" rx="1" ry="1"></ellipse>
                        <ellipse id="Oval" cx="26.3041538" cy="31.684507" rx="1" ry="1"></ellipse>
                        <ellipse id="Oval" cx="23.0253846" cy="32.5126761" rx="1" ry="1"></ellipse>
                        <path d="M59.2,20.9352113 L59.2,15.6619718 C59.3018825,15.1300841 59.7715551,14.7450846 60.3185385,14.7450846 C60.8655218,14.7450846 61.3351944,15.1300841 61.4370769,15.6619718 L61.4370769,24.0507042 C61.4675299,24.3577932 61.3574075,24.662238 61.1369536,24.8804261 C60.9164997,25.0986142 60.6088934,25.2076048 60.2986154,25.1774648 C59.7482674,25.0975554 59.2622885,24.7796518 58.9723077,24.3098592 L54.5892308,18.8338028 L54.5892308,24.0732394 C54.4873482,24.6051272 54.0176757,24.9901267 53.4706923,24.9901267 C52.9237089,24.9901267 52.4540364,24.6051272 52.3521538,24.0732394 L52.3521538,15.6957746 C52.3326949,15.3973783 52.4415831,15.104744 52.6519382,14.8901119 C52.8622933,14.6754799 53.1545138,14.5588501 53.4564615,14.5690141 C53.9744615,14.5690141 54.2761538,14.7605634 54.7941538,15.4084507 L59.2,20.9352113 Z" id="Path"></path>
                        <path d="M67.9946154,22.8225352 L70.8407692,22.8225352 C71.2907359,22.7381072 71.7480117,22.928757 72.0013099,23.306394 C72.2546081,23.684031 72.2546081,24.175124 72.0013099,24.5527609 C71.7480117,24.9303979 71.2907359,25.1210478 70.8407692,25.0366197 L66.7423077,25.0366197 C66.1135527,25.0366197 65.6038462,24.5321518 65.6038462,23.9098592 L65.6038462,15.8084507 C65.6038462,15.186158 66.1135527,14.6816901 66.7423077,14.6816901 L70.6927692,14.6816901 C71.2301804,14.7825255 71.619178,15.2473708 71.619178,15.7887324 C71.619178,16.3300939 71.2301804,16.7949392 70.6927692,16.8957746 L68.006,16.8957746 L68.006,18.7098592 L70.2430769,18.7098592 C70.6930436,18.6254311 71.1503194,18.8160809 71.4036176,19.1937179 C71.6569158,19.5713549 71.6569158,20.0624479 71.4036176,20.4400849 C71.1503194,20.8177219 70.6930436,21.0083717 70.2430769,20.9239437 L68.006,20.9239437 L67.9946154,22.8225352 Z" id="Path"></path>
                        <path d="M81.7756923,18.3943662 L80.0167692,23.8535211 C79.6923077,24.7887324 79.328,25.1830986 78.4969231,25.1830986 C77.7512308,25.1830986 77.256,24.7549296 77.0055385,23.8985915 L74.7286154,16.343662 C74.6860138,16.1796037 74.6612069,16.0115176 74.6546154,15.8422535 C74.6379384,15.494796 74.7709119,15.1566358 75.0205156,14.9117457 C75.2701193,14.6668555 75.6129395,14.538207 75.9638462,14.5577465 C76.5427828,14.5303844 77.0500782,14.9378707 77.1421538,15.5042254 L78.6961538,21.228169 L80.3526154,15.8422535 C80.6201538,14.9859155 81.1267692,14.5577465 81.8553846,14.5577465 C82.6921538,14.5577465 83.0792308,14.9577465 83.3809231,15.8873239 L85.0886154,21.228169 L86.6995385,15.3971831 C86.8296919,14.873178 87.3267576,14.521603 87.8698206,14.5694417 C88.4128836,14.6172803 88.8393988,15.050214 88.874,15.5887324 C88.8762061,15.714957 88.8569638,15.840651 88.8170769,15.9605634 L86.58,23.8478873 C86.3238462,24.7774648 85.8912308,25.1774648 85.0544615,25.1774648 C84.2176923,25.1774648 83.8647692,24.7380282 83.5801538,23.8929577 L81.7756923,18.3943662 Z" id="Path"></path>
                        <path d="M105.307692,24.3549296 C104.58947,24.9427299 103.677398,25.2476411 102.746154,25.2112676 C101.999512,25.2232689 101.259873,25.0672294 100.583077,24.7549296 C100.007496,24.5607151 99.6191949,24.0272019 99.6153846,23.4253521 C99.5949491,23.1573361 99.6872494,22.8928645 99.8704625,22.6944682 C100.053676,22.4960718 100.311536,22.3813636 100.583077,22.3774648 C100.941993,22.4211935 101.290565,22.5260245 101.613385,22.6873239 C101.989097,22.8735884 102.400335,22.979181 102.820154,22.9971831 C103.429231,22.9971831 103.804923,22.6873239 103.804923,22.2028169 C103.804923,21.3633803 102.239538,20.8901408 100.987231,20.1633803 C100.02585,19.6209436 99.437439,18.6050426 99.4503077,17.5098592 C99.4389105,16.7041303 99.7816336,15.9332197 100.389538,15.3971831 C101.079202,14.7975673 101.97721,14.4864949 102.894154,14.5295775 C104.385538,14.5295775 105.472769,14.9971831 105.472769,15.8985915 C105.485163,16.1757833 105.382895,16.446005 105.189554,16.6469265 C104.996213,16.847848 104.728495,16.9621186 104.448154,16.9633803 C103.981022,16.8597175 103.507555,16.7863223 103.030769,16.743662 C102.370462,16.743662 101.983385,17.0366197 101.983385,17.5098592 C101.983385,19.2 106.338,18.8056338 106.338,22.1746479 C106.350473,23.019311 105.970709,23.8229461 105.307692,24.3549296 L105.307692,24.3549296 Z" id="Path"></path>
                        <path d="M112.240923,18.4957746 L112.240923,24.0788732 C112.240923,24.7322805 111.705731,25.2619718 111.045538,25.2619718 C110.385346,25.2619718 109.850154,24.7322805 109.850154,24.0788732 L109.850154,15.8873239 C109.839458,15.5205734 109.986357,15.1665271 110.254392,14.9130616 C110.522426,14.659596 110.886466,14.5304748 111.256154,14.5577465 C111.587512,14.5430557 111.915416,14.629598 112.195385,14.8056338 C112.526689,15.1092221 112.826111,15.4452051 113.089077,15.8084507 L115.474154,19.0591549 L117.751077,15.8253521 C118.183692,15.1943662 118.320308,14.9971831 118.747231,14.7492958 C118.963723,14.6208279 119.212059,14.5545053 119.464462,14.5577465 C119.819194,14.5294155 120.168929,14.6545971 120.423293,14.9009443 C120.677656,15.1472914 120.811694,15.4906346 120.790769,15.8422535 L120.790769,24.0788732 C120.747445,24.6991341 120.226428,25.1803789 119.598231,25.1803789 C118.970033,25.1803789 118.449016,24.6991341 118.405692,24.0788732 L118.405692,18.4450704 L116.123077,21.5549296 C115.949809,21.8605505 115.623315,22.0497662 115.269231,22.0497662 C114.915146,22.0497662 114.588652,21.8605505 114.415385,21.5549296 L112.240923,18.4957746 Z" id="Path"></path>
                        <path d="M125.094154,15.6619718 C125.137478,15.041711 125.658495,14.5604662 126.286692,14.5604662 C126.91489,14.5604662 127.435907,15.041711 127.479231,15.6619718 L127.479231,24.0788732 C127.435907,24.6991341 126.91489,25.1803789 126.286692,25.1803789 C125.658495,25.1803789 125.137478,24.6991341 125.094154,24.0788732 L125.094154,15.6619718 Z" id="Path"></path>
                        <path d="M134.190462,22.8225352 L137.321231,22.8225352 C137.858642,22.9233706 138.24764,23.3882159 138.24764,23.9295775 C138.24764,24.470939 137.858642,24.9357843 137.321231,25.0366197 L132.921077,25.0366197 C132.292322,25.0366197 131.782615,24.5321518 131.782615,23.9098592 L131.782615,15.6619718 C131.842721,15.0531241 132.3599,14.5888354 132.978,14.5888354 C133.5961,14.5888354 134.113279,15.0531241 134.173385,15.6619718 L134.190462,22.8225352 Z" id="Path"></path>
                        <path d="M143.804769,22.8225352 L146.650923,22.8225352 C147.188334,22.9233706 147.577332,23.3882159 147.577332,23.9295775 C147.577332,24.470939 147.188334,24.9357843 146.650923,25.0366197 L142.535385,25.0366197 C141.90663,25.0366197 141.396923,24.5321518 141.396923,23.9098592 L141.396923,15.8084507 C141.396923,15.186158 141.90663,14.6816901 142.535385,14.6816901 L146.52,14.6816901 C147.057411,14.7825255 147.446409,15.2473708 147.446409,15.7887324 C147.446409,16.3300939 147.057411,16.7949392 146.52,16.8957746 L143.833231,16.8957746 L143.833231,18.7098592 L146.070308,18.7098592 C146.520274,18.6254311 146.97755,18.8160809 147.230848,19.1937179 C147.484147,19.5713549 147.484147,20.0624479 147.230848,20.4400849 C146.97755,20.8177219 146.520274,21.0083717 146.070308,20.9239437 L143.833231,20.9239437 L143.804769,22.8225352 Z" id="Path"></path>
                        <ellipse id="Oval" cx="93.8661538" cy="19.8591549" rx="1.18969231" ry="1.17746479"></ellipse>
                    </g>
                </g>
            </g>
        </g>
    </g>
</svg>