<?xml version="1.0" encoding="UTF-8"?>
<svg width="188px" height="39px" viewBox="0 0 188 39" version="1.1" xmlns="http://www.w3.org/2000/svg" xmlns:xlink="http://www.w3.org/1999/xlink">
    <!-- Generator: Sketch 61.2 (89653) - https://sketch.com -->
    <title>Group 8</title>
    <desc>Created with Sketch.</desc>
    <g id="Page-1" stroke="none" stroke-width="1" fill="none" fill-rule="evenodd">
        <g id="PowerIM_Гарантии" transform="translate(-419.000000, -832.000000)" fill="#CF271E">
            <g id="Group-5" transform="translate(231.000000, 832.000000)">
                <g id="Group-8" transform="translate(188.000000, 0.000000)">
                    <g id="Group-7">
                        <g id="logo-fb" transform="translate(58.135635, 20.054159)" fill-rule="nonzero">
                            <path d="M122.568701,0 C124.613821,0 126.174513,0.434810678 127.24721,1.30441822 C128.319906,2.17485473 128.957432,3.56100979 129.161591,5.45862798 L124.50189,5.76956231 C124.379212,4.94715103 124.118661,4.34550933 123.719297,3.97052294 C123.324426,3.59892153 122.777339,3.41186355 122.080706,3.41186355 C121.503169,3.41186355 121.070684,3.54836793 120.780579,3.82980461 C120.489565,4.10619835 120.344512,4.44830211 120.344512,4.84855838 C120.344512,5.13842296 120.463608,5.39880369 120.701784,5.63305793 C120.936379,5.87658286 121.487944,6.09819524 122.363661,6.30716577 C124.524279,6.84055527 126.069746,7.38238649 127.005451,7.92756124 C127.940245,8.4735926 128.621653,9.14771425 129.046974,9.95832648 C129.471398,10.7638958 129.687186,11.6680439 129.687186,12.6707985 C129.687186,13.8428986 129.400663,14.9265473 128.834754,15.9158034 C128.267964,16.9092734 127.474639,17.6600614 126.453871,18.1723949 C125.436699,18.6838719 124.151782,18.9400387 122.601837,18.9400387 C119.882489,18.9400387 117.997661,18.3426109 116.95092,17.1401565 C115.900613,15.9419161 115.307851,14.4192704 115.169963,12.5679919 L119.875324,12.2309311 C119.975613,13.1055953 120.184235,13.7704325 120.497625,14.2313558 C121.003531,14.9737297 121.734181,15.3402744 122.680632,15.3402744 C123.384415,15.3402744 123.927935,15.1523736 124.312059,14.7731871 C124.69172,14.3931439 124.881536,13.9541331 124.881536,13.4552842 C124.881536,12.9817328 124.703348,12.55535 124.338031,12.1803775 C123.972698,11.8045621 123.131014,11.4506455 121.80493,11.1177986 C119.637148,10.5591392 118.09077,9.82182209 117.166722,8.89576142 C116.235496,7.97054354 115.769875,6.79337283 115.769875,5.36087813 C115.769875,4.41797547 116.008066,3.52645539 116.485314,2.69055946 C116.961667,1.85466353 117.677092,1.19824047 118.63429,0.716247351 C119.592369,0.238468187 120.903243,0 122.568701,0 Z M72.0746708,0 C74.7169941,0 76.7542874,0.818211152 78.1847294,2.45630522 C79.6116316,4.08934255 80.3286299,6.38384586 80.3286299,9.33140107 C80.3286299,11.4717152 80.0141109,13.2294579 79.3895016,14.5979143 C78.7649069,15.9671998 77.8631014,17.033136 76.6831965,17.7965796 C75.5006402,18.5600094 74.033764,18.9400387 72.270127,18.9400387 C70.4816228,18.9400387 68.9987512,18.6114058 67.8232894,17.9549965 C66.6513968,17.2935167 65.7016049,16.2528504 64.9694998,14.8287974 C64.2418378,13.4038878 63.875778,11.6217043 63.875778,9.48056113 C63.875778,6.4908664 64.5998999,4.16180869 66.0418943,2.49927371 C67.4874432,0.831695796 69.4980773,0 72.0746708,0 Z M90.4631377,0 C93.1063643,0 95.1427543,0.818211152 96.573211,2.45630522 C98.0000985,4.08934255 98.7171114,6.38384586 98.7171114,9.33140107 C98.7171114,11.4717152 98.4025925,13.2294579 97.7779832,14.5979143 C97.1533884,15.9671998 96.2515829,17.033136 95.0725666,17.7965796 C93.8900103,18.5600094 92.422231,18.9400387 90.6586086,18.9400387 C88.8701043,18.9400387 87.3881214,18.6114058 86.2126596,17.9549965 C85.0407524,17.2935167 84.0909751,16.2528504 83.3588699,14.8287974 C82.6303194,13.4038878 82.2642595,11.6217043 82.2642595,9.48056113 C82.2642595,6.4908664 82.9892555,4.16180869 84.4303758,2.49927371 C85.8759247,0.831695796 87.8865589,0 90.4631377,0 Z M56.5092645,0 C58.0236495,0 59.1864736,0.431252125 59.9942061,1.29043132 C60.806334,2.14959695 61.2123979,3.21321919 61.2123979,4.47881443 C61.2123979,5.54243667 60.9232375,6.45541382 60.3457813,7.21857373 C59.9581781,7.72513483 59.3947872,8.12741153 58.6520924,8.42042303 C59.7788741,8.73081978 60.6085837,9.26635631 61.1429648,10.0212375 C61.672965,10.7794302 61.9401483,11.7296615 61.9401483,12.8735735 C61.9401483,13.8080753 61.7494307,14.6457299 61.3732411,15.3915045 C60.9926706,16.1372792 60.4767358,16.7241436 59.8184184,17.1595215 C59.4132335,17.4276969 58.7988703,17.6247027 57.9761934,17.7463724 C56.8828168,17.9094355 56.1585683,17.9930368 55.7999748,17.9930368 L47.4229261,17.9930368 L47.4229261,0 L56.5092645,0 Z M114.202148,0 L114.202148,4.44487179 L109.329627,4.44487179 L109.329627,17.9930368 L104.553987,17.9930368 L104.553987,4.44487179 L99.6849262,4.44487179 L99.6849262,0 L114.202148,0 Z M32.4244942,0 L35.7024774,6.07466173 L38.9804458,0 L44.5194816,0 L38.2052647,10.456629 L38.2052647,17.9930368 L33.1769665,17.9930368 L33.1769665,10.456629 L26.8518274,0 L32.4244942,0 Z M12.4085287,0 L12.4085287,3.86712748 L5.0401145,3.86712748 L5.0401145,7.00916348 L11.3307137,7.00916348 L11.3307137,10.6412032 L5.0401145,10.6412032 L5.0401145,17.9930368 L0,17.9930368 L0,0 L12.4085287,0 Z M20.1295539,0 L20.1295539,13.560583 L27.9596376,13.560583 L27.9596376,17.9930368 L15.1085272,17.9930368 L15.1085272,0 L20.1295539,0 Z M54.7691564,11.3640232 L52.2620002,11.3640232 L52.2620002,15.1520309 L54.779888,15.1520309 C55.632007,15.1520309 56.2310839,14.9774224 56.5771038,14.6247643 C56.9267155,14.2721202 57.1010742,13.7981909 57.1010742,13.2012557 C57.1010742,12.6481947 56.9302927,12.2043752 56.5842581,11.8697829 C56.2382382,11.5343303 55.6355842,11.3640232 54.7691564,11.3640232 Z M72.0604967,4.73500967 C71.053176,4.73500967 70.2425949,5.13602295 69.6315037,5.94647561 C69.0203976,6.75185879 68.7148521,8.0905312 68.7148521,9.95405293 C68.7148521,11.8049355 69.0167703,13.1309688 69.624249,13.9405788 C70.2308208,14.7468184 71.0613375,15.1520309 72.1058238,15.1520309 C73.1811427,15.1520309 74.01438,14.7552307 74.602815,13.9666997 C75.19125,13.1730993 75.4895558,11.7535501 75.4895558,9.70720965 C75.4895558,7.98017692 75.180368,6.72238125 74.5656494,5.92456775 C73.9500092,5.1318099 73.116772,4.73500967 72.0604967,4.73500967 Z M90.4498777,4.73500967 C89.4425741,4.73500967 88.6310879,5.13602295 88.0199981,5.94647561 C87.4088934,6.75185879 87.1033336,8.0905312 87.1033336,9.95405293 C87.1033336,11.8049355 87.405266,13.1309688 88.0127434,13.9405788 C88.6202059,14.7468184 89.4498139,15.1520309 90.4943128,15.1520309 C91.5696293,15.1520309 92.4028647,14.7552307 92.9922053,13.9666997 C93.5806391,13.1730993 93.8780373,11.7535501 93.8780373,9.70720965 C93.8780373,7.98017692 93.5688502,6.72238125 92.954133,5.92456775 C92.3394009,5.1318099 91.5052587,4.73500967 90.4498777,4.73500967 Z M54.2671482,3.78800774 L52.2620002,3.78800774 L52.2620002,7.57601547 L54.2367128,7.57601547 C54.9451319,7.57601547 55.4379939,7.4088842 55.7193865,7.079214 C55.9966779,6.74403298 56.1332594,6.26558583 56.1332594,5.64298419 C56.1332594,5.06169861 55.9966779,4.60621319 55.7193865,4.28113534 C55.4379939,3.95146513 54.9558302,3.78800774 54.2671482,3.78800774 Z" id="Combined-Shape"></path>
                        </g>
                        <path d="M62.0609083,11.3584526 C62.7004002,11.3584526 63.2793343,11.2425841 63.7977104,11.0108472 C64.3160864,10.7791103 64.7448367,10.4894391 65.0839613,10.1418337 L65.0839613,10.1418337 L64.1828589,9.01211605 C63.8340451,9.27282012 63.5046099,9.47317602 63.1945531,9.61318375 C62.8844964,9.75319149 62.530838,9.82319536 62.1335778,9.82319536 C61.3778145,9.82319536 60.7770797,9.51904062 60.3313731,8.91073114 C59.8856666,8.30242166 59.6628133,7.37064603 59.6628133,6.11540426 C59.6628133,4.83119536 59.8880889,3.88976402 60.3386401,3.29111025 C60.7891912,2.69245648 61.3875038,2.39312959 62.1335778,2.39312959 C62.7827591,2.39312959 63.4028725,2.62969439 63.9939181,3.10282398 L63.9939181,3.10282398 L64.96769,1.97310638 C64.5316727,1.61584526 64.0859662,1.35031335 63.6305704,1.17651064 C63.1751746,1.00270793 62.6422646,0.915806576 62.0318404,0.915806576 C61.198563,0.915806576 60.4500667,1.1185764 59.7863515,1.52411605 C59.1226364,1.92965571 58.5994157,2.52348162 58.2166894,3.30559381 C57.8339631,4.087706 57.6426,5.02430948 57.6426,6.11540426 C57.6426,7.22581044 57.8266962,8.17448356 58.1948885,8.9614236 C58.5630809,9.74836364 59.081457,10.3446035 59.7500168,10.7501431 C60.4185766,11.1556828 61.1888737,11.3584526 62.0609083,11.3584526 Z M68.2668873,11.3584526 C68.7513509,11.3584526 69.1897905,11.2643095 69.582206,11.0760232 C69.9746216,10.8877369 70.3016345,10.6004797 70.5632449,10.2142515 C70.708584,10.5715126 70.9193256,10.8370445 71.1954699,11.0108472 C71.4716142,11.1846499 71.8276949,11.2908627 72.2637122,11.3294855 L72.2637122,11.3294855 L72.6561277,10.098383 C72.452653,10.0211373 72.3048916,9.91251064 72.2128435,9.7725029 C72.1207954,9.63249516 72.0747714,9.41282785 72.0747714,9.11350097 L72.0747714,9.11350097 L72.0747714,5.89815087 C72.0747714,4.14081238 71.0913102,3.26214313 69.1243879,3.26214313 C68.2232856,3.26214313 67.2931154,3.44560155 66.3338774,3.81251838 L66.3338774,3.81251838 L66.7698947,5.07258801 C67.564415,4.80222824 68.2426641,4.66704836 68.8046419,4.66704836 C69.3084841,4.66704836 69.6742541,4.76601934 69.901952,4.96396132 C70.1296499,5.16190329 70.2434989,5.50709478 70.2434989,5.99953578 L70.2434989,5.99953578 L70.2434989,6.43404255 L69.2842609,6.43404255 C68.1603053,6.43404255 67.2955377,6.65370986 66.6899582,7.09304449 C66.0843787,7.53237911 65.7815889,8.16724178 65.7815889,8.9976325 C65.7815889,9.70249903 66.0044422,10.2721857 66.4501487,10.7066925 C66.8958552,11.1411992 67.5014348,11.3584526 68.2668873,11.3584526 Z M68.7610402,10.0114816 C68.4025371,10.0114816 68.1312375,9.91009671 67.9471413,9.70732689 C67.7630451,9.50455706 67.670997,9.21971373 67.670997,8.85279691 C67.670997,7.96447195 68.2717319,7.52030948 69.4732017,7.52030948 L69.4732017,7.52030948 L70.2434989,7.52030948 L70.2434989,9.07005029 C69.8849958,9.69767118 69.3908429,10.0114816 68.7610402,10.0114816 Z M74.0223151,11.3150019 C74.6714964,11.1508549 75.1535377,10.9215319 75.4684391,10.6270329 C75.7833404,10.3325338 76.008616,9.91492456 76.1442658,9.37420503 C76.2799156,8.83348549 76.3961869,8.02240619 76.4930796,6.94096712 L76.4930796,6.94096712 L76.6820204,4.88430174 L78.5568947,4.88430174 L78.5568947,11.1411992 L80.417235,11.1411992 L80.417235,3.47939652 L75.0106209,3.47939652 L74.7490106,6.81061509 C74.6811857,7.68928433 74.6157831,8.31207737 74.5528028,8.6789942 C74.4898225,9.04591103 74.3880852,9.31385687 74.2475907,9.48283172 C74.1070963,9.65180658 73.8769761,9.80388395 73.5572301,9.93906383 L73.5572301,9.93906383 L74.0223151,11.3150019 Z M85.7802473,11.3584526 C86.5263213,11.3584526 87.1706579,11.1894778 87.7132572,10.851528 C88.2558564,10.5135783 88.6724951,10.0380348 88.9631733,9.42489749 C89.2538515,8.81176015 89.3991906,8.10447969 89.3991906,7.30305609 C89.3991906,6.04781431 89.0818669,5.06051838 88.4472196,4.34116828 C87.8125722,3.62181818 86.9284261,3.26214313 85.7947812,3.26214313 C85.0487072,3.26214313 84.4019483,3.43111799 83.8545044,3.7690677 C83.3070605,4.10701741 82.8879995,4.580147 82.5973213,5.18845648 C82.3066431,5.79676596 82.161304,6.5016325 82.161304,7.30305609 C82.161304,8.56795358 82.48105,9.56007737 83.120542,10.2794275 C83.760034,10.9987776 84.6466024,11.3584526 85.7802473,11.3584526 Z M85.7802473,9.95354739 C85.2279588,9.95354739 84.8137424,9.73870793 84.5375981,9.30902901 C84.2614538,8.8793501 84.1233817,8.21069246 84.1233817,7.30305609 C84.1233817,5.5457176 84.6805149,4.66704836 85.7947812,4.66704836 C86.3373805,4.66704836 86.7467522,4.88188781 87.0228965,5.31156673 C87.2990408,5.74124565 87.4371129,6.40507544 87.4371129,7.30305609 C87.4371129,8.20103675 87.2990408,8.86728046 87.0228965,9.30178723 C86.7467522,9.736294 86.3325358,9.95354739 85.7802473,9.95354739 Z M93.0035999,11.1411992 L93.0035999,7.94033269 L95.6051696,7.94033269 L95.6051696,11.1411992 L97.4655099,11.1411992 L97.4655099,3.47939652 L95.6051696,3.47939652 L95.6051696,6.53542747 L93.0035999,6.53542747 L93.0035999,3.47939652 L91.1432596,3.47939652 L91.1432596,11.1411992 L93.0035999,11.1411992 Z M102.479708,11.1411992 C103.400189,11.1411992 104.155953,10.919118 104.746998,10.4749555 C105.338044,10.030793 105.633567,9.37903288 105.633567,8.51967505 C105.633567,7.66997292 105.357422,7.02062669 104.805134,6.57163636 C104.252845,6.12264603 103.375966,5.89815087 102.174496,5.89815087 L102.174496,5.89815087 L101.564072,5.89815087 L101.564072,3.47939652 L99.7037319,3.47939652 L99.7037319,11.1411992 L102.479708,11.1411992 Z M108.351408,11.1411992 L108.351408,3.47939652 L106.491067,3.47939652 L106.491067,11.1411992 L108.351408,11.1411992 Z M102.290768,9.85216248 L101.564072,9.85216248 L101.564072,7.1582205 L102.159962,7.1582205 C102.72194,7.1582205 103.1192,7.2668472 103.351743,7.48410058 C103.584285,7.70135397 103.700557,8.03688975 103.700557,8.49070793 C103.700557,9.39834429 103.230627,9.85216248 102.290768,9.85216248 L102.290768,9.85216248 Z M117.347897,11.3584526 C118.093971,11.3584526 118.738308,11.1894778 119.280907,10.851528 C119.823506,10.5135783 120.240145,10.0380348 120.530823,9.42489749 C120.821501,8.81176015 120.96684,8.10447969 120.96684,7.30305609 C120.96684,6.04781431 120.649517,5.06051838 120.014869,4.34116828 C119.380222,3.62181818 118.496076,3.26214313 117.362431,3.26214313 C116.616357,3.26214313 115.969598,3.43111799 115.422154,3.7690677 C114.87471,4.10701741 114.455649,4.580147 114.164971,5.18845648 C113.874293,5.79676596 113.728954,6.5016325 113.728954,7.30305609 C113.728954,8.56795358 114.0487,9.56007737 114.688192,10.2794275 C115.327684,10.9987776 116.214252,11.3584526 117.347897,11.3584526 Z M117.347897,9.95354739 C116.795609,9.95354739 116.381392,9.73870793 116.105248,9.30902901 C115.829104,8.8793501 115.691031,8.21069246 115.691031,7.30305609 C115.691031,5.5457176 116.248165,4.66704836 117.362431,4.66704836 C117.90503,4.66704836 118.314402,4.88188781 118.590546,5.31156673 C118.866691,5.74124565 119.004763,6.40507544 119.004763,7.30305609 C119.004763,8.20103675 118.866691,8.86728046 118.590546,9.30178723 C118.314402,9.736294 117.900186,9.95354739 117.347897,9.95354739 Z M125.792098,11.3584526 C126.499415,11.3584526 127.119528,11.2063752 127.652438,10.9022205 C128.185348,10.5980658 128.599565,10.1587311 128.895088,9.58421663 C129.19061,9.00970213 129.338372,8.32656093 129.338372,7.53479304 C129.338372,6.80095938 129.214834,6.16609671 128.967757,5.63020503 C128.720681,5.09431335 128.379134,4.68635977 127.943117,4.40634429 C127.507099,4.12632882 127.012946,3.98632108 126.460658,3.98632108 C125.423906,3.98632108 124.619696,4.42565571 124.048029,5.30432495 C124.106165,4.70567118 124.212747,4.23012766 124.367775,3.87769439 C124.522803,3.52526112 124.733545,3.25248743 125,3.05937331 C125.266455,2.86625919 125.622536,2.69728433 126.068242,2.55244874 C126.601152,2.37864603 127.056548,2.20725725 127.43443,2.0382824 C127.812311,1.86930754 128.170814,1.6737795 128.509939,1.45169826 L128.509939,1.45169826 L127.797777,0.206112186 C127.400517,0.447504836 127.032325,0.643032882 126.6932,0.792696325 C126.354076,0.942359768 125.888991,1.11374855 125.297945,1.30686267 C124.493736,1.56756673 123.868777,1.92724178 123.423071,2.38588781 C122.977364,2.84453385 122.664885,3.43111799 122.485634,4.14564023 C122.306382,4.86016248 122.216756,5.77262669 122.216756,6.88303288 C122.216756,8.38932302 122.538925,9.51179884 123.183261,10.2504603 C123.827598,10.9891219 124.69721,11.3584526 125.792098,11.3584526 Z M125.777564,9.95354739 C125.273722,9.95354739 124.881306,9.74836364 124.600318,9.33799613 C124.319329,8.92762863 124.178834,8.32656093 124.178834,7.53479304 L124.178834,7.53479304 L124.178834,6.56439458 C124.391998,6.16851064 124.656031,5.87401161 124.970932,5.68089749 C125.285834,5.48778337 125.622536,5.39122631 125.981039,5.39122631 C126.446124,5.39122631 126.794938,5.55778723 127.02748,5.89090909 C127.260023,6.22403095 127.376294,6.79130368 127.376294,7.59272727 C127.376294,8.46174081 127.233377,9.07246422 126.947544,9.42489749 C126.66171,9.77733075 126.271717,9.95354739 125.777564,9.95354739 Z M130.806297,14.2986151 C131.901184,14.2117137 132.76353,13.9051451 133.393332,13.3789091 C134.023135,12.8526731 134.493065,12.1164255 134.803121,11.1701663 L134.803121,11.1701663 L137.302954,3.47939652 L135.384478,3.47939652 L133.640409,9.91009671 L131.969009,3.47939652 L129.992398,3.47939652 L132.434094,11.1411992 L133.073586,11.1411992 C132.918558,11.5274275 132.748996,11.8364101 132.564899,12.068147 C132.380803,12.2998839 132.136149,12.4857563 131.830937,12.625764 C131.525725,12.7657718 131.121198,12.8743985 130.617356,12.9516441 L130.617356,12.9516441 L130.806297,14.2986151 Z M141.474186,11.1411992 C142.501248,11.1411992 143.31757,10.9480851 143.923149,10.5618569 C144.528729,10.1756286 144.831518,9.58663056 144.831518,8.79486267 C144.831518,7.7134236 144.172648,7.10028627 142.854907,6.95545068 C143.378128,6.85889362 143.775388,6.6754352 144.046687,6.40507544 C144.317987,6.13471567 144.453637,5.7822824 144.453637,5.34777563 C144.453637,4.67187621 144.167803,4.15529594 143.596136,3.79803482 C143.024469,3.44077369 142.239638,3.26214313 141.241643,3.26214313 C140.408366,3.26214313 139.473351,3.36352805 138.436599,3.56629787 L138.436599,3.56629787 L138.436599,11.1411992 L141.474186,11.1411992 Z M141.401516,6.53542747 L140.296939,6.53542747 L140.296939,4.59463056 C140.655442,4.54635203 140.965499,4.52221277 141.227109,4.52221277 C142.14759,4.52221277 142.60783,4.85050677 142.60783,5.50709478 C142.60783,6.1926499 142.205726,6.53542747 141.401516,6.53542747 L141.401516,6.53542747 Z M141.430584,9.85216248 L140.296939,9.85216248 L140.296939,7.63617795 L141.459652,7.63617795 C141.973183,7.63617795 142.341375,7.72066538 142.564229,7.88964023 C142.787082,8.05861509 142.898509,8.32173308 142.898509,8.6789942 C142.898509,9.46110638 142.4092,9.85216248 141.430584,9.85216248 L141.430584,9.85216248 Z M148.566733,11.1411992 L151.429913,5.36225919 C151.371777,5.61330754 151.318486,5.98746615 151.27004,6.48473501 C151.221594,6.98200387 151.19737,7.51065377 151.19737,8.07068472 L151.19737,8.07068472 L151.19737,11.1411992 L152.985041,11.1411992 L152.985041,3.47939652 L150.964828,3.47939652 L148.130716,9.243853 C148.188851,9.02177176 148.244565,8.65002708 148.297856,8.12861896 C148.351147,7.60721083 148.377792,7.08097485 148.377792,6.54991103 L148.377792,6.54991103 L148.377792,3.47939652 L146.575588,3.47939652 L146.575588,11.1411992 L148.566733,11.1411992 Z" id="Салоныобуви" fill-rule="nonzero"></path>
                        <g id="Shape-2" transform="translate(0.000000, 2.228240)">
                            <path d="M13.296661,28.6707953 L13.2501096,28.731153 L15.7250299,31.8270164 C14.4906569,32.4839012 13.1804817,33.0626538 11.8253899,33.5328578 C17.5930656,32.0431703 22.6104736,31.80971 26.4586105,33.5328578 C25.9563738,31.9701857 25.0483135,28.046199 27.5978066,25.6642947 C28.733294,24.4150945 29.3212229,23.7806713 30.2119826,23.1916237 C30.8575958,22.7644634 31.1142738,21.6808862 31.1142738,21.6808862 L27.5640161,22.7059775 L27.7486005,21.6247401 C27.7486005,21.6247401 31.0491788,20.5650283 32.8121547,19.4945538 C34.5747117,18.4245471 34.5722392,17.5187598 34.5722392,17.5187598 L29.4382331,18.9153332 L29.8189267,17.5945521 C29.8189267,17.5945521 34.7947214,16.4744827 36.6335063,15.280485 C37.6186119,14.6404464 39.5150744,12.5313101 39.0235518,13.0960243 C38.5324413,13.6607385 30.209098,15.8859031 30.209098,15.8859031 L30.3380585,15.1293683 C30.3380585,15.1293683 35.7308031,13.6242462 37.8744658,12.6375114 C40.0177231,11.6512523 42.4226034,9.71335445 43.9153027,7.91067076 C45.4079952,6.10798707 45.9946945,5.56432288 47.2204138,3.59086864 C48.445721,1.61741441 47.9912787,0 47.9912787,0 C44.3223626,4.76287271 40.1977679,7.68047841 34.9183249,9.71522624 C31.5798421,11.0018547 27.7588958,11.8019087 25.1583184,14.7199823 C23.7916951,16.2527134 24.1369566,18.5681767 24.7047003,20.4270065 C25.4252984,22.785989 23.6273025,25.8813845 20.4795786,28.5987466 L18.0895332,24.9933715 C19.9443824,23.1598109 21.6014675,21.0118425 23.1893367,18.6706421 C23.2977,18.5358959 23.2779202,18.3155305 23.1456699,18.1775087 C23.0130006,18.0404227 22.8177089,18.0385509 22.7089403,18.1732971 C19.9769299,21.086231 17.5510403,23.6421815 14.6554616,25.5487344 C13.2645256,26.464341 11.7755351,27.0365424 9.99484655,27.7210284 C8.10992227,28.4457581 6.18214853,28.8139646 4.28485512,29.3613647 C3.48350307,29.5924929 2.60552456,29.8329724 1.8494877,30.2825943 C1.232308,30.6498726 0.437549209,31.303474 0.362557561,32.1596742 L0.362145482,32.1606101 L0.362557561,32.1606101 C0.311885338,32.739823 0.433016338,32.9887256 0.911352394,33.5548437 C2.72953336,33.7583706 4.98980093,33.9389604 8.03905817,33.8088937 C5.54023732,32.2925485 8.13711274,30.8445008 10.5003798,29.9686545 C11.4842492,29.6046596 12.4133255,29.1690762 13.296661,28.6707953 Z M0.370799144,35.1488607 C0.138427044,35.1016132 -0.0354365738,34.918676 0.00617666348,34.6543311 C0.0477899007,34.3904541 0.260794281,34.3170015 0.49357846,34.3642566 C10.027394,36.0176877 17.4439133,31.2290855 25.7849759,33.9806002 C26.8162276,34.321213 26.4820922,35.8707826 25.2571971,35.5166069 C15.8181395,32.7894179 9.57872093,37.039979 0.370799144,35.1488607 Z M16.2820595,26.6224846 L18.8748141,29.8661968 C18.4327275,30.1857443 17.9721109,30.4973444 17.4962405,30.7977137 L15.3035472,27.3776156 C15.6360343,27.1352642 15.9619281,26.883086 16.2820595,26.6224846 Z M28.8107514,25.5562139 C28.9269375,25.5389075 31.6902591,22.8449352 31.6902591,22.8449352 L34.9863044,21.8975081 C34.9863044,21.8975081 35.0921953,22.6067954 33.7659422,23.5158584 C32.440108,24.4249214 28.8107514,25.5562139 28.8107514,25.5562139 Z M32.0297515,21.0759361 C32.0511796,20.9514848 33.2735955,19.7621743 34.5664701,19.4894063 C35.8189677,19.2250614 39.8137777,17.7278944 39.9794065,17.4214418 C40.1454474,17.1145213 39.1162561,19.1614281 37.6144911,19.7738654 C36.1127329,20.3872386 31.946525,21.7861593 31.946525,21.7861593 L32.0297515,21.0759361 Z M35.9895415,16.4581045 L35.2648226,18.271083 C35.2648226,18.271083 39.4817027,16.7973058 41.4144214,15.2070324 C42.7143014,14.1379617 43.9560918,11.8210869 43.9560918,11.8210869 L40.2315584,14.174922 L35.9895415,16.4581045 Z M46.8220008,5.20407151 C46.8220008,5.20407151 45.3964637,7.80633357 43.6021766,9.47006721 C42.4024116,10.5821815 40.2278497,12.2014677 40.2278497,12.2014677 L40.0951805,13.2012897 C40.0951805,13.2012897 44.1040012,10.605111 44.9547892,9.51030312 C46.4062873,7.64258225 46.8220008,5.20407151 46.8220008,5.20407151 Z" id="Shape"></path>
                        </g>
                    </g>
                </g>
            </g>
        </g>
    </g>
</svg>