<?xml version="1.0" encoding="UTF-8"?>
<svg width="16px" height="16px" viewBox="0 0 16 16" version="1.1" xmlns="http://www.w3.org/2000/svg" xmlns:xlink="http://www.w3.org/1999/xlink">
    <!-- Generator: Sketch 61.2 (89653) - https://sketch.com -->
    <title>Group 6 Copy 10</title>
    <desc>Created with Sketch.</desc>
    <g id="Page-1" stroke="none" stroke-width="1" fill="none" fill-rule="evenodd">
        <g id="PowerIM_Аудит" transform="translate(-768.000000, -1066.000000)">
            <g id="Group-21" transform="translate(72.000000, 208.000000)">
                <g id="Group-6" transform="translate(40.000000, 544.000000)">
                    <g id="Group-5" transform="translate(656.000000, 21.000000)">
                        <g id="Group-6-Copy-10" transform="translate(0.000000, 293.000000)">
                            <circle id="Oval" fill="#FB5D43" cx="8" cy="8" r="8"></circle>
                            <path d="M10.942701,5.4094171 C11.0190997,5.4858158 11.0190997,5.60968258 10.942701,5.68608129 L8.62871938,7.99930834 L10.942701,10.3139187 C11.0190997,10.3903174 11.0190997,10.5141842 10.942701,10.5905829 L10.5905829,10.942701 C10.5141842,11.0190997 10.3903174,11.0190997 10.3139187,10.942701 L8,8.62802772 L5.68608129,10.942701 C5.60968258,11.0190997 5.4858158,11.0190997 5.4094171,10.942701 L5.05729903,10.5905829 C4.98090032,10.5141842 4.98090032,10.3903174 5.05729903,10.3139187 L7.37128062,7.99930834 L5.05729903,5.68608129 C4.98090032,5.60968258 4.98090032,5.4858158 5.05729903,5.4094171 L5.4094171,5.05729903 C5.4858158,4.98090032 5.60968258,4.98090032 5.68608129,5.05729903 L8,7.37058896 L10.3139187,5.05729903 C10.3903174,4.98090032 10.5141842,4.98090032 10.5905829,5.05729903 L10.942701,5.4094171 Z" id="Path" fill="#F5F5F7"></path>
                        </g>
                    </g>
                </g>
            </g>
        </g>
    </g>
</svg>