<?xml version="1.0" encoding="UTF-8"?>
<svg width="16px" height="16px" viewBox="0 0 16 16" version="1.1" xmlns="http://www.w3.org/2000/svg" xmlns:xlink="http://www.w3.org/1999/xlink">
    <!-- Generator: Sketch 61.2 (89653) - https://sketch.com -->
    <title>robot</title>
    <desc>Created with Sketch.</desc>
    <g id="Page-1" stroke="none" stroke-width="1" fill="none" fill-rule="evenodd">
        <g id="PowerIM_Личный-кабинет-5" transform="translate(-1040.000000, -40.000000)" fill="#7E8289" fill-rule="nonzero">
            <g id="Group-19" transform="translate(72.000000, 32.000000)">
                <g id="Group-3" transform="translate(180.000000, 0.000000)">
                    <g id="Group-2" transform="translate(778.000000, 0.000000)">
                        <g id="Group">
                            <g id="Group-10">
                                <g id="Group-8">
                                    <g id="robot" transform="translate(10.000000, 8.000000)">
                                        <path d="M15.4272076,6.77073171 L14.6252983,6.77073171 L14.6252983,4.17560976 C14.6062053,3.86341463 14.3579952,3.6097561 14.052506,3.5902439 L8.57279236,3.5902439 L8.57279236,0 L7.42720764,0 L7.42720764,3.5902439 L1.94749403,3.5902439 C1.64200477,3.6097561 1.39379475,3.86341463 1.37470167,4.17560976 L1.37470167,6.77073171 L0.572792363,6.77073171 C0.248210024,6.77073171 0,7.02439024 0,7.35609756 L0,11.2195122 C0,11.5512195 0.248210024,11.804878 0.572792363,11.804878 L1.37470167,11.804878 L1.37470167,15.4146341 C1.39379475,15.7268293 1.64200477,15.9804878 1.94749403,16 L14.052506,16 C14.3579952,15.9804878 14.6062053,15.7268293 14.6252983,15.4146341 L14.6252983,11.804878 L15.4272076,11.804878 C15.75179,11.804878 16,11.5512195 16,11.2195122 L16,7.35609756 C16,7.02439024 15.75179,6.77073171 15.4272076,6.77073171 Z M3.74224344,8.15609756 C3.74224344,7.2195122 4.48687351,6.45853659 5.40334129,6.45853659 C6.31980907,6.45853659 7.06443914,7.2195122 7.06443914,8.15609756 C7.06443914,9.09268293 6.31980907,9.85365854 5.40334129,9.85365854 C4.48687351,9.85365854 3.74224344,9.09268293 3.74224344,8.15609756 Z M10.5202864,13.2487805 L5.4797136,13.2487805 L5.4797136,12.0780488 L10.5202864,12.0780488 L10.5202864,13.2487805 L10.5202864,13.2487805 Z M12.2577566,8.15609756 C12.2577566,9.09268293 11.5131265,9.85365854 10.5966587,9.85365854 C9.66109785,9.85365854 8.91646778,9.09268293 8.8973747,8.15609756 C8.8973747,7.2 9.64200477,6.43902439 10.5584726,6.4195122 C11.4749403,6.4 12.2386635,7.1804878 12.2577566,8.11707317 C12.2577566,8.13658537 12.2577566,8.13658537 12.2577566,8.15609756 Z" id="Shape"></path>
                                    </g>
                                </g>
                            </g>
                        </g>
                    </g>
                </g>
            </g>
        </g>
    </g>
</svg>