<?xml version="1.0" encoding="UTF-8"?>
<svg width="143px" height="32px" viewBox="0 0 143 32" version="1.1" xmlns="http://www.w3.org/2000/svg" xmlns:xlink="http://www.w3.org/1999/xlink">
    <!-- Generator: Sketch 61.2 (89653) - https://sketch.com -->
    <title>Group 11</title>
    <desc>Created with Sketch.</desc>
    <defs>
        <polygon id="path-1" points="0 0 139 0 135 12 139 24 0 24"></polygon>
        <filter x="-5.8%" y="-16.7%" width="111.5%" height="166.7%" filterUnits="objectBoundingBox" id="filter-2">
            <feOffset dx="0" dy="4" in="SourceAlpha" result="shadowOffsetOuter1"></feOffset>
            <feGaussianBlur stdDeviation="2" in="shadowOffsetOuter1" result="shadowBlurOuter1"></feGaussianBlur>
            <feColorMatrix values="0 0 0 0 0.200028365   0 0 0 0 0.119606725   0 0 0 0 0.543648098  0 0 0 0.397071678 0" type="matrix" in="shadowBlurOuter1"></feColorMatrix>
        </filter>
    </defs>
    <g id="Page-1" stroke="none" stroke-width="1" fill="none" fill-rule="evenodd">
        <g id="PowerIM_M_Стартовая" transform="translate(-177.000000, -62.000000)">
            <g id="Group-11" transform="translate(181.000000, 62.000000)">
                <g id="Rectangle" transform="translate(69.500000, 12.000000) scale(-1, 1) translate(-69.500000, -12.000000) ">
                    <use fill="black" fill-opacity="1" filter="url(#filter-2)" xlink:href="#path-1"></use>
                    <use fill="#FBE486" fill-rule="evenodd" xlink:href="#path-1"></use>
                </g>
                <g id="Одобрено-Яндекс" transform="translate(20.660000, 7.000000)" fill-rule="nonzero">
                    <path d="M3.612,9.144 C4.156,9.144 4.65,9.05 5.094,8.862 C5.538,8.674 5.918,8.398 6.234,8.034 C6.55,7.67 6.794,7.218 6.966,6.678 C7.138,6.138 7.224,5.516 7.224,4.812 C7.224,4.108 7.138,3.486 6.966,2.946 C6.794,2.406 6.55,1.954 6.234,1.59 C5.918,1.226 5.538,0.95 5.094,0.762 C4.65,0.574 4.156,0.48 3.612,0.48 C3.068,0.48 2.574,0.574 2.13,0.762 C1.686,0.95 1.306,1.226 0.99,1.59 C0.674,1.954 0.43,2.406 0.258,2.946 C0.086,3.486 -6.96331881e-13,4.108 -6.96331881e-13,4.812 C-6.96331881e-13,5.516 0.086,6.138 0.258,6.678 C0.43,7.218 0.674,7.67 0.99,8.034 C1.306,8.398 1.686,8.674 2.13,8.862 C2.574,9.05 3.068,9.144 3.612,9.144 Z M3.612,7.932 C3.284,7.932 2.988,7.876 2.724,7.764 C2.46,7.652 2.234,7.49 2.046,7.278 C1.858,7.066 1.712,6.808 1.608,6.504 C1.504,6.2 1.452,5.856 1.452,5.472 L1.452,5.472 L1.452,4.152 C1.452,3.768 1.504,3.424 1.608,3.12 C1.712,2.816 1.858,2.558 2.046,2.346 C2.234,2.134 2.46,1.972 2.724,1.86 C2.988,1.748 3.284,1.692 3.612,1.692 C3.932,1.692 4.226,1.748 4.494,1.86 C4.762,1.972 4.99,2.134 5.178,2.346 C5.366,2.558 5.512,2.816 5.616,3.12 C5.72,3.424 5.772,3.768 5.772,4.152 L5.772,4.152 L5.772,5.472 C5.772,5.856 5.72,6.2 5.616,6.504 C5.512,6.808 5.366,7.066 5.178,7.278 C4.99,7.49 4.762,7.652 4.494,7.764 C4.226,7.876 3.932,7.932 3.612,7.932 Z M9.18,10.68 L9.18,9 L13.92,9 L13.92,10.68 L15.108,10.68 L15.108,7.932 L14.052,7.932 L14.052,2.76 L9.492,2.76 L9.492,4.548 C9.492,5.348 9.426,6.022 9.294,6.57 C9.162,7.118 8.98,7.572 8.748,7.932 L8.748,7.932 L7.992,7.932 L7.992,10.68 L9.18,10.68 Z M12.744,7.932 L10.14,7.932 C10.3,7.628 10.44,7.21 10.56,6.678 C10.68,6.146 10.74,5.46 10.74,4.62 L10.74,4.62 L10.74,3.828 L12.744,3.828 L12.744,7.932 Z M18.744,9.144 C19.176,9.144 19.57,9.068 19.926,8.916 C20.282,8.764 20.584,8.546 20.832,8.262 C21.08,7.978 21.272,7.634 21.408,7.23 C21.544,6.826 21.612,6.376 21.612,5.88 C21.612,5.384 21.544,4.934 21.408,4.53 C21.272,4.126 21.08,3.782 20.832,3.498 C20.584,3.214 20.282,2.996 19.926,2.844 C19.57,2.692 19.176,2.616 18.744,2.616 C18.312,2.616 17.918,2.692 17.562,2.844 C17.206,2.996 16.904,3.214 16.656,3.498 C16.408,3.782 16.216,4.126 16.08,4.53 C15.944,4.934 15.876,5.384 15.876,5.88 C15.876,6.376 15.944,6.826 16.08,7.23 C16.216,7.634 16.408,7.978 16.656,8.262 C16.904,8.546 17.206,8.764 17.562,8.916 C17.918,9.068 18.312,9.144 18.744,9.144 Z M18.744,8.064 C18.296,8.064 17.936,7.926 17.664,7.65 C17.392,7.374 17.256,6.96 17.256,6.408 L17.256,6.408 L17.256,5.352 C17.256,4.8 17.392,4.386 17.664,4.11 C17.936,3.834 18.296,3.696 18.744,3.696 C19.192,3.696 19.552,3.834 19.824,4.11 C20.096,4.386 20.232,4.8 20.232,5.352 L20.232,5.352 L20.232,6.408 C20.232,6.96 20.096,7.374 19.824,7.65 C19.552,7.926 19.192,8.064 18.744,8.064 Z M25.56,9.144 C25.992,9.144 26.384,9.068 26.736,8.916 C27.088,8.764 27.388,8.548 27.636,8.268 C27.884,7.988 28.076,7.65 28.212,7.254 C28.348,6.858 28.416,6.416 28.416,5.928 C28.416,5.44 28.354,5.006 28.23,4.626 C28.106,4.246 27.932,3.924 27.708,3.66 C27.484,3.396 27.218,3.194 26.91,3.054 C26.602,2.914 26.264,2.844 25.896,2.844 C25.424,2.844 25.05,2.948 24.774,3.156 C24.498,3.364 24.28,3.676 24.12,4.092 L24.12,4.092 L24.06,4.092 C24.092,3.612 24.144,3.21 24.216,2.886 C24.288,2.562 24.394,2.302 24.534,2.106 C24.674,1.91 24.854,1.764 25.074,1.668 C25.294,1.572 25.568,1.508 25.896,1.476 L25.896,1.476 L27.96,1.284 L27.96,-1.0658141e-14 L25.968,0.18 C25.392,0.228 24.898,0.36 24.486,0.576 C24.074,0.792 23.734,1.102 23.466,1.506 C23.198,1.91 23.002,2.418 22.878,3.03 C22.754,3.642 22.692,4.372 22.692,5.22 C22.692,5.916 22.758,6.51 22.89,7.002 C23.022,7.494 23.212,7.9 23.46,8.22 C23.708,8.54 24.008,8.774 24.36,8.922 C24.712,9.07 25.112,9.144 25.56,9.144 Z M25.56,8.064 C25.104,8.064 24.744,7.922 24.48,7.638 C24.216,7.354 24.084,6.936 24.084,6.384 L24.084,6.384 L24.084,5.34 C24.084,4.908 24.21,4.564 24.462,4.308 C24.714,4.052 25.08,3.924 25.56,3.924 C26.016,3.924 26.376,4.066 26.64,4.35 C26.904,4.634 27.036,5.052 27.036,5.604 L27.036,5.604 L27.036,6.384 C27.036,6.936 26.904,7.354 26.64,7.638 C26.376,7.922 26.016,8.064 25.56,8.064 Z M31.176,11.4 L31.176,7.968 L31.236,7.968 C31.372,8.336 31.594,8.624 31.902,8.832 C32.21,9.04 32.572,9.144 32.988,9.144 C33.78,9.144 34.392,8.858 34.824,8.286 C35.256,7.714 35.472,6.912 35.472,5.88 C35.472,4.848 35.256,4.046 34.824,3.474 C34.392,2.902 33.78,2.616 32.988,2.616 C32.572,2.616 32.21,2.718 31.902,2.922 C31.594,3.126 31.372,3.416 31.236,3.792 L31.236,3.792 L31.176,3.792 L31.176,2.76 L29.868,2.76 L29.868,11.4 L31.176,11.4 Z M32.592,8.016 C32.192,8.016 31.856,7.918 31.584,7.722 C31.312,7.526 31.176,7.268 31.176,6.948 L31.176,6.948 L31.176,4.812 C31.176,4.492 31.312,4.234 31.584,4.038 C31.856,3.842 32.192,3.744 32.592,3.744 C33.048,3.744 33.412,3.89 33.684,4.182 C33.956,4.474 34.092,4.86 34.092,5.34 L34.092,5.34 L34.092,6.42 C34.092,6.9 33.956,7.286 33.684,7.578 C33.412,7.87 33.048,8.016 32.592,8.016 Z M39.42,9.144 C40.004,9.144 40.516,9.03 40.956,8.802 C41.396,8.574 41.732,8.268 41.964,7.884 L41.964,7.884 L41.196,7.128 C41.012,7.416 40.788,7.644 40.524,7.812 C40.26,7.98 39.936,8.064 39.552,8.064 C39.024,8.064 38.618,7.91 38.334,7.602 C38.05,7.294 37.908,6.9 37.908,6.42 L37.908,6.42 L37.908,6.216 L42.192,6.216 L42.192,5.724 C42.192,5.292 42.134,4.888 42.018,4.512 C41.902,4.136 41.728,3.806 41.496,3.522 C41.264,3.238 40.974,3.016 40.626,2.856 C40.278,2.696 39.876,2.616 39.42,2.616 C38.972,2.616 38.572,2.692 38.22,2.844 C37.868,2.996 37.568,3.214 37.32,3.498 C37.072,3.782 36.882,4.126 36.75,4.53 C36.618,4.934 36.552,5.384 36.552,5.88 C36.552,6.376 36.618,6.826 36.75,7.23 C36.882,7.634 37.072,7.978 37.32,8.262 C37.568,8.546 37.868,8.764 38.22,8.916 C38.572,9.068 38.972,9.144 39.42,9.144 Z M40.812,5.352 L37.908,5.352 L37.908,5.268 C37.908,5.028 37.944,4.808 38.016,4.608 C38.088,4.408 38.19,4.236 38.322,4.092 C38.454,3.948 38.614,3.836 38.802,3.756 C38.99,3.676 39.196,3.636 39.42,3.636 C39.852,3.636 40.192,3.782 40.44,4.074 C40.688,4.366 40.812,4.752 40.812,5.232 L40.812,5.232 L40.812,5.352 Z M44.952,9 L44.952,6.336 L47.64,6.336 L47.64,9 L48.948,9 L48.948,2.76 L47.64,2.76 L47.64,5.268 L44.952,5.268 L44.952,2.76 L43.644,2.76 L43.644,9 L44.952,9 Z M53.268,9.144 C53.7,9.144 54.094,9.068 54.45,8.916 C54.806,8.764 55.108,8.546 55.356,8.262 C55.604,7.978 55.796,7.634 55.932,7.23 C56.068,6.826 56.136,6.376 56.136,5.88 C56.136,5.384 56.068,4.934 55.932,4.53 C55.796,4.126 55.604,3.782 55.356,3.498 C55.108,3.214 54.806,2.996 54.45,2.844 C54.094,2.692 53.7,2.616 53.268,2.616 C52.836,2.616 52.442,2.692 52.086,2.844 C51.73,2.996 51.428,3.214 51.18,3.498 C50.932,3.782 50.74,4.126 50.604,4.53 C50.468,4.934 50.4,5.384 50.4,5.88 C50.4,6.376 50.468,6.826 50.604,7.23 C50.74,7.634 50.932,7.978 51.18,8.262 C51.428,8.546 51.73,8.764 52.086,8.916 C52.442,9.068 52.836,9.144 53.268,9.144 Z M53.268,8.064 C52.82,8.064 52.46,7.926 52.188,7.65 C51.916,7.374 51.78,6.96 51.78,6.408 L51.78,6.408 L51.78,5.352 C51.78,4.8 51.916,4.386 52.188,4.11 C52.46,3.834 52.82,3.696 53.268,3.696 C53.716,3.696 54.076,3.834 54.348,4.11 C54.62,4.386 54.756,4.8 54.756,5.352 L54.756,5.352 L54.756,6.408 C54.756,6.96 54.62,7.374 54.348,7.65 C54.076,7.926 53.716,8.064 53.268,8.064 Z" id="Одобрено" fill="#342B06"></path>
                    <path d="M60.792,9 C61.056,9 61.28,8.942 61.464,8.826 C61.648,8.71 61.836,8.484 62.028,8.148 L62.028,8.148 L63.444,5.628 L64.968,5.628 L64.968,9 L66.324,9 L66.324,0.624 L62.712,0.624 C61.952,0.624 61.358,0.846 60.93,1.29 C60.502,1.734 60.288,2.348 60.288,3.132 C60.288,3.804 60.466,4.346 60.822,4.758 C61.178,5.17 61.708,5.396 62.412,5.436 L62.412,5.436 L62.412,5.496 C62.204,5.544 62.044,5.62 61.932,5.724 C61.82,5.828 61.708,5.984 61.596,6.192 L61.596,6.192 L60.708,7.8 L59.976,7.8 L59.976,9 L60.792,9 Z M64.968,4.476 L62.82,4.476 C62.476,4.476 62.206,4.386 62.01,4.206 C61.814,4.026 61.716,3.768 61.716,3.432 L61.716,3.432 L61.716,2.856 C61.716,2.52 61.814,2.262 62.01,2.082 C62.206,1.902 62.476,1.812 62.82,1.812 L62.82,1.812 L64.968,1.812 L64.968,4.476 Z" id="Я" fill="#FF5541"></path>
                    <path d="M69.6,9 L69.6,6.336 L72.288,6.336 L72.288,9 L73.596,9 L73.596,2.76 L72.288,2.76 L72.288,5.268 L69.6,5.268 L69.6,2.76 L68.292,2.76 L68.292,9 L69.6,9 Z M75.828,10.68 L75.828,9 L80.568,9 L80.568,10.68 L81.756,10.68 L81.756,7.932 L80.7,7.932 L80.7,2.76 L76.14,2.76 L76.14,4.548 C76.14,5.348 76.074,6.022 75.942,6.57 C75.81,7.118 75.628,7.572 75.396,7.932 L75.396,7.932 L74.64,7.932 L74.64,10.68 L75.828,10.68 Z M79.392,7.932 L76.788,7.932 C76.948,7.628 77.088,7.21 77.208,6.678 C77.328,6.146 77.388,5.46 77.388,4.62 L77.388,4.62 L77.388,3.828 L79.392,3.828 L79.392,7.932 Z M85.392,9.144 C85.976,9.144 86.488,9.03 86.928,8.802 C87.368,8.574 87.704,8.268 87.936,7.884 L87.936,7.884 L87.168,7.128 C86.984,7.416 86.76,7.644 86.496,7.812 C86.232,7.98 85.908,8.064 85.524,8.064 C84.996,8.064 84.59,7.91 84.306,7.602 C84.022,7.294 83.88,6.9 83.88,6.42 L83.88,6.42 L83.88,6.216 L88.164,6.216 L88.164,5.724 C88.164,5.292 88.106,4.888 87.99,4.512 C87.874,4.136 87.7,3.806 87.468,3.522 C87.236,3.238 86.946,3.016 86.598,2.856 C86.25,2.696 85.848,2.616 85.392,2.616 C84.944,2.616 84.544,2.692 84.192,2.844 C83.84,2.996 83.54,3.214 83.292,3.498 C83.044,3.782 82.854,4.126 82.722,4.53 C82.59,4.934 82.524,5.384 82.524,5.88 C82.524,6.376 82.59,6.826 82.722,7.23 C82.854,7.634 83.044,7.978 83.292,8.262 C83.54,8.546 83.84,8.764 84.192,8.916 C84.544,9.068 84.944,9.144 85.392,9.144 Z M86.784,5.352 L83.88,5.352 L83.88,5.268 C83.88,5.028 83.916,4.808 83.988,4.608 C84.06,4.408 84.162,4.236 84.294,4.092 C84.426,3.948 84.586,3.836 84.774,3.756 C84.962,3.676 85.168,3.636 85.392,3.636 C85.824,3.636 86.164,3.782 86.412,4.074 C86.66,4.366 86.784,4.752 86.784,5.232 L86.784,5.232 L86.784,5.352 Z M90.924,9 L90.924,6.336 L92.028,6.336 L93.06,8.184 C93.228,8.488 93.406,8.7 93.594,8.82 C93.782,8.94 94.008,9 94.272,9 L94.272,9 L95.016,9 L95.016,7.932 L94.332,7.932 L93.492,6.42 C93.38,6.212 93.264,6.066 93.144,5.982 C93.024,5.898 92.884,5.84 92.724,5.808 L92.724,5.808 L92.724,5.76 C92.876,5.72 92.998,5.66 93.09,5.58 C93.182,5.5 93.288,5.356 93.408,5.148 L93.408,5.148 L94.2,3.828 L94.896,3.828 L94.896,2.76 L94.26,2.76 C93.988,2.76 93.764,2.816 93.588,2.928 C93.412,3.04 93.236,3.244 93.06,3.54 L93.06,3.54 L92.028,5.28 L90.924,5.28 L90.924,2.76 L89.616,2.76 L89.616,9 L90.924,9 Z M98.844,9.144 C99.444,9.144 99.952,9.008 100.368,8.736 C100.784,8.464 101.096,8.072 101.304,7.56 L101.304,7.56 L100.308,7.032 C100.172,7.344 99.99,7.594 99.762,7.782 C99.534,7.97 99.228,8.064 98.844,8.064 C98.364,8.064 98.002,7.914 97.758,7.614 C97.514,7.314 97.392,6.924 97.392,6.444 L97.392,6.444 L97.392,5.328 C97.392,4.848 97.514,4.458 97.758,4.158 C98.002,3.858 98.364,3.708 98.844,3.708 C99.204,3.708 99.494,3.794 99.714,3.966 C99.934,4.138 100.088,4.368 100.176,4.656 L100.176,4.656 L101.256,4.152 C101.072,3.688 100.78,3.316 100.38,3.036 C99.98,2.756 99.468,2.616 98.844,2.616 C98.396,2.616 97.996,2.692 97.644,2.844 C97.292,2.996 96.996,3.214 96.756,3.498 C96.516,3.782 96.332,4.126 96.204,4.53 C96.076,4.934 96.012,5.384 96.012,5.88 C96.012,6.376 96.076,6.826 96.204,7.23 C96.332,7.634 96.516,7.978 96.756,8.262 C96.996,8.546 97.292,8.764 97.644,8.916 C97.996,9.068 98.396,9.144 98.844,9.144 Z" id="ндекс" fill="#342B06"></path>
                </g>
            </g>
        </g>
    </g>
</svg>