<?xml version="1.0" encoding="UTF-8"?>
<svg width="124px" height="127px" viewBox="0 0 124 127" version="1.1" xmlns="http://www.w3.org/2000/svg" xmlns:xlink="http://www.w3.org/1999/xlink">
    <!-- Generator: Sketch 61.2 (89653) - https://sketch.com -->
    <title>Group 33</title>
    <desc>Created with Sketch.</desc>
    <defs>
        <rect id="path-1" x="0" y="0" width="128" height="128"></rect>
        <path d="M17.263456,0.292893219 L137.471609,120.501046 C137.862133,120.89157 137.862133,121.524735 137.471609,121.91526 L121.91526,137.471609 C121.524735,137.862133 120.89157,137.862133 120.501046,137.471609 L0.292893219,17.263456 C-0.0976310729,16.8729317 -0.0976310729,16.2397667 0.292893219,15.8492424 L15.8492424,0.292893219 C16.2397667,-0.0976310729 16.8729317,-0.0976310729 17.263456,0.292893219 Z" id="path-3"></path>
        <filter x="-5.8%" y="-2.9%" width="111.6%" height="111.6%" filterUnits="objectBoundingBox" id="filter-4">
            <feOffset dx="0" dy="4" in="SourceAlpha" result="shadowOffsetOuter1"></feOffset>
            <feGaussianBlur stdDeviation="2" in="shadowOffsetOuter1" result="shadowBlurOuter1"></feGaussianBlur>
            <feColorMatrix values="0 0 0 0 0.200028365   0 0 0 0 0.119606725   0 0 0 0 0.543648098  0 0 0 0.503496503 0" type="matrix" in="shadowBlurOuter1"></feColorMatrix>
        </filter>
    </defs>
    <g id="Page-1" stroke="none" stroke-width="1" fill="none" fill-rule="evenodd">
        <g id="Group-33" transform="translate(-4.000000, 0.000000)">
            <g id="Group-9-Copy">
                <mask id="mask-2" fill="white">
                    <use xlink:href="#path-1"></use>
                </mask>
                <g id="Mask"></g>
                <g id="Group-9" mask="url(#mask-2)">
                    <g transform="translate(8.000000, -18.000000)" id="Path">
                        <g>
                            <use fill="black" fill-opacity="1" filter="url(#filter-4)" xlink:href="#path-3"></use>
                            <use fill="#FBE486" fill-rule="evenodd" xlink:href="#path-3"></use>
                        </g>
                    </g>
                </g>
            </g>
            <g id="Одобрено-Яндекс" transform="translate(78.198358, 51.675144) rotate(-315.000000) translate(-78.198358, -51.675144) translate(18.698358, 44.675144)" fill-rule="nonzero">
                <path d="M4.214,10.668 C4.84866667,10.668 5.425,10.5583333 5.943,10.339 C6.461,10.1196667 6.90433333,9.79766667 7.273,9.373 C7.64166667,8.94833333 7.92633333,8.421 8.127,7.791 C8.32766667,7.161 8.428,6.43533333 8.428,5.614 C8.428,4.79266667 8.32766667,4.067 8.127,3.437 C7.92633333,2.807 7.64166667,2.27966667 7.273,1.855 C6.90433333,1.43033333 6.461,1.10833333 5.943,0.889 C5.425,0.669666667 4.84866667,0.56 4.214,0.56 C3.57933333,0.56 3.003,0.669666667 2.485,0.889 C1.967,1.10833333 1.52366667,1.43033333 1.155,1.855 C0.786333333,2.27966667 0.501666667,2.807 0.301,3.437 C0.100333333,4.067 -9.09494702e-13,4.79266667 -9.09494702e-13,5.614 C-9.09494702e-13,6.43533333 0.100333333,7.161 0.301,7.791 C0.501666667,8.421 0.786333333,8.94833333 1.155,9.373 C1.52366667,9.79766667 1.967,10.1196667 2.485,10.339 C3.003,10.5583333 3.57933333,10.668 4.214,10.668 Z M4.214,9.254 C3.83133333,9.254 3.486,9.18866667 3.178,9.058 C2.87,8.92733333 2.60633333,8.73833333 2.387,8.491 C2.16766667,8.24366667 1.99733333,7.94266667 1.876,7.588 C1.75466667,7.23333333 1.694,6.832 1.694,6.384 L1.694,6.384 L1.694,4.844 C1.694,4.396 1.75466667,3.99466667 1.876,3.64 C1.99733333,3.28533333 2.16766667,2.98433333 2.387,2.737 C2.60633333,2.48966667 2.87,2.30066667 3.178,2.17 C3.486,2.03933333 3.83133333,1.974 4.214,1.974 C4.58733333,1.974 4.93033333,2.03933333 5.243,2.17 C5.55566667,2.30066667 5.82166667,2.48966667 6.041,2.737 C6.26033333,2.98433333 6.43066667,3.28533333 6.552,3.64 C6.67333333,3.99466667 6.734,4.396 6.734,4.844 L6.734,4.844 L6.734,6.384 C6.734,6.832 6.67333333,7.23333333 6.552,7.588 C6.43066667,7.94266667 6.26033333,8.24366667 6.041,8.491 C5.82166667,8.73833333 5.55566667,8.92733333 5.243,9.058 C4.93033333,9.18866667 4.58733333,9.254 4.214,9.254 Z M10.71,12.46 L10.71,10.5 L16.24,10.5 L16.24,12.46 L17.626,12.46 L17.626,9.254 L16.394,9.254 L16.394,3.22 L11.074,3.22 L11.074,5.306 C11.074,6.23933333 10.997,7.02566667 10.843,7.665 C10.689,8.30433333 10.4766667,8.834 10.206,9.254 L10.206,9.254 L9.324,9.254 L9.324,12.46 L10.71,12.46 Z M14.868,9.254 L11.83,9.254 C12.0166667,8.89933333 12.18,8.41166667 12.32,7.791 C12.46,7.17033333 12.53,6.37 12.53,5.39 L12.53,5.39 L12.53,4.466 L14.868,4.466 L14.868,9.254 Z M21.868,10.668 C22.372,10.668 22.8316667,10.5793333 23.247,10.402 C23.6623333,10.2246667 24.0146667,9.97033333 24.304,9.639 C24.5933333,9.30766667 24.8173333,8.90633333 24.976,8.435 C25.1346667,7.96366667 25.214,7.43866667 25.214,6.86 C25.214,6.28133333 25.1346667,5.75633333 24.976,5.285 C24.8173333,4.81366667 24.5933333,4.41233333 24.304,4.081 C24.0146667,3.74966667 23.6623333,3.49533333 23.247,3.318 C22.8316667,3.14066667 22.372,3.052 21.868,3.052 C21.364,3.052 20.9043333,3.14066667 20.489,3.318 C20.0736667,3.49533333 19.7213333,3.74966667 19.432,4.081 C19.1426667,4.41233333 18.9186667,4.81366667 18.76,5.285 C18.6013333,5.75633333 18.522,6.28133333 18.522,6.86 C18.522,7.43866667 18.6013333,7.96366667 18.76,8.435 C18.9186667,8.90633333 19.1426667,9.30766667 19.432,9.639 C19.7213333,9.97033333 20.0736667,10.2246667 20.489,10.402 C20.9043333,10.5793333 21.364,10.668 21.868,10.668 Z M21.868,9.408 C21.3453333,9.408 20.9253333,9.247 20.608,8.925 C20.2906667,8.603 20.132,8.12 20.132,7.476 L20.132,7.476 L20.132,6.244 C20.132,5.6 20.2906667,5.117 20.608,4.795 C20.9253333,4.473 21.3453333,4.312 21.868,4.312 C22.3906667,4.312 22.8106667,4.473 23.128,4.795 C23.4453333,5.117 23.604,5.6 23.604,6.244 L23.604,6.244 L23.604,7.476 C23.604,8.12 23.4453333,8.603 23.128,8.925 C22.8106667,9.247 22.3906667,9.408 21.868,9.408 Z M29.82,10.668 C30.324,10.668 30.7813333,10.5793333 31.192,10.402 C31.6026667,10.2246667 31.9526667,9.97266667 32.242,9.646 C32.5313333,9.31933333 32.7553333,8.925 32.914,8.463 C33.0726667,8.001 33.152,7.48533333 33.152,6.916 C33.152,6.34666667 33.0796667,5.84033333 32.935,5.397 C32.7903333,4.95366667 32.5873333,4.578 32.326,4.27 C32.0646667,3.962 31.7543333,3.72633333 31.395,3.563 C31.0356667,3.39966667 30.6413333,3.318 30.212,3.318 C29.6613333,3.318 29.225,3.43933333 28.903,3.682 C28.581,3.92466667 28.3266667,4.28866667 28.14,4.774 L28.14,4.774 L28.07,4.774 C28.1073333,4.214 28.168,3.745 28.252,3.367 C28.336,2.989 28.4596667,2.68566667 28.623,2.457 C28.7863333,2.22833333 28.9963333,2.058 29.253,1.946 C29.5096667,1.834 29.8293333,1.75933333 30.212,1.722 L30.212,1.722 L32.62,1.498 L32.62,7.10542736e-15 L30.296,0.21 C29.624,0.266 29.0476667,0.42 28.567,0.672 C28.0863333,0.924 27.6896667,1.28566667 27.377,1.757 C27.0643333,2.22833333 26.8356667,2.821 26.691,3.535 C26.5463333,4.249 26.474,5.10066667 26.474,6.09 C26.474,6.902 26.551,7.595 26.705,8.169 C26.859,8.743 27.0806667,9.21666667 27.37,9.59 C27.6593333,9.96333333 28.0093333,10.2363333 28.42,10.409 C28.8306667,10.5816667 29.2973333,10.668 29.82,10.668 Z M29.82,9.408 C29.288,9.408 28.868,9.24233333 28.56,8.911 C28.252,8.57966667 28.098,8.092 28.098,7.448 L28.098,7.448 L28.098,6.23 C28.098,5.726 28.245,5.32466667 28.539,5.026 C28.833,4.72733333 29.26,4.578 29.82,4.578 C30.352,4.578 30.772,4.74366667 31.08,5.075 C31.388,5.40633333 31.542,5.894 31.542,6.538 L31.542,6.538 L31.542,7.448 C31.542,8.092 31.388,8.57966667 31.08,8.911 C30.772,9.24233333 30.352,9.408 29.82,9.408 Z M36.372,13.3 L36.372,9.296 L36.442,9.296 C36.6006667,9.72533333 36.8596667,10.0613333 37.219,10.304 C37.5783333,10.5466667 38.0006667,10.668 38.486,10.668 C39.41,10.668 40.124,10.3343333 40.628,9.667 C41.132,8.99966667 41.384,8.064 41.384,6.86 C41.384,5.656 41.132,4.72033333 40.628,4.053 C40.124,3.38566667 39.41,3.052 38.486,3.052 C38.0006667,3.052 37.5783333,3.171 37.219,3.409 C36.8596667,3.647 36.6006667,3.98533333 36.442,4.424 L36.442,4.424 L36.372,4.424 L36.372,3.22 L34.846,3.22 L34.846,13.3 L36.372,13.3 Z M38.024,9.352 C37.5573333,9.352 37.1653333,9.23766667 36.848,9.009 C36.5306667,8.78033333 36.372,8.47933333 36.372,8.106 L36.372,8.106 L36.372,5.614 C36.372,5.24066667 36.5306667,4.93966667 36.848,4.711 C37.1653333,4.48233333 37.5573333,4.368 38.024,4.368 C38.556,4.368 38.9806667,4.53833333 39.298,4.879 C39.6153333,5.21966667 39.774,5.67 39.774,6.23 L39.774,6.23 L39.774,7.49 C39.774,8.05 39.6153333,8.50033333 39.298,8.841 C38.9806667,9.18166667 38.556,9.352 38.024,9.352 Z M45.99,10.668 C46.6713333,10.668 47.2686667,10.535 47.782,10.269 C48.2953333,10.003 48.6873333,9.646 48.958,9.198 L48.958,9.198 L48.062,8.316 C47.8473333,8.652 47.586,8.918 47.278,9.114 C46.97,9.31 46.592,9.408 46.144,9.408 C45.528,9.408 45.0543333,9.22833333 44.723,8.869 C44.3916667,8.50966667 44.226,8.05 44.226,7.49 L44.226,7.49 L44.226,7.252 L49.224,7.252 L49.224,6.678 C49.224,6.174 49.1563333,5.70266667 49.021,5.264 C48.8856667,4.82533333 48.6826667,4.44033333 48.412,4.109 C48.1413333,3.77766667 47.803,3.51866667 47.397,3.332 C46.991,3.14533333 46.522,3.052 45.99,3.052 C45.4673333,3.052 45.0006667,3.14066667 44.59,3.318 C44.1793333,3.49533333 43.8293333,3.74966667 43.54,4.081 C43.2506667,4.41233333 43.029,4.81366667 42.875,5.285 C42.721,5.75633333 42.644,6.28133333 42.644,6.86 C42.644,7.43866667 42.721,7.96366667 42.875,8.435 C43.029,8.90633333 43.2506667,9.30766667 43.54,9.639 C43.8293333,9.97033333 44.1793333,10.2246667 44.59,10.402 C45.0006667,10.5793333 45.4673333,10.668 45.99,10.668 Z M47.614,6.244 L44.226,6.244 L44.226,6.146 C44.226,5.866 44.268,5.60933333 44.352,5.376 C44.436,5.14266667 44.555,4.942 44.709,4.774 C44.863,4.606 45.0496667,4.47533333 45.269,4.382 C45.4883333,4.28866667 45.7286667,4.242 45.99,4.242 C46.494,4.242 46.8906667,4.41233333 47.18,4.753 C47.4693333,5.09366667 47.614,5.544 47.614,6.104 L47.614,6.104 L47.614,6.244 Z M52.444,10.5 L52.444,7.392 L55.58,7.392 L55.58,10.5 L57.106,10.5 L57.106,3.22 L55.58,3.22 L55.58,6.146 L52.444,6.146 L52.444,3.22 L50.918,3.22 L50.918,10.5 L52.444,10.5 Z M62.146,10.668 C62.65,10.668 63.1096667,10.5793333 63.525,10.402 C63.9403333,10.2246667 64.2926667,9.97033333 64.582,9.639 C64.8713333,9.30766667 65.0953333,8.90633333 65.254,8.435 C65.4126667,7.96366667 65.492,7.43866667 65.492,6.86 C65.492,6.28133333 65.4126667,5.75633333 65.254,5.285 C65.0953333,4.81366667 64.8713333,4.41233333 64.582,4.081 C64.2926667,3.74966667 63.9403333,3.49533333 63.525,3.318 C63.1096667,3.14066667 62.65,3.052 62.146,3.052 C61.642,3.052 61.1823333,3.14066667 60.767,3.318 C60.3516667,3.49533333 59.9993333,3.74966667 59.71,4.081 C59.4206667,4.41233333 59.1966667,4.81366667 59.038,5.285 C58.8793333,5.75633333 58.8,6.28133333 58.8,6.86 C58.8,7.43866667 58.8793333,7.96366667 59.038,8.435 C59.1966667,8.90633333 59.4206667,9.30766667 59.71,9.639 C59.9993333,9.97033333 60.3516667,10.2246667 60.767,10.402 C61.1823333,10.5793333 61.642,10.668 62.146,10.668 Z M62.146,9.408 C61.6233333,9.408 61.2033333,9.247 60.886,8.925 C60.5686667,8.603 60.41,8.12 60.41,7.476 L60.41,7.476 L60.41,6.244 C60.41,5.6 60.5686667,5.117 60.886,4.795 C61.2033333,4.473 61.6233333,4.312 62.146,4.312 C62.6686667,4.312 63.0886667,4.473 63.406,4.795 C63.7233333,5.117 63.882,5.6 63.882,6.244 L63.882,6.244 L63.882,7.476 C63.882,8.12 63.7233333,8.603 63.406,8.925 C63.0886667,9.247 62.6686667,9.408 62.146,9.408 Z" id="Одобрено" fill="#342B06"></path>
                <path d="M70.924,10.5 C71.232,10.5 71.4933333,10.4323333 71.708,10.297 C71.9226667,10.1616667 72.142,9.898 72.366,9.506 L72.366,9.506 L74.018,6.566 L75.796,6.566 L75.796,10.5 L77.378,10.5 L77.378,0.728 L73.164,0.728 C72.2773333,0.728 71.5843333,0.987 71.085,1.505 C70.5856667,2.023 70.336,2.73933333 70.336,3.654 C70.336,4.438 70.5436667,5.07033333 70.959,5.551 C71.3743333,6.03166667 71.9926667,6.29533333 72.814,6.342 L72.814,6.342 L72.814,6.412 C72.5713333,6.468 72.3846667,6.55666667 72.254,6.678 C72.1233333,6.79933333 71.9926667,6.98133333 71.862,7.224 L71.862,7.224 L70.826,9.1 L69.972,9.1 L69.972,10.5 L70.924,10.5 Z M75.796,5.222 L73.29,5.222 C72.8886667,5.222 72.5736667,5.117 72.345,4.907 C72.1163333,4.697 72.002,4.396 72.002,4.004 L72.002,4.004 L72.002,3.332 C72.002,2.94 72.1163333,2.639 72.345,2.429 C72.5736667,2.219 72.8886667,2.114 73.29,2.114 L73.29,2.114 L75.796,2.114 L75.796,5.222 Z" id="Я" fill="#FF5541"></path>
                <path d="M81.2,10.5 L81.2,7.392 L84.336,7.392 L84.336,10.5 L85.862,10.5 L85.862,3.22 L84.336,3.22 L84.336,6.146 L81.2,6.146 L81.2,3.22 L79.674,3.22 L79.674,10.5 L81.2,10.5 Z M88.466,12.46 L88.466,10.5 L93.996,10.5 L93.996,12.46 L95.382,12.46 L95.382,9.254 L94.15,9.254 L94.15,3.22 L88.83,3.22 L88.83,5.306 C88.83,6.23933333 88.753,7.02566667 88.599,7.665 C88.445,8.30433333 88.2326667,8.834 87.962,9.254 L87.962,9.254 L87.08,9.254 L87.08,12.46 L88.466,12.46 Z M92.624,9.254 L89.586,9.254 C89.7726667,8.89933333 89.936,8.41166667 90.076,7.791 C90.216,7.17033333 90.286,6.37 90.286,5.39 L90.286,5.39 L90.286,4.466 L92.624,4.466 L92.624,9.254 Z M99.624,10.668 C100.305333,10.668 100.902667,10.535 101.416,10.269 C101.929333,10.003 102.321333,9.646 102.592,9.198 L102.592,9.198 L101.696,8.316 C101.481333,8.652 101.22,8.918 100.912,9.114 C100.604,9.31 100.226,9.408 99.778,9.408 C99.162,9.408 98.6883333,9.22833333 98.357,8.869 C98.0256667,8.50966667 97.86,8.05 97.86,7.49 L97.86,7.49 L97.86,7.252 L102.858,7.252 L102.858,6.678 C102.858,6.174 102.790333,5.70266667 102.655,5.264 C102.519667,4.82533333 102.316667,4.44033333 102.046,4.109 C101.775333,3.77766667 101.437,3.51866667 101.031,3.332 C100.625,3.14533333 100.156,3.052 99.624,3.052 C99.1013333,3.052 98.6346667,3.14066667 98.224,3.318 C97.8133333,3.49533333 97.4633333,3.74966667 97.174,4.081 C96.8846667,4.41233333 96.663,4.81366667 96.509,5.285 C96.355,5.75633333 96.278,6.28133333 96.278,6.86 C96.278,7.43866667 96.355,7.96366667 96.509,8.435 C96.663,8.90633333 96.8846667,9.30766667 97.174,9.639 C97.4633333,9.97033333 97.8133333,10.2246667 98.224,10.402 C98.6346667,10.5793333 99.1013333,10.668 99.624,10.668 Z M101.248,6.244 L97.86,6.244 L97.86,6.146 C97.86,5.866 97.902,5.60933333 97.986,5.376 C98.07,5.14266667 98.189,4.942 98.343,4.774 C98.497,4.606 98.6836667,4.47533333 98.903,4.382 C99.1223333,4.28866667 99.3626667,4.242 99.624,4.242 C100.128,4.242 100.524667,4.41233333 100.814,4.753 C101.103333,5.09366667 101.248,5.544 101.248,6.104 L101.248,6.104 L101.248,6.244 Z M106.078,10.5 L106.078,7.392 L107.366,7.392 L108.57,9.548 C108.766,9.90266667 108.973667,10.15 109.193,10.29 C109.412333,10.43 109.676,10.5 109.984,10.5 L109.984,10.5 L110.852,10.5 L110.852,9.254 L110.054,9.254 L109.074,7.49 C108.943333,7.24733333 108.808,7.077 108.668,6.979 C108.528,6.881 108.364667,6.81333333 108.178,6.776 L108.178,6.776 L108.178,6.72 C108.355333,6.67333333 108.497667,6.60333333 108.605,6.51 C108.712333,6.41666667 108.836,6.24866667 108.976,6.006 L108.976,6.006 L109.9,4.466 L110.712,4.466 L110.712,3.22 L109.97,3.22 C109.652667,3.22 109.391333,3.28533333 109.186,3.416 C108.980667,3.54666667 108.775333,3.78466667 108.57,4.13 L108.57,4.13 L107.366,6.16 L106.078,6.16 L106.078,3.22 L104.552,3.22 L104.552,10.5 L106.078,10.5 Z M115.318,10.668 C116.018,10.668 116.610667,10.5093333 117.096,10.192 C117.581333,9.87466667 117.945333,9.41733333 118.188,8.82 L118.188,8.82 L117.026,8.204 C116.867333,8.568 116.655,8.85966667 116.389,9.079 C116.123,9.29833333 115.766,9.408 115.318,9.408 C114.758,9.408 114.335667,9.233 114.051,8.883 C113.766333,8.533 113.624,8.078 113.624,7.518 L113.624,7.518 L113.624,6.216 C113.624,5.656 113.766333,5.201 114.051,4.851 C114.335667,4.501 114.758,4.326 115.318,4.326 C115.738,4.326 116.076333,4.42633333 116.333,4.627 C116.589667,4.82766667 116.769333,5.096 116.872,5.432 L116.872,5.432 L118.132,4.844 C117.917333,4.30266667 117.576667,3.86866667 117.11,3.542 C116.643333,3.21533333 116.046,3.052 115.318,3.052 C114.795333,3.052 114.328667,3.14066667 113.918,3.318 C113.507333,3.49533333 113.162,3.74966667 112.882,4.081 C112.602,4.41233333 112.387333,4.81366667 112.238,5.285 C112.088667,5.75633333 112.014,6.28133333 112.014,6.86 C112.014,7.43866667 112.088667,7.96366667 112.238,8.435 C112.387333,8.90633333 112.602,9.30766667 112.882,9.639 C113.162,9.97033333 113.507333,10.2246667 113.918,10.402 C114.328667,10.5793333 114.795333,10.668 115.318,10.668 Z" id="ндекс" fill="#342B06"></path>
            </g>
        </g>
    </g>
</svg>